<svg width="1000" height="600" xmlns="http://www.w3.org/2000/svg"><defs><linearGradient id="a" gradientTransform="rotate(90)"><stop offset="5%" stop-color="#6371ea"/><stop offset="95%" stop-color="#8a94ef"/></linearGradient><linearGradient id="b" gradientTransform="rotate(90)"><stop offset="5%" stop-color="#f3effd"/><stop offset="95%" stop-color="#f6f3fd"/></linearGradient></defs><path fill="#4834d4" d="M0 0h1000v600H0z"/><path d="M0 200c52.427-4.02 104.854-8.038 161-12 56.146-3.962 116.01-7.865 173-3 56.99 4.865 111.105 18.5 167 23 55.895 4.5 113.57-.134 167 1 53.43 1.134 102.616 8.036 166 3s140.967-22.01 171-26c30.033-3.99 12.517 5.005 35 14l-40 400H0Z" fill="url(#a)"/><path d="M0 400c51.682-4.29 103.365-8.578 160-11 56.635-2.422 118.224-2.975 175 1 56.776 3.975 108.741 12.48 164 11 55.259-1.48 113.812-12.943 170-16 56.188-3.057 110.012 2.292 170 5s126.14 2.774 154 4 17.43 3.613 47 6l-40 200H0Z" fill="url(#b)"/></svg>