<svg id="wave" style="transform:rotate(180deg); transition: 0.3s" viewBox="0 0 1440 490" version="1.1" xmlns="http://www.w3.org/2000/svg"><defs><linearGradient id="sw-gradient-0" x1="0" x2="0" y1="1" y2="0"><stop stop-color="rgba(72, 52, 212, 1)" offset="0%"></stop><stop stop-color="rgba(187, 193, 250, 1)" offset="100%"></stop></linearGradient></defs><path style="transform:translate(0, 0px); opacity:1" fill="url(#sw-gradient-0)" d="M0,147L26.7,179.7C53.3,212,107,278,160,294C213.3,310,267,278,320,245C373.3,212,427,180,480,204.2C533.3,229,587,310,640,285.8C693.3,261,747,131,800,114.3C853.3,98,907,196,960,236.8C1013.3,278,1067,261,1120,212.3C1173.3,163,1227,82,1280,49C1333.3,16,1387,33,1440,89.8C1493.3,147,1547,245,1600,245C1653.3,245,1707,147,1760,130.7C1813.3,114,1867,180,1920,212.3C1973.3,245,2027,245,2080,220.5C2133.3,196,2187,147,2240,171.5C2293.3,196,2347,294,2400,310.3C2453.3,327,2507,261,2560,253.2C2613.3,245,2667,294,2720,326.7C2773.3,359,2827,376,2880,383.8C2933.3,392,2987,392,3040,326.7C3093.3,261,3147,131,3200,122.5C3253.3,114,3307,229,3360,294C3413.3,359,3467,376,3520,367.5C3573.3,359,3627,327,3680,285.8C3733.3,245,3787,196,3813,171.5L3840,147L3840,490L3813.3,490C3786.7,490,3733,490,3680,490C3626.7,490,3573,490,3520,490C3466.7,490,3413,490,3360,490C3306.7,490,3253,490,3200,490C3146.7,490,3093,490,3040,490C2986.7,490,2933,490,2880,490C2826.7,490,2773,490,2720,490C2666.7,490,2613,490,2560,490C2506.7,490,2453,490,2400,490C2346.7,490,2293,490,2240,490C2186.7,490,2133,490,2080,490C2026.7,490,1973,490,1920,490C1866.7,490,1813,490,1760,490C1706.7,490,1653,490,1600,490C1546.7,490,1493,490,1440,490C1386.7,490,1333,490,1280,490C1226.7,490,1173,490,1120,490C1066.7,490,1013,490,960,490C906.7,490,853,490,800,490C746.7,490,693,490,640,490C586.7,490,533,490,480,490C426.7,490,373,490,320,490C266.7,490,213,490,160,490C106.7,490,53,490,27,490L0,490Z"></path></svg>