<svg id="wave" style="transform:rotate(180deg); transition: 0.3s" viewBox="0 0 1440 490" version="1.1" xmlns="http://www.w3.org/2000/svg"><defs><linearGradient id="sw-gradient-0" x1="0" x2="0" y1="1" y2="0"><stop stop-color="rgba(72, 52, 212, 1)" offset="0%"></stop><stop stop-color="rgba(214.607, 218.454, 255, 1)" offset="100%"></stop></linearGradient></defs><path style="transform:translate(0, 0px); opacity:1" fill="url(#sw-gradient-0)" d="M0,196L20,236.8C40,278,80,359,120,392C160,425,200,408,240,392C280,376,320,359,360,310.3C400,261,440,180,480,155.2C520,131,560,163,600,187.8C640,212,680,229,720,269.5C760,310,800,376,840,334.8C880,294,920,147,960,147C1000,147,1040,294,1080,310.3C1120,327,1160,212,1200,196C1240,180,1280,261,1320,294C1360,327,1400,310,1440,318.5C1480,327,1520,359,1560,375.7C1600,392,1640,392,1680,351.2C1720,310,1760,229,1800,196C1840,163,1880,180,1920,171.5C1960,163,2000,131,2040,98C2080,65,2120,33,2160,49C2200,65,2240,131,2280,130.7C2320,131,2360,65,2400,89.8C2440,114,2480,229,2520,261.3C2560,294,2600,245,2640,261.3C2680,278,2720,359,2760,351.2C2800,343,2840,245,2860,196L2880,147L2880,490L2860,490C2840,490,2800,490,2760,490C2720,490,2680,490,2640,490C2600,490,2560,490,2520,490C2480,490,2440,490,2400,490C2360,490,2320,490,2280,490C2240,490,2200,490,2160,490C2120,490,2080,490,2040,490C2000,490,1960,490,1920,490C1880,490,1840,490,1800,490C1760,490,1720,490,1680,490C1640,490,1600,490,1560,490C1520,490,1480,490,1440,490C1400,490,1360,490,1320,490C1280,490,1240,490,1200,490C1160,490,1120,490,1080,490C1040,490,1000,490,960,490C920,490,880,490,840,490C800,490,760,490,720,490C680,490,640,490,600,490C560,490,520,490,480,490C440,490,400,490,360,490C320,490,280,490,240,490C200,490,160,490,120,490C80,490,40,490,20,490L0,490Z"></path></svg>