<svg width="952" height="710" viewBox="0 0 952 710" fill="none" xmlns="http://www.w3.org/2000/svg">
<g filter="url(#filter0_ddddii_672_87)">
<g clip-path="url(#clip0_672_87)">
<rect x="69" y="69" width="802" height="560" rx="25" fill="white"/>
<g filter="url(#filter1_dd_672_87)">
<rect x="372" y="692" width="465" height="328" rx="20" fill="#C6C6C6"/>
</g>
<g filter="url(#filter2_ddddii_672_87)">
<rect x="69" y="69" width="802" height="560" rx="20" fill="#C6C6C6"/>
<rect x="204" y="153" width="531" height="392" rx="18" fill="white"/>
<rect opacity="0.6" x="298" y="185" width="360" height="25" rx="12.5" fill="#939393" fill-opacity="0.4"/>
<rect opacity="0.6" x="245" y="269" width="335" height="44" rx="4" fill="#939393" fill-opacity="0.4"/>
<rect opacity="0.2" x="245" y="329" width="449" height="97" rx="4" fill="#939393" fill-opacity="0.4"/>
<rect opacity="0.6" x="245" y="234" width="154" height="16" rx="8" fill="#6371EA"/>
<rect opacity="0.4" x="245" y="457" width="176" height="19" rx="9.5" fill="#D45B4A"/>
<rect opacity="0.2" x="245" y="490" width="449" height="20" rx="4" fill="#D45B4A"/>
<rect x="586" y="269" width="108" height="44" rx="4" fill="#6371EA"/>
<path d="M273.6 292.22C273.6 292.633 273.573 293.007 273.52 293.34H265.1C265.167 294.22 265.493 294.927 266.08 295.46C266.667 295.993 267.387 296.26 268.24 296.26C269.467 296.26 270.333 295.747 270.84 294.72H273.3C272.967 295.733 272.36 296.567 271.48 297.22C270.613 297.86 269.533 298.18 268.24 298.18C267.187 298.18 266.24 297.947 265.4 297.48C264.573 297 263.92 296.333 263.44 295.48C262.973 294.613 262.74 293.613 262.74 292.48C262.74 291.347 262.967 290.353 263.42 289.5C263.887 288.633 264.533 287.967 265.36 287.5C266.2 287.033 267.16 286.8 268.24 286.8C269.28 286.8 270.207 287.027 271.02 287.48C271.833 287.933 272.467 288.573 272.92 289.4C273.373 290.213 273.6 291.153 273.6 292.22ZM271.22 291.5C271.207 290.66 270.907 289.987 270.32 289.48C269.733 288.973 269.007 288.72 268.14 288.72C267.353 288.72 266.68 288.973 266.12 289.48C265.56 289.973 265.227 290.647 265.12 291.5H271.22ZM280.564 292.42L284.124 298H281.544L279.164 294.26L276.924 298H274.544L278.104 292.58L274.544 286.98H277.124L279.504 290.72L281.744 286.98H284.124L280.564 292.42ZM285.064 292.44C285.064 291.333 285.291 290.353 285.744 289.5C286.211 288.647 286.838 287.987 287.624 287.52C288.424 287.04 289.304 286.8 290.264 286.8C291.131 286.8 291.884 286.973 292.524 287.32C293.178 287.653 293.698 288.073 294.084 288.58V286.98H296.384V298H294.084V296.36C293.698 296.88 293.171 297.313 292.504 297.66C291.838 298.007 291.078 298.18 290.224 298.18C289.278 298.18 288.411 297.94 287.624 297.46C286.838 296.967 286.211 296.287 285.744 295.42C285.291 294.54 285.064 293.547 285.064 292.44ZM294.084 292.48C294.084 291.72 293.924 291.06 293.604 290.5C293.298 289.94 292.891 289.513 292.384 289.22C291.878 288.927 291.331 288.78 290.744 288.78C290.158 288.78 289.611 288.927 289.104 289.22C288.598 289.5 288.184 289.92 287.864 290.48C287.558 291.027 287.404 291.68 287.404 292.44C287.404 293.2 287.558 293.867 287.864 294.44C288.184 295.013 288.598 295.453 289.104 295.76C289.624 296.053 290.171 296.2 290.744 296.2C291.331 296.2 291.878 296.053 292.384 295.76C292.891 295.467 293.298 295.04 293.604 294.48C293.924 293.907 294.084 293.24 294.084 292.48ZM312.719 286.8C313.586 286.8 314.359 286.98 315.039 287.34C315.732 287.7 316.272 288.233 316.659 288.94C317.059 289.647 317.259 290.5 317.259 291.5V298H314.999V291.84C314.999 290.853 314.752 290.1 314.259 289.58C313.766 289.047 313.092 288.78 312.239 288.78C311.386 288.78 310.706 289.047 310.199 289.58C309.706 290.1 309.459 290.853 309.459 291.84V298H307.199V291.84C307.199 290.853 306.952 290.1 306.459 289.58C305.966 289.047 305.292 288.78 304.439 288.78C303.586 288.78 302.906 289.047 302.399 289.58C301.906 290.1 301.659 290.853 301.659 291.84V298H299.379V286.98H301.659V288.24C302.032 287.787 302.506 287.433 303.079 287.18C303.652 286.927 304.266 286.8 304.919 286.8C305.799 286.8 306.586 286.987 307.279 287.36C307.972 287.733 308.506 288.273 308.879 288.98C309.212 288.313 309.732 287.787 310.439 287.4C311.146 287 311.906 286.8 312.719 286.8ZM322.44 288.6C322.827 288.093 323.353 287.667 324.02 287.32C324.687 286.973 325.44 286.8 326.28 286.8C327.24 286.8 328.113 287.04 328.9 287.52C329.7 287.987 330.327 288.647 330.78 289.5C331.233 290.353 331.46 291.333 331.46 292.44C331.46 293.547 331.233 294.54 330.78 295.42C330.327 296.287 329.7 296.967 328.9 297.46C328.113 297.94 327.24 298.18 326.28 298.18C325.44 298.18 324.693 298.013 324.04 297.68C323.387 297.333 322.853 296.907 322.44 296.4V303.24H320.16V286.98H322.44V288.6ZM329.14 292.44C329.14 291.68 328.98 291.027 328.66 290.48C328.353 289.92 327.94 289.5 327.42 289.22C326.913 288.927 326.367 288.78 325.78 288.78C325.207 288.78 324.66 288.927 324.14 289.22C323.633 289.513 323.22 289.94 322.9 290.5C322.593 291.06 322.44 291.72 322.44 292.48C322.44 293.24 322.593 293.907 322.9 294.48C323.22 295.04 323.633 295.467 324.14 295.76C324.66 296.053 325.207 296.2 325.78 296.2C326.367 296.2 326.913 296.053 327.42 295.76C327.94 295.453 328.353 295.013 328.66 294.44C328.98 293.867 329.14 293.2 329.14 292.44ZM335.995 283.2V298H333.715V283.2H335.995ZM349.088 292.22C349.088 292.633 349.062 293.007 349.008 293.34H340.588C340.655 294.22 340.982 294.927 341.568 295.46C342.155 295.993 342.875 296.26 343.728 296.26C344.955 296.26 345.822 295.747 346.328 294.72H348.788C348.455 295.733 347.848 296.567 346.968 297.22C346.102 297.86 345.022 298.18 343.728 298.18C342.675 298.18 341.728 297.947 340.888 297.48C340.062 297 339.408 296.333 338.928 295.48C338.462 294.613 338.228 293.613 338.228 292.48C338.228 291.347 338.455 290.353 338.908 289.5C339.375 288.633 340.022 287.967 340.848 287.5C341.688 287.033 342.648 286.8 343.728 286.8C344.768 286.8 345.695 287.027 346.508 287.48C347.322 287.933 347.955 288.573 348.408 289.4C348.862 290.213 349.088 291.153 349.088 292.22ZM346.708 291.5C346.695 290.66 346.395 289.987 345.808 289.48C345.222 288.973 344.495 288.72 343.628 288.72C342.842 288.72 342.168 288.973 341.608 289.48C341.048 289.973 340.715 290.647 340.608 291.5H346.708ZM361.592 285.08C363.112 285.08 364.425 285.36 365.532 285.92C366.639 286.48 367.479 287.267 368.052 288.28C368.639 289.28 368.932 290.447 368.932 291.78C368.932 292.847 368.745 293.867 368.372 294.84C368.012 295.813 367.485 296.607 366.792 297.22C366.112 297.833 365.305 298.14 364.372 298.14C363.692 298.14 363.159 297.993 362.772 297.7C362.385 297.393 362.145 296.967 362.052 296.42C361.639 296.953 361.119 297.373 360.492 297.68C359.865 297.987 359.212 298.14 358.532 298.14C357.505 298.14 356.699 297.833 356.112 297.22C355.539 296.593 355.252 295.747 355.252 294.68C355.252 293.667 355.459 292.72 355.872 291.84C356.299 290.96 356.892 290.26 357.652 289.74C358.412 289.207 359.265 288.94 360.212 288.94C361.372 288.94 362.185 289.333 362.652 290.12L362.832 289.12H364.812L363.812 294.84C363.772 295.12 363.752 295.367 363.752 295.58C363.752 295.927 363.819 296.187 363.952 296.36C364.099 296.533 364.352 296.62 364.712 296.62C365.219 296.62 365.652 296.373 366.012 295.88C366.372 295.373 366.639 294.753 366.812 294.02C366.999 293.287 367.092 292.573 367.092 291.88C367.092 290.187 366.599 288.893 365.612 288C364.625 287.107 363.192 286.66 361.312 286.66C359.739 286.66 358.325 287.033 357.072 287.78C355.832 288.527 354.859 289.553 354.152 290.86C353.445 292.167 353.092 293.62 353.092 295.22C353.092 296.927 353.599 298.227 354.612 299.12C355.625 300.013 357.072 300.46 358.952 300.46C360.219 300.46 361.325 300.227 362.272 299.76L362.572 301.28C361.359 301.8 359.999 302.06 358.492 302.06C357.039 302.06 355.765 301.787 354.672 301.24C353.579 300.693 352.732 299.913 352.132 298.9C351.532 297.9 351.232 296.733 351.232 295.4C351.232 293.493 351.672 291.753 352.552 290.18C353.445 288.607 354.679 287.367 356.252 286.46C357.825 285.54 359.605 285.08 361.592 285.08ZM359.232 296.38C359.792 296.38 360.299 296.22 360.752 295.9C361.219 295.567 361.585 295.133 361.852 294.6C362.119 294.053 362.252 293.473 362.252 292.86C362.252 292.22 362.072 291.7 361.712 291.3C361.365 290.887 360.872 290.68 360.232 290.68C359.659 290.68 359.152 290.86 358.712 291.22C358.285 291.567 357.952 292.02 357.712 292.58C357.485 293.14 357.372 293.727 357.372 294.34C357.372 294.967 357.525 295.467 357.832 295.84C358.139 296.2 358.605 296.38 359.232 296.38ZM381.94 292.22C381.94 292.633 381.913 293.007 381.86 293.34H373.44C373.507 294.22 373.833 294.927 374.42 295.46C375.007 295.993 375.727 296.26 376.58 296.26C377.807 296.26 378.673 295.747 379.18 294.72H381.64C381.307 295.733 380.7 296.567 379.82 297.22C378.953 297.86 377.873 298.18 376.58 298.18C375.527 298.18 374.58 297.947 373.74 297.48C372.913 297 372.26 296.333 371.78 295.48C371.313 294.613 371.08 293.613 371.08 292.48C371.08 291.347 371.307 290.353 371.76 289.5C372.227 288.633 372.873 287.967 373.7 287.5C374.54 287.033 375.5 286.8 376.58 286.8C377.62 286.8 378.547 287.027 379.36 287.48C380.173 287.933 380.807 288.573 381.26 289.4C381.713 290.213 381.94 291.153 381.94 292.22ZM379.56 291.5C379.547 290.66 379.247 289.987 378.66 289.48C378.073 288.973 377.347 288.72 376.48 288.72C375.693 288.72 375.02 288.973 374.46 289.48C373.9 289.973 373.567 290.647 373.46 291.5H379.56ZM397.524 286.8C398.39 286.8 399.164 286.98 399.844 287.34C400.537 287.7 401.077 288.233 401.464 288.94C401.864 289.647 402.064 290.5 402.064 291.5V298H399.804V291.84C399.804 290.853 399.557 290.1 399.064 289.58C398.57 289.047 397.897 288.78 397.044 288.78C396.19 288.78 395.51 289.047 395.004 289.58C394.51 290.1 394.264 290.853 394.264 291.84V298H392.004V291.84C392.004 290.853 391.757 290.1 391.264 289.58C390.77 289.047 390.097 288.78 389.244 288.78C388.39 288.78 387.71 289.047 387.204 289.58C386.71 290.1 386.464 290.853 386.464 291.84V298H384.184V286.98H386.464V288.24C386.837 287.787 387.31 287.433 387.884 287.18C388.457 286.927 389.07 286.8 389.724 286.8C390.604 286.8 391.39 286.987 392.084 287.36C392.777 287.733 393.31 288.273 393.684 288.98C394.017 288.313 394.537 287.787 395.244 287.4C395.95 287 396.71 286.8 397.524 286.8ZM404.205 292.44C404.205 291.333 404.432 290.353 404.885 289.5C405.352 288.647 405.978 287.987 406.765 287.52C407.565 287.04 408.445 286.8 409.405 286.8C410.272 286.8 411.025 286.973 411.665 287.32C412.318 287.653 412.838 288.073 413.225 288.58V286.98H415.525V298H413.225V296.36C412.838 296.88 412.312 297.313 411.645 297.66C410.978 298.007 410.218 298.18 409.365 298.18C408.418 298.18 407.552 297.94 406.765 297.46C405.978 296.967 405.352 296.287 404.885 295.42C404.432 294.54 404.205 293.547 404.205 292.44ZM413.225 292.48C413.225 291.72 413.065 291.06 412.745 290.5C412.438 289.94 412.032 289.513 411.525 289.22C411.018 288.927 410.472 288.78 409.885 288.78C409.298 288.78 408.752 288.927 408.245 289.22C407.738 289.5 407.325 289.92 407.005 290.48C406.698 291.027 406.545 291.68 406.545 292.44C406.545 293.2 406.698 293.867 407.005 294.44C407.325 295.013 407.738 295.453 408.245 295.76C408.765 296.053 409.312 296.2 409.885 296.2C410.472 296.2 411.018 296.053 411.525 295.76C412.032 295.467 412.438 295.04 412.745 294.48C413.065 293.907 413.225 293.24 413.225 292.48ZM419.68 285.52C419.266 285.52 418.92 285.38 418.64 285.1C418.36 284.82 418.22 284.473 418.22 284.06C418.22 283.647 418.36 283.3 418.64 283.02C418.92 282.74 419.266 282.6 419.68 282.6C420.08 282.6 420.42 282.74 420.7 283.02C420.98 283.3 421.12 283.647 421.12 284.06C421.12 284.473 420.98 284.82 420.7 285.1C420.42 285.38 420.08 285.52 419.68 285.52ZM420.8 286.98V298H418.52V286.98H420.8ZM426.073 283.2V298H423.793V283.2H426.073ZM429.986 298.14C429.573 298.14 429.226 298 428.946 297.72C428.666 297.44 428.526 297.093 428.526 296.68C428.526 296.267 428.666 295.92 428.946 295.64C429.226 295.36 429.573 295.22 429.986 295.22C430.386 295.22 430.726 295.36 431.006 295.64C431.286 295.92 431.426 296.267 431.426 296.68C431.426 297.093 431.286 297.44 431.006 297.72C430.726 298 430.386 298.14 429.986 298.14ZM433.131 292.48C433.131 291.347 433.357 290.353 433.811 289.5C434.277 288.633 434.917 287.967 435.731 287.5C436.544 287.033 437.477 286.8 438.531 286.8C439.864 286.8 440.964 287.12 441.831 287.76C442.711 288.387 443.304 289.287 443.611 290.46H441.151C440.951 289.913 440.631 289.487 440.191 289.18C439.751 288.873 439.197 288.72 438.531 288.72C437.597 288.72 436.851 289.053 436.291 289.72C435.744 290.373 435.471 291.293 435.471 292.48C435.471 293.667 435.744 294.593 436.291 295.26C436.851 295.927 437.597 296.26 438.531 296.26C439.851 296.26 440.724 295.68 441.151 294.52H443.611C443.291 295.64 442.691 296.533 441.811 297.2C440.931 297.853 439.837 298.18 438.531 298.18C437.477 298.18 436.544 297.947 435.731 297.48C434.917 297 434.277 296.333 433.811 295.48C433.357 294.613 433.131 293.613 433.131 292.48ZM450.663 298.18C449.623 298.18 448.683 297.947 447.843 297.48C447.003 297 446.343 296.333 445.863 295.48C445.383 294.613 445.143 293.613 445.143 292.48C445.143 291.36 445.389 290.367 445.883 289.5C446.376 288.633 447.049 287.967 447.903 287.5C448.756 287.033 449.709 286.8 450.763 286.8C451.816 286.8 452.769 287.033 453.623 287.5C454.476 287.967 455.149 288.633 455.643 289.5C456.136 290.367 456.383 291.36 456.383 292.48C456.383 293.6 456.129 294.593 455.623 295.46C455.116 296.327 454.423 297 453.543 297.48C452.676 297.947 451.716 298.18 450.663 298.18ZM450.663 296.2C451.249 296.2 451.796 296.06 452.303 295.78C452.823 295.5 453.243 295.08 453.563 294.52C453.883 293.96 454.043 293.28 454.043 292.48C454.043 291.68 453.889 291.007 453.583 290.46C453.276 289.9 452.869 289.48 452.363 289.2C451.856 288.92 451.309 288.78 450.723 288.78C450.136 288.78 449.589 288.92 449.083 289.2C448.589 289.48 448.196 289.9 447.903 290.46C447.609 291.007 447.463 291.68 447.463 292.48C447.463 293.667 447.763 294.587 448.363 295.24C448.976 295.88 449.743 296.2 450.663 296.2ZM471.977 286.8C472.843 286.8 473.617 286.98 474.297 287.34C474.99 287.7 475.53 288.233 475.917 288.94C476.317 289.647 476.517 290.5 476.517 291.5V298H474.257V291.84C474.257 290.853 474.01 290.1 473.517 289.58C473.023 289.047 472.35 288.78 471.497 288.78C470.643 288.78 469.963 289.047 469.457 289.58C468.963 290.1 468.717 290.853 468.717 291.84V298H466.457V291.84C466.457 290.853 466.21 290.1 465.717 289.58C465.223 289.047 464.55 288.78 463.697 288.78C462.843 288.78 462.163 289.047 461.657 289.58C461.163 290.1 460.917 290.853 460.917 291.84V298H458.637V286.98H460.917V288.24C461.29 287.787 461.763 287.433 462.337 287.18C462.91 286.927 463.523 286.8 464.177 286.8C465.057 286.8 465.843 286.987 466.537 287.36C467.23 287.733 467.763 288.273 468.137 288.98C468.47 288.313 468.99 287.787 469.697 287.4C470.403 287 471.163 286.8 471.977 286.8Z" fill="black"/>
<path opacity="0.6" d="M265.645 364.765C265.645 363.745 265.875 362.83 266.335 362.02C266.795 361.2 267.42 360.56 268.21 360.1C269.01 359.64 269.895 359.41 270.865 359.41C272.005 359.41 273 359.685 273.85 360.235C274.7 360.785 275.32 361.565 275.71 362.575H274.075C273.785 361.945 273.365 361.46 272.815 361.12C272.275 360.78 271.625 360.61 270.865 360.61C270.135 360.61 269.48 360.78 268.9 361.12C268.32 361.46 267.865 361.945 267.535 362.575C267.205 363.195 267.04 363.925 267.04 364.765C267.04 365.595 267.205 366.325 267.535 366.955C267.865 367.575 268.32 368.055 268.9 368.395C269.48 368.735 270.135 368.905 270.865 368.905C271.625 368.905 272.275 368.74 272.815 368.41C273.365 368.07 273.785 367.585 274.075 366.955H275.71C275.32 367.955 274.7 368.73 273.85 369.28C273 369.82 272.005 370.09 270.865 370.09C269.895 370.09 269.01 369.865 268.21 369.415C267.42 368.955 266.795 368.32 266.335 367.51C265.875 366.7 265.645 365.785 265.645 364.765ZM281.327 370.135C280.557 370.135 279.857 369.96 279.227 369.61C278.607 369.26 278.117 368.765 277.757 368.125C277.407 367.475 277.232 366.725 277.232 365.875C277.232 365.035 277.412 364.295 277.772 363.655C278.142 363.005 278.642 362.51 279.272 362.17C279.902 361.82 280.607 361.645 281.387 361.645C282.167 361.645 282.872 361.82 283.502 362.17C284.132 362.51 284.627 363 284.987 363.64C285.357 364.28 285.542 365.025 285.542 365.875C285.542 366.725 285.352 367.475 284.972 368.125C284.602 368.765 284.097 369.26 283.457 369.61C282.817 369.96 282.107 370.135 281.327 370.135ZM281.327 368.935C281.817 368.935 282.277 368.82 282.707 368.59C283.137 368.36 283.482 368.015 283.742 367.555C284.012 367.095 284.147 366.535 284.147 365.875C284.147 365.215 284.017 364.655 283.757 364.195C283.497 363.735 283.157 363.395 282.737 363.175C282.317 362.945 281.862 362.83 281.372 362.83C280.872 362.83 280.412 362.945 279.992 363.175C279.582 363.395 279.252 363.735 279.002 364.195C278.752 364.655 278.627 365.215 278.627 365.875C278.627 366.545 278.747 367.11 278.987 367.57C279.237 368.03 279.567 368.375 279.977 368.605C280.387 368.825 280.837 368.935 281.327 368.935ZM288.702 358.9V370H287.337V358.9H288.702ZM292.393 358.9V370H291.028V358.9H292.393ZM294.209 365.86C294.209 365.02 294.379 364.285 294.719 363.655C295.059 363.015 295.524 362.52 296.114 362.17C296.714 361.82 297.379 361.645 298.109 361.645C298.829 361.645 299.454 361.8 299.984 362.11C300.514 362.42 300.909 362.81 301.169 363.28V361.78H302.549V370H301.169V368.47C300.899 368.95 300.494 369.35 299.954 369.67C299.424 369.98 298.804 370.135 298.094 370.135C297.364 370.135 296.704 369.955 296.114 369.595C295.524 369.235 295.059 368.73 294.719 368.08C294.379 367.43 294.209 366.69 294.209 365.86ZM301.169 365.875C301.169 365.255 301.044 364.715 300.794 364.255C300.544 363.795 300.204 363.445 299.774 363.205C299.354 362.955 298.889 362.83 298.379 362.83C297.869 362.83 297.404 362.95 296.984 363.19C296.564 363.43 296.229 363.78 295.979 364.24C295.729 364.7 295.604 365.24 295.604 365.86C295.604 366.49 295.729 367.04 295.979 367.51C296.229 367.97 296.564 368.325 296.984 368.575C297.404 368.815 297.869 368.935 298.379 368.935C298.889 368.935 299.354 368.815 299.774 368.575C300.204 368.325 300.544 367.97 300.794 367.51C301.044 367.04 301.169 366.495 301.169 365.875ZM306.221 363.31C306.501 362.82 306.911 362.42 307.451 362.11C307.991 361.8 308.606 361.645 309.296 361.645C310.036 361.645 310.701 361.82 311.291 362.17C311.881 362.52 312.346 363.015 312.686 363.655C313.026 364.285 313.196 365.02 313.196 365.86C313.196 366.69 313.026 367.43 312.686 368.08C312.346 368.73 311.876 369.235 311.276 369.595C310.686 369.955 310.026 370.135 309.296 370.135C308.586 370.135 307.961 369.98 307.421 369.67C306.891 369.36 306.491 368.965 306.221 368.485V370H304.856V358.9H306.221V363.31ZM311.801 365.86C311.801 365.24 311.676 364.7 311.426 364.24C311.176 363.78 310.836 363.43 310.406 363.19C309.986 362.95 309.521 362.83 309.011 362.83C308.511 362.83 308.046 362.955 307.616 363.205C307.196 363.445 306.856 363.8 306.596 364.27C306.346 364.73 306.221 365.265 306.221 365.875C306.221 366.495 306.346 367.04 306.596 367.51C306.856 367.97 307.196 368.325 307.616 368.575C308.046 368.815 308.511 368.935 309.011 368.935C309.521 368.935 309.986 368.815 310.406 368.575C310.836 368.325 311.176 367.97 311.426 367.51C311.676 367.04 311.801 366.49 311.801 365.86ZM318.578 370.135C317.808 370.135 317.108 369.96 316.478 369.61C315.858 369.26 315.368 368.765 315.008 368.125C314.658 367.475 314.483 366.725 314.483 365.875C314.483 365.035 314.663 364.295 315.023 363.655C315.393 363.005 315.893 362.51 316.523 362.17C317.153 361.82 317.858 361.645 318.638 361.645C319.418 361.645 320.123 361.82 320.753 362.17C321.383 362.51 321.878 363 322.238 363.64C322.608 364.28 322.793 365.025 322.793 365.875C322.793 366.725 322.603 367.475 322.223 368.125C321.853 368.765 321.348 369.26 320.708 369.61C320.068 369.96 319.358 370.135 318.578 370.135ZM318.578 368.935C319.068 368.935 319.528 368.82 319.958 368.59C320.388 368.36 320.733 368.015 320.993 367.555C321.263 367.095 321.398 366.535 321.398 365.875C321.398 365.215 321.268 364.655 321.008 364.195C320.748 363.735 320.408 363.395 319.988 363.175C319.568 362.945 319.113 362.83 318.623 362.83C318.123 362.83 317.663 362.945 317.243 363.175C316.833 363.395 316.503 363.735 316.253 364.195C316.003 364.655 315.878 365.215 315.878 365.875C315.878 366.545 315.998 367.11 316.238 367.57C316.488 368.03 316.818 368.375 317.228 368.605C317.638 368.825 318.088 368.935 318.578 368.935ZM325.953 363.115C326.193 362.645 326.533 362.28 326.973 362.02C327.423 361.76 327.968 361.63 328.608 361.63V363.04H328.248C326.718 363.04 325.953 363.87 325.953 365.53V370H324.588V361.78H325.953V363.115ZM329.673 365.86C329.673 365.02 329.843 364.285 330.183 363.655C330.523 363.015 330.988 362.52 331.578 362.17C332.178 361.82 332.843 361.645 333.573 361.645C334.293 361.645 334.918 361.8 335.448 362.11C335.978 362.42 336.373 362.81 336.633 363.28V361.78H338.013V370H336.633V368.47C336.363 368.95 335.958 369.35 335.418 369.67C334.888 369.98 334.268 370.135 333.558 370.135C332.828 370.135 332.168 369.955 331.578 369.595C330.988 369.235 330.523 368.73 330.183 368.08C329.843 367.43 329.673 366.69 329.673 365.86ZM336.633 365.875C336.633 365.255 336.508 364.715 336.258 364.255C336.008 363.795 335.668 363.445 335.238 363.205C334.818 362.955 334.353 362.83 333.843 362.83C333.333 362.83 332.868 362.95 332.448 363.19C332.028 363.43 331.693 363.78 331.443 364.24C331.193 364.7 331.068 365.24 331.068 365.86C331.068 366.49 331.193 367.04 331.443 367.51C331.693 367.97 332.028 368.325 332.448 368.575C332.868 368.815 333.333 368.935 333.843 368.935C334.353 368.935 334.818 368.815 335.238 368.575C335.668 368.325 336.008 367.97 336.258 367.51C336.508 367.04 336.633 366.495 336.633 365.875ZM341.985 362.905V367.75C341.985 368.15 342.07 368.435 342.24 368.605C342.41 368.765 342.705 368.845 343.125 368.845H344.13V370H342.9C342.14 370 341.57 369.825 341.19 369.475C340.81 369.125 340.62 368.55 340.62 367.75V362.905H339.555V361.78H340.62V359.71H341.985V361.78H344.13V362.905H341.985ZM349.369 370.135C348.599 370.135 347.899 369.96 347.269 369.61C346.649 369.26 346.159 368.765 345.799 368.125C345.449 367.475 345.274 366.725 345.274 365.875C345.274 365.035 345.454 364.295 345.814 363.655C346.184 363.005 346.684 362.51 347.314 362.17C347.944 361.82 348.649 361.645 349.429 361.645C350.209 361.645 350.914 361.82 351.544 362.17C352.174 362.51 352.669 363 353.029 363.64C353.399 364.28 353.584 365.025 353.584 365.875C353.584 366.725 353.394 367.475 353.014 368.125C352.644 368.765 352.139 369.26 351.499 369.61C350.859 369.96 350.149 370.135 349.369 370.135ZM349.369 368.935C349.859 368.935 350.319 368.82 350.749 368.59C351.179 368.36 351.524 368.015 351.784 367.555C352.054 367.095 352.189 366.535 352.189 365.875C352.189 365.215 352.059 364.655 351.799 364.195C351.539 363.735 351.199 363.395 350.779 363.175C350.359 362.945 349.904 362.83 349.414 362.83C348.914 362.83 348.454 362.945 348.034 363.175C347.624 363.395 347.294 363.735 347.044 364.195C346.794 364.655 346.669 365.215 346.669 365.875C346.669 366.545 346.789 367.11 347.029 367.57C347.279 368.03 347.609 368.375 348.019 368.605C348.429 368.825 348.879 368.935 349.369 368.935ZM356.744 363.115C356.984 362.645 357.324 362.28 357.764 362.02C358.214 361.76 358.759 361.63 359.399 361.63V363.04H359.039C357.509 363.04 356.744 363.87 356.744 365.53V370H355.379V361.78H356.744V363.115ZM364.388 360.4V359.155H367.208V370H365.828V360.4H364.388Z" fill="black"/>
<path opacity="0.6" d="M265.645 391.765C265.645 390.745 265.875 389.83 266.335 389.02C266.795 388.2 267.42 387.56 268.21 387.1C269.01 386.64 269.895 386.41 270.865 386.41C272.005 386.41 273 386.685 273.85 387.235C274.7 387.785 275.32 388.565 275.71 389.575H274.075C273.785 388.945 273.365 388.46 272.815 388.12C272.275 387.78 271.625 387.61 270.865 387.61C270.135 387.61 269.48 387.78 268.9 388.12C268.32 388.46 267.865 388.945 267.535 389.575C267.205 390.195 267.04 390.925 267.04 391.765C267.04 392.595 267.205 393.325 267.535 393.955C267.865 394.575 268.32 395.055 268.9 395.395C269.48 395.735 270.135 395.905 270.865 395.905C271.625 395.905 272.275 395.74 272.815 395.41C273.365 395.07 273.785 394.585 274.075 393.955H275.71C275.32 394.955 274.7 395.73 273.85 396.28C273 396.82 272.005 397.09 270.865 397.09C269.895 397.09 269.01 396.865 268.21 396.415C267.42 395.955 266.795 395.32 266.335 394.51C265.875 393.7 265.645 392.785 265.645 391.765ZM281.327 397.135C280.557 397.135 279.857 396.96 279.227 396.61C278.607 396.26 278.117 395.765 277.757 395.125C277.407 394.475 277.232 393.725 277.232 392.875C277.232 392.035 277.412 391.295 277.772 390.655C278.142 390.005 278.642 389.51 279.272 389.17C279.902 388.82 280.607 388.645 281.387 388.645C282.167 388.645 282.872 388.82 283.502 389.17C284.132 389.51 284.627 390 284.987 390.64C285.357 391.28 285.542 392.025 285.542 392.875C285.542 393.725 285.352 394.475 284.972 395.125C284.602 395.765 284.097 396.26 283.457 396.61C282.817 396.96 282.107 397.135 281.327 397.135ZM281.327 395.935C281.817 395.935 282.277 395.82 282.707 395.59C283.137 395.36 283.482 395.015 283.742 394.555C284.012 394.095 284.147 393.535 284.147 392.875C284.147 392.215 284.017 391.655 283.757 391.195C283.497 390.735 283.157 390.395 282.737 390.175C282.317 389.945 281.862 389.83 281.372 389.83C280.872 389.83 280.412 389.945 279.992 390.175C279.582 390.395 279.252 390.735 279.002 391.195C278.752 391.655 278.627 392.215 278.627 392.875C278.627 393.545 278.747 394.11 278.987 394.57C279.237 395.03 279.567 395.375 279.977 395.605C280.387 395.825 280.837 395.935 281.327 395.935ZM288.702 385.9V397H287.337V385.9H288.702ZM292.393 385.9V397H291.028V385.9H292.393ZM294.209 392.86C294.209 392.02 294.379 391.285 294.719 390.655C295.059 390.015 295.524 389.52 296.114 389.17C296.714 388.82 297.379 388.645 298.109 388.645C298.829 388.645 299.454 388.8 299.984 389.11C300.514 389.42 300.909 389.81 301.169 390.28V388.78H302.549V397H301.169V395.47C300.899 395.95 300.494 396.35 299.954 396.67C299.424 396.98 298.804 397.135 298.094 397.135C297.364 397.135 296.704 396.955 296.114 396.595C295.524 396.235 295.059 395.73 294.719 395.08C294.379 394.43 294.209 393.69 294.209 392.86ZM301.169 392.875C301.169 392.255 301.044 391.715 300.794 391.255C300.544 390.795 300.204 390.445 299.774 390.205C299.354 389.955 298.889 389.83 298.379 389.83C297.869 389.83 297.404 389.95 296.984 390.19C296.564 390.43 296.229 390.78 295.979 391.24C295.729 391.7 295.604 392.24 295.604 392.86C295.604 393.49 295.729 394.04 295.979 394.51C296.229 394.97 296.564 395.325 296.984 395.575C297.404 395.815 297.869 395.935 298.379 395.935C298.889 395.935 299.354 395.815 299.774 395.575C300.204 395.325 300.544 394.97 300.794 394.51C301.044 394.04 301.169 393.495 301.169 392.875ZM306.221 390.31C306.501 389.82 306.911 389.42 307.451 389.11C307.991 388.8 308.606 388.645 309.296 388.645C310.036 388.645 310.701 388.82 311.291 389.17C311.881 389.52 312.346 390.015 312.686 390.655C313.026 391.285 313.196 392.02 313.196 392.86C313.196 393.69 313.026 394.43 312.686 395.08C312.346 395.73 311.876 396.235 311.276 396.595C310.686 396.955 310.026 397.135 309.296 397.135C308.586 397.135 307.961 396.98 307.421 396.67C306.891 396.36 306.491 395.965 306.221 395.485V397H304.856V385.9H306.221V390.31ZM311.801 392.86C311.801 392.24 311.676 391.7 311.426 391.24C311.176 390.78 310.836 390.43 310.406 390.19C309.986 389.95 309.521 389.83 309.011 389.83C308.511 389.83 308.046 389.955 307.616 390.205C307.196 390.445 306.856 390.8 306.596 391.27C306.346 391.73 306.221 392.265 306.221 392.875C306.221 393.495 306.346 394.04 306.596 394.51C306.856 394.97 307.196 395.325 307.616 395.575C308.046 395.815 308.511 395.935 309.011 395.935C309.521 395.935 309.986 395.815 310.406 395.575C310.836 395.325 311.176 394.97 311.426 394.51C311.676 394.04 311.801 393.49 311.801 392.86ZM318.578 397.135C317.808 397.135 317.108 396.96 316.478 396.61C315.858 396.26 315.368 395.765 315.008 395.125C314.658 394.475 314.483 393.725 314.483 392.875C314.483 392.035 314.663 391.295 315.023 390.655C315.393 390.005 315.893 389.51 316.523 389.17C317.153 388.82 317.858 388.645 318.638 388.645C319.418 388.645 320.123 388.82 320.753 389.17C321.383 389.51 321.878 390 322.238 390.64C322.608 391.28 322.793 392.025 322.793 392.875C322.793 393.725 322.603 394.475 322.223 395.125C321.853 395.765 321.348 396.26 320.708 396.61C320.068 396.96 319.358 397.135 318.578 397.135ZM318.578 395.935C319.068 395.935 319.528 395.82 319.958 395.59C320.388 395.36 320.733 395.015 320.993 394.555C321.263 394.095 321.398 393.535 321.398 392.875C321.398 392.215 321.268 391.655 321.008 391.195C320.748 390.735 320.408 390.395 319.988 390.175C319.568 389.945 319.113 389.83 318.623 389.83C318.123 389.83 317.663 389.945 317.243 390.175C316.833 390.395 316.503 390.735 316.253 391.195C316.003 391.655 315.878 392.215 315.878 392.875C315.878 393.545 315.998 394.11 316.238 394.57C316.488 395.03 316.818 395.375 317.228 395.605C317.638 395.825 318.088 395.935 318.578 395.935ZM325.953 390.115C326.193 389.645 326.533 389.28 326.973 389.02C327.423 388.76 327.968 388.63 328.608 388.63V390.04H328.248C326.718 390.04 325.953 390.87 325.953 392.53V397H324.588V388.78H325.953V390.115ZM329.673 392.86C329.673 392.02 329.843 391.285 330.183 390.655C330.523 390.015 330.988 389.52 331.578 389.17C332.178 388.82 332.843 388.645 333.573 388.645C334.293 388.645 334.918 388.8 335.448 389.11C335.978 389.42 336.373 389.81 336.633 390.28V388.78H338.013V397H336.633V395.47C336.363 395.95 335.958 396.35 335.418 396.67C334.888 396.98 334.268 397.135 333.558 397.135C332.828 397.135 332.168 396.955 331.578 396.595C330.988 396.235 330.523 395.73 330.183 395.08C329.843 394.43 329.673 393.69 329.673 392.86ZM336.633 392.875C336.633 392.255 336.508 391.715 336.258 391.255C336.008 390.795 335.668 390.445 335.238 390.205C334.818 389.955 334.353 389.83 333.843 389.83C333.333 389.83 332.868 389.95 332.448 390.19C332.028 390.43 331.693 390.78 331.443 391.24C331.193 391.7 331.068 392.24 331.068 392.86C331.068 393.49 331.193 394.04 331.443 394.51C331.693 394.97 332.028 395.325 332.448 395.575C332.868 395.815 333.333 395.935 333.843 395.935C334.353 395.935 334.818 395.815 335.238 395.575C335.668 395.325 336.008 394.97 336.258 394.51C336.508 394.04 336.633 393.495 336.633 392.875ZM341.985 389.905V394.75C341.985 395.15 342.07 395.435 342.24 395.605C342.41 395.765 342.705 395.845 343.125 395.845H344.13V397H342.9C342.14 397 341.57 396.825 341.19 396.475C340.81 396.125 340.62 395.55 340.62 394.75V389.905H339.555V388.78H340.62V386.71H341.985V388.78H344.13V389.905H341.985ZM349.369 397.135C348.599 397.135 347.899 396.96 347.269 396.61C346.649 396.26 346.159 395.765 345.799 395.125C345.449 394.475 345.274 393.725 345.274 392.875C345.274 392.035 345.454 391.295 345.814 390.655C346.184 390.005 346.684 389.51 347.314 389.17C347.944 388.82 348.649 388.645 349.429 388.645C350.209 388.645 350.914 388.82 351.544 389.17C352.174 389.51 352.669 390 353.029 390.64C353.399 391.28 353.584 392.025 353.584 392.875C353.584 393.725 353.394 394.475 353.014 395.125C352.644 395.765 352.139 396.26 351.499 396.61C350.859 396.96 350.149 397.135 349.369 397.135ZM349.369 395.935C349.859 395.935 350.319 395.82 350.749 395.59C351.179 395.36 351.524 395.015 351.784 394.555C352.054 394.095 352.189 393.535 352.189 392.875C352.189 392.215 352.059 391.655 351.799 391.195C351.539 390.735 351.199 390.395 350.779 390.175C350.359 389.945 349.904 389.83 349.414 389.83C348.914 389.83 348.454 389.945 348.034 390.175C347.624 390.395 347.294 390.735 347.044 391.195C346.794 391.655 346.669 392.215 346.669 392.875C346.669 393.545 346.789 394.11 347.029 394.57C347.279 395.03 347.609 395.375 348.019 395.605C348.429 395.825 348.879 395.935 349.369 395.935ZM356.744 390.115C356.984 389.645 357.324 389.28 357.764 389.02C358.214 388.76 358.759 388.63 359.399 388.63V390.04H359.039C357.509 390.04 356.744 390.87 356.744 392.53V397H355.379V388.78H356.744V390.115ZM364.583 395.905C365.853 394.885 366.848 394.05 367.568 393.4C368.288 392.74 368.893 392.055 369.383 391.345C369.883 390.625 370.133 389.92 370.133 389.23C370.133 388.58 369.973 388.07 369.653 387.7C369.343 387.32 368.838 387.13 368.138 387.13C367.458 387.13 366.928 387.345 366.548 387.775C366.178 388.195 365.978 388.76 365.948 389.47H364.628C364.668 388.35 365.008 387.485 365.648 386.875C366.288 386.265 367.113 385.96 368.123 385.96C369.153 385.96 369.968 386.245 370.568 386.815C371.178 387.385 371.483 388.17 371.483 389.17C371.483 390 371.233 390.81 370.733 391.6C370.243 392.38 369.683 393.07 369.053 393.67C368.423 394.26 367.618 394.95 366.638 395.74H371.798V396.88H364.583V395.905Z" fill="black"/>
<path d="M631.41 294.87H627.045L626.295 297H624.51L628.245 286.56H630.225L633.96 297H632.16L631.41 294.87ZM630.93 293.475L629.235 288.63L627.525 293.475H630.93ZM635.014 292.83C635.014 292 635.184 291.265 635.524 290.625C635.874 289.985 636.344 289.49 636.934 289.14C637.534 288.78 638.199 288.6 638.929 288.6C639.469 288.6 639.999 288.72 640.519 288.96C641.049 289.19 641.469 289.5 641.779 289.89V285.9H643.504V297H641.779V295.755C641.499 296.155 641.109 296.485 640.609 296.745C640.119 297.005 639.554 297.135 638.914 297.135C638.194 297.135 637.534 296.955 636.934 296.595C636.344 296.225 635.874 295.715 635.524 295.065C635.184 294.405 635.014 293.66 635.014 292.83ZM641.779 292.86C641.779 292.29 641.659 291.795 641.419 291.375C641.189 290.955 640.884 290.635 640.504 290.415C640.124 290.195 639.714 290.085 639.274 290.085C638.834 290.085 638.424 290.195 638.044 290.415C637.664 290.625 637.354 290.94 637.114 291.36C636.884 291.77 636.769 292.26 636.769 292.83C636.769 293.4 636.884 293.9 637.114 294.33C637.354 294.76 637.664 295.09 638.044 295.32C638.434 295.54 638.844 295.65 639.274 295.65C639.714 295.65 640.124 295.54 640.504 295.32C640.884 295.1 641.189 294.78 641.419 294.36C641.659 293.93 641.779 293.43 641.779 292.86ZM645.18 292.83C645.18 292 645.35 291.265 645.69 290.625C646.04 289.985 646.51 289.49 647.1 289.14C647.7 288.78 648.365 288.6 649.095 288.6C649.635 288.6 650.165 288.72 650.685 288.96C651.215 289.19 651.635 289.5 651.945 289.89V285.9H653.67V297H651.945V295.755C651.665 296.155 651.275 296.485 650.775 296.745C650.285 297.005 649.72 297.135 649.08 297.135C648.36 297.135 647.7 296.955 647.1 296.595C646.51 296.225 646.04 295.715 645.69 295.065C645.35 294.405 645.18 293.66 645.18 292.83ZM651.945 292.86C651.945 292.29 651.825 291.795 651.585 291.375C651.355 290.955 651.05 290.635 650.67 290.415C650.29 290.195 649.88 290.085 649.44 290.085C649 290.085 648.59 290.195 648.21 290.415C647.83 290.625 647.52 290.94 647.28 291.36C647.05 291.77 646.935 292.26 646.935 292.83C646.935 293.4 647.05 293.9 647.28 294.33C647.52 294.76 647.83 295.09 648.21 295.32C648.6 295.54 649.01 295.65 649.44 295.65C649.88 295.65 650.29 295.54 650.67 295.32C651.05 295.1 651.355 294.78 651.585 294.36C651.825 293.93 651.945 293.43 651.945 292.86Z" fill="white"/>
</g>
</g>
</g>
<defs>
<filter id="filter0_ddddii_672_87" x="0" y="0" width="952" height="710" filterUnits="userSpaceOnUse" color-interpolation-filters="sRGB">
<feFlood flood-opacity="0" result="BackgroundImageFix"/>
<feColorMatrix in="SourceAlpha" type="matrix" values="0 0 0 0 0 0 0 0 0 0 0 0 0 0 0 0 0 0 127 0" result="hardAlpha"/>
<feOffset dx="23" dy="23"/>
<feGaussianBlur stdDeviation="29"/>
<feColorMatrix type="matrix" values="0 0 0 0 0.870588 0 0 0 0 0.870588 0 0 0 0 0.870588 0 0 0 0.9 0"/>
<feBlend mode="normal" in2="BackgroundImageFix" result="effect1_dropShadow_672_87"/>
<feColorMatrix in="SourceAlpha" type="matrix" values="0 0 0 0 0 0 0 0 0 0 0 0 0 0 0 0 0 0 127 0" result="hardAlpha"/>
<feOffset dx="-23" dy="-23"/>
<feGaussianBlur stdDeviation="23"/>
<feColorMatrix type="matrix" values="0 0 0 0 1 0 0 0 0 1 0 0 0 0 1 0 0 0 0.9 0"/>
<feBlend mode="normal" in2="effect1_dropShadow_672_87" result="effect2_dropShadow_672_87"/>
<feColorMatrix in="SourceAlpha" type="matrix" values="0 0 0 0 0 0 0 0 0 0 0 0 0 0 0 0 0 0 127 0" result="hardAlpha"/>
<feOffset dx="23" dy="-23"/>
<feGaussianBlur stdDeviation="23"/>
<feColorMatrix type="matrix" values="0 0 0 0 0.870588 0 0 0 0 0.870588 0 0 0 0 0.870588 0 0 0 0.2 0"/>
<feBlend mode="normal" in2="effect2_dropShadow_672_87" result="effect3_dropShadow_672_87"/>
<feColorMatrix in="SourceAlpha" type="matrix" values="0 0 0 0 0 0 0 0 0 0 0 0 0 0 0 0 0 0 127 0" result="hardAlpha"/>
<feOffset dx="-23" dy="23"/>
<feGaussianBlur stdDeviation="23"/>
<feColorMatrix type="matrix" values="0 0 0 0 0.870588 0 0 0 0 0.870588 0 0 0 0 0.870588 0 0 0 0.2 0"/>
<feBlend mode="normal" in2="effect3_dropShadow_672_87" result="effect4_dropShadow_672_87"/>
<feBlend mode="normal" in="SourceGraphic" in2="effect4_dropShadow_672_87" result="shape"/>
<feColorMatrix in="SourceAlpha" type="matrix" values="0 0 0 0 0 0 0 0 0 0 0 0 0 0 0 0 0 0 127 0" result="hardAlpha"/>
<feOffset dx="-1" dy="-1"/>
<feGaussianBlur stdDeviation="1"/>
<feComposite in2="hardAlpha" operator="arithmetic" k2="-1" k3="1"/>
<feColorMatrix type="matrix" values="0 0 0 0 0.870588 0 0 0 0 0.870588 0 0 0 0 0.870588 0 0 0 0.5 0"/>
<feBlend mode="normal" in2="shape" result="effect5_innerShadow_672_87"/>
<feColorMatrix in="SourceAlpha" type="matrix" values="0 0 0 0 0 0 0 0 0 0 0 0 0 0 0 0 0 0 127 0" result="hardAlpha"/>
<feOffset dx="1" dy="1"/>
<feGaussianBlur stdDeviation="1"/>
<feComposite in2="hardAlpha" operator="arithmetic" k2="-1" k3="1"/>
<feColorMatrix type="matrix" values="0 0 0 0 1 0 0 0 0 1 0 0 0 0 1 0 0 0 0.3 0"/>
<feBlend mode="normal" in2="effect5_innerShadow_672_87" result="effect6_innerShadow_672_87"/>
</filter>
<filter id="filter1_dd_672_87" x="303" y="623" width="603" height="420" filterUnits="userSpaceOnUse" color-interpolation-filters="sRGB">
<feFlood flood-opacity="0" result="BackgroundImageFix"/>
<feColorMatrix in="SourceAlpha" type="matrix" values="0 0 0 0 0 0 0 0 0 0 0 0 0 0 0 0 0 0 127 0" result="hardAlpha"/>
<feOffset dx="-23" dy="-23"/>
<feGaussianBlur stdDeviation="23"/>
<feColorMatrix type="matrix" values="0 0 0 0 1 0 0 0 0 1 0 0 0 0 1 0 0 0 0.9 0"/>
<feBlend mode="normal" in2="BackgroundImageFix" result="effect1_dropShadow_672_87"/>
<feColorMatrix in="SourceAlpha" type="matrix" values="0 0 0 0 0 0 0 0 0 0 0 0 0 0 0 0 0 0 127 0" result="hardAlpha"/>
<feOffset dx="23" dy="-23"/>
<feGaussianBlur stdDeviation="23"/>
<feColorMatrix type="matrix" values="0 0 0 0 0.870588 0 0 0 0 0.870588 0 0 0 0 0.870588 0 0 0 0.2 0"/>
<feBlend mode="normal" in2="effect1_dropShadow_672_87" result="effect2_dropShadow_672_87"/>
<feBlend mode="normal" in="SourceGraphic" in2="effect2_dropShadow_672_87" result="shape"/>
</filter>
<filter id="filter2_ddddii_672_87" x="0" y="0" width="952" height="710" filterUnits="userSpaceOnUse" color-interpolation-filters="sRGB">
<feFlood flood-opacity="0" result="BackgroundImageFix"/>
<feColorMatrix in="SourceAlpha" type="matrix" values="0 0 0 0 0 0 0 0 0 0 0 0 0 0 0 0 0 0 127 0" result="hardAlpha"/>
<feOffset dx="23" dy="23"/>
<feGaussianBlur stdDeviation="29"/>
<feColorMatrix type="matrix" values="0 0 0 0 0.870588 0 0 0 0 0.870588 0 0 0 0 0.870588 0 0 0 0.9 0"/>
<feBlend mode="normal" in2="BackgroundImageFix" result="effect1_dropShadow_672_87"/>
<feColorMatrix in="SourceAlpha" type="matrix" values="0 0 0 0 0 0 0 0 0 0 0 0 0 0 0 0 0 0 127 0" result="hardAlpha"/>
<feOffset dx="-23" dy="-23"/>
<feGaussianBlur stdDeviation="23"/>
<feColorMatrix type="matrix" values="0 0 0 0 1 0 0 0 0 1 0 0 0 0 1 0 0 0 0.9 0"/>
<feBlend mode="normal" in2="effect1_dropShadow_672_87" result="effect2_dropShadow_672_87"/>
<feColorMatrix in="SourceAlpha" type="matrix" values="0 0 0 0 0 0 0 0 0 0 0 0 0 0 0 0 0 0 127 0" result="hardAlpha"/>
<feOffset dx="23" dy="-23"/>
<feGaussianBlur stdDeviation="23"/>
<feColorMatrix type="matrix" values="0 0 0 0 0.870588 0 0 0 0 0.870588 0 0 0 0 0.870588 0 0 0 0.2 0"/>
<feBlend mode="normal" in2="effect2_dropShadow_672_87" result="effect3_dropShadow_672_87"/>
<feColorMatrix in="SourceAlpha" type="matrix" values="0 0 0 0 0 0 0 0 0 0 0 0 0 0 0 0 0 0 127 0" result="hardAlpha"/>
<feOffset dx="-23" dy="23"/>
<feGaussianBlur stdDeviation="23"/>
<feColorMatrix type="matrix" values="0 0 0 0 0.870588 0 0 0 0 0.870588 0 0 0 0 0.870588 0 0 0 0.2 0"/>
<feBlend mode="normal" in2="effect3_dropShadow_672_87" result="effect4_dropShadow_672_87"/>
<feBlend mode="normal" in="SourceGraphic" in2="effect4_dropShadow_672_87" result="shape"/>
<feColorMatrix in="SourceAlpha" type="matrix" values="0 0 0 0 0 0 0 0 0 0 0 0 0 0 0 0 0 0 127 0" result="hardAlpha"/>
<feOffset dx="-1" dy="-1"/>
<feGaussianBlur stdDeviation="1"/>
<feComposite in2="hardAlpha" operator="arithmetic" k2="-1" k3="1"/>
<feColorMatrix type="matrix" values="0 0 0 0 0.870588 0 0 0 0 0.870588 0 0 0 0 0.870588 0 0 0 0.5 0"/>
<feBlend mode="normal" in2="shape" result="effect5_innerShadow_672_87"/>
<feColorMatrix in="SourceAlpha" type="matrix" values="0 0 0 0 0 0 0 0 0 0 0 0 0 0 0 0 0 0 127 0" result="hardAlpha"/>
<feOffset dx="1" dy="1"/>
<feGaussianBlur stdDeviation="1"/>
<feComposite in2="hardAlpha" operator="arithmetic" k2="-1" k3="1"/>
<feColorMatrix type="matrix" values="0 0 0 0 1 0 0 0 0 1 0 0 0 0 1 0 0 0 0.3 0"/>
<feBlend mode="normal" in2="effect5_innerShadow_672_87" result="effect6_innerShadow_672_87"/>
</filter>
<clipPath id="clip0_672_87">
<rect x="69" y="69" width="802" height="560" rx="25" fill="white"/>
</clipPath>
</defs>
</svg>
