<svg width="635" height="132" viewBox="0 0 635 132" fill="none" xmlns="http://www.w3.org/2000/svg">
<path d="M30.29 29.01C32.9033 29.4767 35.12 30.8533 36.94 33.14C38.76 35.4267 39.67 38.0167 39.67 40.91C39.67 43.3833 39.0167 45.6233 37.71 47.63C36.45 49.59 34.6067 51.1533 32.18 52.32C29.7533 53.44 26.93 54 23.71 54H4.25V5.35H22.8C26.1133 5.35 28.96 5.91 31.34 7.03C33.72 8.15 35.5167 9.66667 36.73 11.58C37.9433 13.4467 38.55 15.5467 38.55 17.88C38.55 20.68 37.8033 23.0133 36.31 24.88C34.8167 26.7467 32.81 28.1233 30.29 29.01ZM12.23 25.79H22.1C24.7133 25.79 26.7433 25.2067 28.19 24.04C29.6833 22.8267 30.43 21.1 30.43 18.86C30.43 16.6667 29.6833 14.9633 28.19 13.75C26.7433 12.49 24.7133 11.86 22.1 11.86H12.23V25.79ZM23.01 47.49C25.7167 47.49 27.84 46.8367 29.38 45.53C30.92 44.2233 31.69 42.4033 31.69 40.07C31.69 37.69 30.8733 35.8 29.24 34.4C27.6067 33 25.4367 32.3 22.73 32.3H12.23V47.49H23.01ZM83.6918 33.77C83.6918 35.2167 83.5985 36.5233 83.4118 37.69H53.9418C54.1751 40.77 55.3185 43.2433 57.3718 45.11C59.4251 46.9767 61.9451 47.91 64.9318 47.91C69.2251 47.91 72.2585 46.1133 74.0318 42.52H82.6418C81.4751 46.0667 79.3518 48.9833 76.2718 51.27C73.2385 53.51 69.4585 54.63 64.9318 54.63C61.2451 54.63 57.9318 53.8133 54.9918 52.18C52.0985 50.5 49.8118 48.1667 48.1318 45.18C46.4985 42.1467 45.6818 38.6467 45.6818 34.68C45.6818 30.7133 46.4751 27.2367 48.0618 24.25C49.6951 21.2167 51.9585 18.8833 54.8518 17.25C57.7918 15.6167 61.1518 14.8 64.9318 14.8C68.5718 14.8 71.8151 15.5933 74.6618 17.18C77.5085 18.7667 79.7251 21.0067 81.3118 23.9C82.8985 26.7467 83.6918 30.0367 83.6918 33.77ZM75.3618 31.25C75.3151 28.31 74.2651 25.9533 72.2118 24.18C70.1585 22.4067 67.6151 21.52 64.5818 21.52C61.8285 21.52 59.4718 22.4067 57.5118 24.18C55.5518 25.9067 54.3851 28.2633 54.0118 31.25H75.3618ZM105.545 54.63C102.512 54.63 99.7816 54.0933 97.3549 53.02C94.9749 51.9 93.0849 50.4067 91.6849 48.54C90.2849 46.6267 89.5383 44.5033 89.4449 42.17H97.7049C97.8449 43.8033 98.6149 45.18 100.015 46.3C101.462 47.3733 103.258 47.91 105.405 47.91C107.645 47.91 109.372 47.49 110.585 46.65C111.845 45.7633 112.475 44.6433 112.475 43.29C112.475 41.8433 111.775 40.77 110.375 40.07C109.022 39.37 106.852 38.6 103.865 37.76C100.972 36.9667 98.6149 36.1967 96.7949 35.45C94.9749 34.7033 93.3883 33.56 92.0349 32.02C90.7283 30.48 90.0749 28.45 90.0749 25.93C90.0749 23.8767 90.6816 22.01 91.8949 20.33C93.1083 18.6033 94.8349 17.25 97.0749 16.27C99.3616 15.29 101.975 14.8 104.915 14.8C109.302 14.8 112.825 15.92 115.485 18.16C118.192 20.3533 119.638 23.3633 119.825 27.19H111.845C111.705 25.4633 111.005 24.0867 109.745 23.06C108.485 22.0333 106.782 21.52 104.635 21.52C102.535 21.52 100.925 21.9167 99.8049 22.71C98.6849 23.5033 98.1249 24.5533 98.1249 25.86C98.1249 26.8867 98.4983 27.75 99.2449 28.45C99.9916 29.15 100.902 29.71 101.975 30.13C103.048 30.5033 104.635 30.9933 106.735 31.6C109.535 32.3467 111.822 33.1167 113.595 33.91C115.415 34.6567 116.978 35.7767 118.285 37.27C119.592 38.7633 120.268 40.7467 120.315 43.22C120.315 45.4133 119.708 47.3733 118.495 49.1C117.282 50.8267 115.555 52.18 113.315 53.16C111.122 54.14 108.532 54.63 105.545 54.63ZM138.248 21.94V43.29C138.248 44.7367 138.574 45.7867 139.228 46.44C139.928 47.0467 141.094 47.35 142.728 47.35H147.628V54H141.328C137.734 54 134.981 53.16 133.068 51.48C131.154 49.8 130.198 47.07 130.198 43.29V21.94H125.648V15.43H130.198V5.84H138.248V15.43H147.628V21.94H138.248ZM170.506 34.68C170.506 30.7133 171.299 27.2367 172.886 24.25C174.519 21.2167 176.759 18.8833 179.606 17.25C182.453 15.6167 185.719 14.8 189.406 14.8C194.073 14.8 197.923 15.92 200.956 18.16C204.036 20.3533 206.113 23.5033 207.186 27.61H198.576C197.876 25.6967 196.756 24.2033 195.216 23.13C193.676 22.0567 191.739 21.52 189.406 21.52C186.139 21.52 183.526 22.6867 181.566 25.02C179.653 27.3067 178.696 30.5267 178.696 34.68C178.696 38.8333 179.653 42.0767 181.566 44.41C183.526 46.7433 186.139 47.91 189.406 47.91C194.026 47.91 197.083 45.88 198.576 41.82H207.186C206.066 45.74 203.966 48.8667 200.886 51.2C197.806 53.4867 193.979 54.63 189.406 54.63C185.719 54.63 182.453 53.8133 179.606 52.18C176.759 50.5 174.519 48.1667 172.886 45.18C171.299 42.1467 170.506 38.6467 170.506 34.68ZM231.869 54.63C228.229 54.63 224.939 53.8133 221.999 52.18C219.059 50.5 216.749 48.1667 215.069 45.18C213.389 42.1467 212.549 38.6467 212.549 34.68C212.549 30.76 213.412 27.2833 215.139 24.25C216.865 21.2167 219.222 18.8833 222.209 17.25C225.195 15.6167 228.532 14.8 232.219 14.8C235.905 14.8 239.242 15.6167 242.229 17.25C245.215 18.8833 247.572 21.2167 249.299 24.25C251.025 27.2833 251.889 30.76 251.889 34.68C251.889 38.6 251.002 42.0767 249.229 45.11C247.455 48.1433 245.029 50.5 241.949 52.18C238.915 53.8133 235.555 54.63 231.869 54.63ZM231.869 47.7C233.922 47.7 235.835 47.21 237.609 46.23C239.429 45.25 240.899 43.78 242.019 41.82C243.139 39.86 243.699 37.48 243.699 34.68C243.699 31.88 243.162 29.5233 242.089 27.61C241.015 25.65 239.592 24.18 237.819 23.2C236.045 22.22 234.132 21.73 232.079 21.73C230.025 21.73 228.112 22.22 226.339 23.2C224.612 24.18 223.235 25.65 222.209 27.61C221.182 29.5233 220.669 31.88 220.669 34.68C220.669 38.8333 221.719 42.0533 223.819 44.34C225.965 46.58 228.649 47.7 231.869 47.7ZM267.757 2.2V54H259.777V2.2H267.757ZM286.214 2.2V54H278.234V2.2H286.214ZM294.031 34.54C294.031 30.6667 294.825 27.2367 296.411 24.25C298.045 21.2633 300.238 18.9533 302.991 17.32C305.791 15.64 308.871 14.8 312.231 14.8C315.265 14.8 317.901 15.4067 320.141 16.62C322.428 17.7867 324.248 19.2567 325.601 21.03V15.43H333.651V54H325.601V48.26C324.248 50.08 322.405 51.5967 320.071 52.81C317.738 54.0233 315.078 54.63 312.091 54.63C308.778 54.63 305.745 53.79 302.991 52.11C300.238 50.3833 298.045 48.0033 296.411 44.97C294.825 41.89 294.031 38.4133 294.031 34.54ZM325.601 34.68C325.601 32.02 325.041 29.71 323.921 27.75C322.848 25.79 321.425 24.2967 319.651 23.27C317.878 22.2433 315.965 21.73 313.911 21.73C311.858 21.73 309.945 22.2433 308.171 23.27C306.398 24.25 304.951 25.72 303.831 27.68C302.758 29.5933 302.221 31.88 302.221 34.54C302.221 37.2 302.758 39.5333 303.831 41.54C304.951 43.5467 306.398 45.0867 308.171 46.16C309.991 47.1867 311.905 47.7 313.911 47.7C315.965 47.7 317.878 47.1867 319.651 46.16C321.425 45.1333 322.848 43.64 323.921 41.68C325.041 39.6733 325.601 37.34 325.601 34.68ZM352.113 21.17C353.466 19.3033 355.309 17.7867 357.643 16.62C360.023 15.4067 362.659 14.8 365.553 14.8C368.959 14.8 372.039 15.6167 374.793 17.25C377.546 18.8833 379.716 21.2167 381.303 24.25C382.889 27.2367 383.683 30.6667 383.683 34.54C383.683 38.4133 382.889 41.89 381.303 44.97C379.716 48.0033 377.523 50.3833 374.723 52.11C371.969 53.79 368.913 54.63 365.553 54.63C362.566 54.63 359.906 54.0467 357.573 52.88C355.286 51.7133 353.466 50.22 352.113 48.4V54H344.133V2.2H352.113V21.17ZM375.563 34.54C375.563 31.88 375.003 29.5933 373.883 27.68C372.809 25.72 371.363 24.25 369.543 23.27C367.769 22.2433 365.856 21.73 363.803 21.73C361.796 21.73 359.883 22.2433 358.063 23.27C356.289 24.2967 354.843 25.79 353.723 27.75C352.649 29.71 352.113 32.02 352.113 34.68C352.113 37.34 352.649 39.6733 353.723 41.68C354.843 43.64 356.289 45.1333 358.063 46.16C359.883 47.1867 361.796 47.7 363.803 47.7C365.856 47.7 367.769 47.1867 369.543 46.16C371.363 45.0867 372.809 43.5467 373.883 41.54C375.003 39.5333 375.563 37.2 375.563 34.54ZM408.304 54.63C404.664 54.63 401.374 53.8133 398.434 52.18C395.494 50.5 393.184 48.1667 391.504 45.18C389.824 42.1467 388.984 38.6467 388.984 34.68C388.984 30.76 389.848 27.2833 391.574 24.25C393.301 21.2167 395.658 18.8833 398.644 17.25C401.631 15.6167 404.968 14.8 408.654 14.8C412.341 14.8 415.678 15.6167 418.664 17.25C421.651 18.8833 424.008 21.2167 425.734 24.25C427.461 27.2833 428.324 30.76 428.324 34.68C428.324 38.6 427.438 42.0767 425.664 45.11C423.891 48.1433 421.464 50.5 418.384 52.18C415.351 53.8133 411.991 54.63 408.304 54.63ZM408.304 47.7C410.358 47.7 412.271 47.21 414.044 46.23C415.864 45.25 417.334 43.78 418.454 41.82C419.574 39.86 420.134 37.48 420.134 34.68C420.134 31.88 419.598 29.5233 418.524 27.61C417.451 25.65 416.028 24.18 414.254 23.2C412.481 22.22 410.568 21.73 408.514 21.73C406.461 21.73 404.548 22.22 402.774 23.2C401.048 24.18 399.671 25.65 398.644 27.61C397.618 29.5233 397.104 31.88 397.104 34.68C397.104 38.8333 398.154 42.0533 400.254 44.34C402.401 46.58 405.084 47.7 408.304 47.7ZM444.193 21.03C445.36 19.07 446.9 17.5533 448.813 16.48C450.773 15.36 453.083 14.8 455.743 14.8V23.06H453.713C450.586 23.06 448.206 23.8533 446.573 25.44C444.986 27.0267 444.193 29.78 444.193 33.7V54H436.213V15.43H444.193V21.03ZM460.418 34.54C460.418 30.6667 461.211 27.2367 462.798 24.25C464.431 21.2633 466.625 18.9533 469.378 17.32C472.178 15.64 475.258 14.8 478.618 14.8C481.651 14.8 484.288 15.4067 486.528 16.62C488.815 17.7867 490.635 19.2567 491.988 21.03V15.43H500.038V54H491.988V48.26C490.635 50.08 488.791 51.5967 486.458 52.81C484.125 54.0233 481.465 54.63 478.478 54.63C475.165 54.63 472.131 53.79 469.378 52.11C466.625 50.3833 464.431 48.0033 462.798 44.97C461.211 41.89 460.418 38.4133 460.418 34.54ZM491.988 34.68C491.988 32.02 491.428 29.71 490.308 27.75C489.235 25.79 487.811 24.2967 486.038 23.27C484.265 22.2433 482.351 21.73 480.298 21.73C478.245 21.73 476.331 22.2433 474.558 23.27C472.785 24.25 471.338 25.72 470.218 27.68C469.145 29.5933 468.608 31.88 468.608 34.54C468.608 37.2 469.145 39.5333 470.218 41.54C471.338 43.5467 472.785 45.0867 474.558 46.16C476.378 47.1867 478.291 47.7 480.298 47.7C482.351 47.7 484.265 47.1867 486.038 46.16C487.811 45.1333 489.235 43.64 490.308 41.68C491.428 39.6733 491.988 37.34 491.988 34.68ZM519.83 21.94V43.29C519.83 44.7367 520.156 45.7867 520.81 46.44C521.51 47.0467 522.676 47.35 524.31 47.35H529.21V54H522.91C519.316 54 516.563 53.16 514.65 51.48C512.736 49.8 511.78 47.07 511.78 43.29V21.94H507.23V15.43H511.78V5.84H519.83V15.43H529.21V21.94H519.83ZM540.624 10.32C539.178 10.32 537.964 9.83 536.984 8.85C536.004 7.87 535.514 6.65667 535.514 5.21C535.514 3.76333 536.004 2.55 536.984 1.57C537.964 0.589998 539.178 0.0999972 540.624 0.0999972C542.024 0.0999972 543.214 0.589998 544.194 1.57C545.174 2.55 545.664 3.76333 545.664 5.21C545.664 6.65667 545.174 7.87 544.194 8.85C543.214 9.83 542.024 10.32 540.624 10.32ZM544.544 15.43V54H536.564V15.43H544.544ZM571.751 54.63C568.111 54.63 564.821 53.8133 561.881 52.18C558.941 50.5 556.631 48.1667 554.951 45.18C553.271 42.1467 552.431 38.6467 552.431 34.68C552.431 30.76 553.295 27.2833 555.021 24.25C556.748 21.2167 559.105 18.8833 562.091 17.25C565.078 15.6167 568.415 14.8 572.101 14.8C575.788 14.8 579.125 15.6167 582.111 17.25C585.098 18.8833 587.455 21.2167 589.181 24.25C590.908 27.2833 591.771 30.76 591.771 34.68C591.771 38.6 590.885 42.0767 589.111 45.11C587.338 48.1433 584.911 50.5 581.831 52.18C578.798 53.8133 575.438 54.63 571.751 54.63ZM571.751 47.7C573.805 47.7 575.718 47.21 577.491 46.23C579.311 45.25 580.781 43.78 581.901 41.82C583.021 39.86 583.581 37.48 583.581 34.68C583.581 31.88 583.045 29.5233 581.971 27.61C580.898 25.65 579.475 24.18 577.701 23.2C575.928 22.22 574.015 21.73 571.961 21.73C569.908 21.73 567.995 22.22 566.221 23.2C564.495 24.18 563.118 25.65 562.091 27.61C561.065 29.5233 560.551 31.88 560.551 34.68C560.551 38.8333 561.601 42.0533 563.701 44.34C565.848 46.58 568.531 47.7 571.751 47.7ZM619.12 14.8C622.153 14.8 624.86 15.43 627.24 16.69C629.667 17.95 631.557 19.8167 632.91 22.29C634.263 24.7633 634.94 27.75 634.94 31.25V54H627.03V32.44C627.03 28.9867 626.167 26.35 624.44 24.53C622.713 22.6633 620.357 21.73 617.37 21.73C614.383 21.73 612.003 22.6633 610.23 24.53C608.503 26.35 607.64 28.9867 607.64 32.44V54H599.66V15.43H607.64V19.84C608.947 18.2533 610.603 17.0167 612.61 16.13C614.663 15.2433 616.833 14.8 619.12 14.8ZM13.56 98.94V120.29C13.56 121.737 13.8867 122.787 14.54 123.44C15.24 124.047 16.4067 124.35 18.04 124.35H22.94V131H16.64C13.0467 131 10.2933 130.16 8.38 128.48C6.46667 126.8 5.51 124.07 5.51 120.29V98.94H0.96V92.43H5.51V82.84H13.56V92.43H22.94V98.94H13.56ZM47.0249 131.63C43.3849 131.63 40.0949 130.813 37.1549 129.18C34.2149 127.5 31.9049 125.167 30.2249 122.18C28.5449 119.147 27.7049 115.647 27.7049 111.68C27.7049 107.76 28.5683 104.283 30.2949 101.25C32.0216 98.2167 34.3783 95.8833 37.3649 94.25C40.3516 92.6167 43.6883 91.8 47.3749 91.8C51.0616 91.8 54.3983 92.6167 57.3849 94.25C60.3716 95.8833 62.7283 98.2167 64.4549 101.25C66.1816 104.283 67.0449 107.76 67.0449 111.68C67.0449 115.6 66.1583 119.077 64.3849 122.11C62.6116 125.143 60.1849 127.5 57.1049 129.18C54.0716 130.813 50.7116 131.63 47.0249 131.63ZM47.0249 124.7C49.0783 124.7 50.9916 124.21 52.7649 123.23C54.5849 122.25 56.0549 120.78 57.1749 118.82C58.2949 116.86 58.8549 114.48 58.8549 111.68C58.8549 108.88 58.3183 106.523 57.2449 104.61C56.1716 102.65 54.7483 101.18 52.9749 100.2C51.2016 99.22 49.2883 98.73 47.2349 98.73C45.1816 98.73 43.2683 99.22 41.4949 100.2C39.7683 101.18 38.3916 102.65 37.3649 104.61C36.3383 106.523 35.8249 108.88 35.8249 111.68C35.8249 115.833 36.8749 119.053 38.9749 121.34C41.1216 123.58 43.8049 124.7 47.0249 124.7ZM91.6636 131.63C88.0236 131.63 84.7336 130.813 81.7936 129.18C78.8536 127.5 76.5436 125.167 74.8636 122.18C73.1836 119.147 72.3436 115.647 72.3436 111.68C72.3436 107.76 73.2069 104.283 74.9336 101.25C76.6603 98.2167 79.0169 95.8833 82.0036 94.25C84.9903 92.6167 88.3269 91.8 92.0136 91.8C95.7003 91.8 99.0369 92.6167 102.024 94.25C105.01 95.8833 107.367 98.2167 109.094 101.25C110.82 104.283 111.684 107.76 111.684 111.68C111.684 115.6 110.797 119.077 109.024 122.11C107.25 125.143 104.824 127.5 101.744 129.18C98.7103 130.813 95.3503 131.63 91.6636 131.63ZM91.6636 124.7C93.7169 124.7 95.6303 124.21 97.4036 123.23C99.2236 122.25 100.694 120.78 101.814 118.82C102.934 116.86 103.494 114.48 103.494 111.68C103.494 108.88 102.957 106.523 101.884 104.61C100.81 102.65 99.3869 101.18 97.6136 100.2C95.8403 99.22 93.9269 98.73 91.8736 98.73C89.8203 98.73 87.9069 99.22 86.1336 100.2C84.4069 101.18 83.0303 102.65 82.0036 104.61C80.9769 106.523 80.4636 108.88 80.4636 111.68C80.4636 115.833 81.5136 119.053 83.6136 121.34C85.7603 123.58 88.4436 124.7 91.6636 124.7ZM127.552 79.2V131H119.572V79.2H127.552ZM152.029 131.63C148.996 131.63 146.266 131.093 143.839 130.02C141.459 128.9 139.569 127.407 138.169 125.54C136.769 123.627 136.023 121.503 135.929 119.17H144.189C144.329 120.803 145.099 122.18 146.499 123.3C147.946 124.373 149.743 124.91 151.889 124.91C154.129 124.91 155.856 124.49 157.069 123.65C158.329 122.763 158.959 121.643 158.959 120.29C158.959 118.843 158.259 117.77 156.859 117.07C155.506 116.37 153.336 115.6 150.349 114.76C147.456 113.967 145.099 113.197 143.279 112.45C141.459 111.703 139.873 110.56 138.519 109.02C137.213 107.48 136.559 105.45 136.559 102.93C136.559 100.877 137.166 99.01 138.379 97.33C139.593 95.6033 141.319 94.25 143.559 93.27C145.846 92.29 148.459 91.8 151.399 91.8C155.786 91.8 159.309 92.92 161.969 95.16C164.676 97.3533 166.123 100.363 166.309 104.19H158.329C158.189 102.463 157.489 101.087 156.229 100.06C154.969 99.0333 153.266 98.52 151.119 98.52C149.019 98.52 147.409 98.9167 146.289 99.71C145.169 100.503 144.609 101.553 144.609 102.86C144.609 103.887 144.983 104.75 145.729 105.45C146.476 106.15 147.386 106.71 148.459 107.13C149.533 107.503 151.119 107.993 153.219 108.6C156.019 109.347 158.306 110.117 160.079 110.91C161.899 111.657 163.463 112.777 164.769 114.27C166.076 115.763 166.753 117.747 166.799 120.22C166.799 122.413 166.193 124.373 164.979 126.1C163.766 127.827 162.039 129.18 159.799 130.16C157.606 131.14 155.016 131.63 152.029 131.63ZM228.955 110.77C228.955 112.217 228.862 113.523 228.675 114.69H199.205C199.439 117.77 200.582 120.243 202.635 122.11C204.689 123.977 207.209 124.91 210.195 124.91C214.489 124.91 217.522 123.113 219.295 119.52H227.905C226.739 123.067 224.615 125.983 221.535 128.27C218.502 130.51 214.722 131.63 210.195 131.63C206.509 131.63 203.195 130.813 200.255 129.18C197.362 127.5 195.075 125.167 193.395 122.18C191.762 119.147 190.945 115.647 190.945 111.68C190.945 107.713 191.739 104.237 193.325 101.25C194.959 98.2167 197.222 95.8833 200.115 94.25C203.055 92.6167 206.415 91.8 210.195 91.8C213.835 91.8 217.079 92.5933 219.925 94.18C222.772 95.7667 224.989 98.0067 226.575 100.9C228.162 103.747 228.955 107.037 228.955 110.77ZM220.625 108.25C220.579 105.31 219.529 102.953 217.475 101.18C215.422 99.4067 212.879 98.52 209.845 98.52C207.092 98.52 204.735 99.4067 202.775 101.18C200.815 102.907 199.649 105.263 199.275 108.25H220.625ZM251.719 123.86L262.639 92.43H271.109L256.409 131H246.889L232.259 92.43H240.799L251.719 123.86ZM312.491 110.77C312.491 112.217 312.397 113.523 312.211 114.69H282.741C282.974 117.77 284.117 120.243 286.171 122.11C288.224 123.977 290.744 124.91 293.731 124.91C298.024 124.91 301.057 123.113 302.831 119.52H311.441C310.274 123.067 308.151 125.983 305.071 128.27C302.037 130.51 298.257 131.63 293.731 131.63C290.044 131.63 286.731 130.813 283.791 129.18C280.897 127.5 278.611 125.167 276.931 122.18C275.297 119.147 274.481 115.647 274.481 111.68C274.481 107.713 275.274 104.237 276.861 101.25C278.494 98.2167 280.757 95.8833 283.651 94.25C286.591 92.6167 289.951 91.8 293.731 91.8C297.371 91.8 300.614 92.5933 303.461 94.18C306.307 95.7667 308.524 98.0067 310.111 100.9C311.697 103.747 312.491 107.037 312.491 110.77ZM304.161 108.25C304.114 105.31 303.064 102.953 301.011 101.18C298.957 99.4067 296.414 98.52 293.381 98.52C290.627 98.52 288.271 99.4067 286.311 101.18C284.351 102.907 283.184 105.263 282.811 108.25H304.161ZM328.324 98.03C329.49 96.07 331.03 94.5533 332.944 93.48C334.904 92.36 337.214 91.8 339.874 91.8V100.06H337.844C334.717 100.06 332.337 100.853 330.704 102.44C329.117 104.027 328.324 106.78 328.324 110.7V131H320.344V92.43H328.324V98.03ZM357.219 82.35L356.309 116.3H349.659L348.749 82.35H357.219ZM353.229 131.49C351.782 131.49 350.569 131 349.589 130.02C348.609 129.04 348.119 127.827 348.119 126.38C348.119 124.933 348.609 123.72 349.589 122.74C350.569 121.76 351.782 121.27 353.229 121.27C354.629 121.27 355.819 121.76 356.799 122.74C357.779 123.72 358.269 124.933 358.269 126.38C358.269 127.827 357.779 129.04 356.799 130.02C355.819 131 354.629 131.49 353.229 131.49Z" fill="black"/>
</svg>
