<svg width="871" height="510" viewBox="0 0 871 510" fill="none" xmlns="http://www.w3.org/2000/svg">
<path d="M61.2 458.6C50.2667 458.6 40.4 456.267 31.6 451.6C22.9333 446.933 16.0667 440.267 11 431.6C6.06667 422.933 3.6 412.8 3.6 401.2C3.6 389.733 6.13333 379.667 11.2 371C16.2667 362.2 23.2 355.467 32 350.8C40.8 346.133 50.6667 343.8 61.6 343.8C72.5333 343.8 82.4 346.133 91.2 350.8C100 355.467 106.933 362.2 112 371C117.067 379.667 119.6 389.733 119.6 401.2C119.6 412.667 117 422.8 111.8 431.6C106.733 440.267 99.7333 446.933 90.8 451.6C82 456.267 72.1333 458.6 61.2 458.6ZM61.2 429C67.7333 429 73.2667 426.6 77.8 421.8C82.4667 417 84.8 410.133 84.8 401.2C84.8 392.267 82.5333 385.4 78 380.6C73.6 375.8 68.1333 373.4 61.6 373.4C54.9333 373.4 49.4 375.8 45 380.6C40.6 385.267 38.4 392.133 38.4 401.2C38.4 410.133 40.5333 417 44.8 421.8C49.2 426.6 54.6667 429 61.2 429ZM205.744 344.2C218.81 344.2 229.21 348.467 236.944 357C244.81 365.4 248.744 377 248.744 391.8V457H214.744V396.4C214.744 388.933 212.81 383.133 208.944 379C205.077 374.867 199.877 372.8 193.344 372.8C186.81 372.8 181.61 374.867 177.744 379C173.877 383.133 171.944 388.933 171.944 396.4V457H137.744V345.4H171.944V360.2C175.41 355.267 180.077 351.4 185.944 348.6C191.81 345.667 198.41 344.2 205.744 344.2ZM386.509 345.4L316.509 510H279.709L305.309 453.2L259.909 345.4H298.109L323.909 415.2L349.509 345.4H386.509ZM464.877 457L443.477 426L425.477 457H388.477L425.277 400L387.477 345.4H425.877L447.277 376.2L465.277 345.4H502.277L464.877 401.6L503.277 457H464.877Z" fill="#21209C"/>
<!-- o.14 -->
<g opacity="0.22" filter="url(#filter0_ddiiii_0_1)">
<path d="M193.1 14.5V226H134.3V141.1H62.6V226H3.8V14.5H62.6V94H134.3V14.5H193.1ZM387.549 139.9C387.549 144.5 387.249 149.1 386.649 153.7H275.349C275.949 162.9 278.449 169.8 282.849 174.4C287.449 178.8 293.249 181 300.249 181C310.049 181 317.049 176.6 321.249 167.8H383.949C381.349 179.4 376.249 189.8 368.649 199C361.249 208 351.849 215.1 340.449 220.3C329.049 225.5 316.449 228.1 302.649 228.1C286.049 228.1 271.249 224.6 258.249 217.6C245.449 210.6 235.349 200.6 227.949 187.6C220.749 174.6 217.149 159.3 217.149 141.7C217.149 124.1 220.749 108.9 227.949 96.1C235.149 83.1 245.149 73.1 257.949 66.1C270.949 59.1 285.849 55.6 302.649 55.6C319.249 55.6 333.949 59 346.749 65.8C359.549 72.6 369.549 82.4 376.749 95.2C383.949 107.8 387.549 122.7 387.549 139.9ZM327.549 125.2C327.549 118 325.149 112.4 320.349 108.4C315.549 104.2 309.549 102.1 302.349 102.1C295.149 102.1 289.249 104.1 284.649 108.1C280.049 111.9 277.049 117.6 275.649 125.2H327.549ZM470.413 4V226H411.613V4H470.413ZM562.698 4V226H503.898V4H562.698ZM674.483 228.1C657.683 228.1 642.583 224.6 629.183 217.6C615.983 210.6 605.583 200.6 597.983 187.6C590.383 174.6 586.583 159.3 586.583 141.7C586.583 124.3 590.383 109.1 597.983 96.1C605.783 83.1 616.283 73.1 629.483 66.1C642.883 59.1 657.983 55.6 674.783 55.6C691.583 55.6 706.583 59.1 719.783 66.1C733.183 73.1 743.683 83.1 751.283 96.1C759.083 109.1 762.983 124.3 762.983 141.7C762.983 159.1 759.083 174.4 751.283 187.6C743.683 200.6 733.183 210.6 719.783 217.6C706.383 224.6 691.283 228.1 674.483 228.1ZM674.483 177.1C682.683 177.1 689.483 174.1 694.883 168.1C700.483 161.9 703.283 153.1 703.283 141.7C703.283 130.3 700.483 121.6 694.883 115.6C689.483 109.6 682.783 106.6 674.783 106.6C666.783 106.6 660.083 109.6 654.683 115.6C649.283 121.6 646.583 130.3 646.583 141.7C646.583 153.3 649.183 162.1 654.383 168.1C659.583 174.1 666.283 177.1 674.483 177.1ZM865.505 3.69998L858.605 146.8H808.505L801.605 3.69998H865.505ZM833.705 228.4C823.305 228.4 814.905 225.6 808.505 220C802.305 214.2 799.205 206.9 799.205 198.1C799.205 189.3 802.305 182 808.505 176.2C814.905 170.4 823.305 167.5 833.705 167.5C843.905 167.5 852.105 170.4 858.305 176.2C864.705 182 867.905 189.3 867.905 198.1C867.905 206.7 864.705 213.9 858.305 219.7C852.105 225.5 843.905 228.4 833.705 228.4Z" fill="#FDB827"/>
</g>
<path d="M198.4 167.4L159.4 307H126.4L100.2 207.6L72.8 307L40 307.2L2.4 167.4H32.4L57 275.8L85.4 167.4H116.6L143.4 275.2L168.2 167.4H198.4ZM319.683 249.2C319.683 253.2 319.416 256.8 318.883 260H237.883C238.549 268 241.349 274.267 246.283 278.8C251.216 283.333 257.283 285.6 264.483 285.6C274.883 285.6 282.283 281.133 286.683 272.2H316.883C313.683 282.867 307.549 291.667 298.483 298.6C289.416 305.4 278.283 308.8 265.083 308.8C254.416 308.8 244.816 306.467 236.283 301.8C227.883 297 221.283 290.267 216.483 281.6C211.816 272.933 209.483 262.933 209.483 251.6C209.483 240.133 211.816 230.067 216.483 221.4C221.149 212.733 227.683 206.067 236.083 201.4C244.483 196.733 254.149 194.4 265.083 194.4C275.616 194.4 285.016 196.667 293.283 201.2C301.683 205.733 308.149 212.2 312.683 220.6C317.349 228.867 319.683 238.4 319.683 249.2ZM290.683 241.2C290.549 234 287.949 228.267 282.883 224C277.816 219.6 271.616 217.4 264.283 217.4C257.349 217.4 251.483 219.533 246.683 223.8C242.016 227.933 239.149 233.733 238.083 241.2H290.683ZM380.577 251.2C380.577 240 382.777 230.067 387.177 221.4C391.71 212.733 397.777 206.067 405.377 201.4C413.11 196.733 421.71 194.4 431.177 194.4C439.443 194.4 446.643 196.067 452.777 199.4C459.043 202.733 464.043 206.933 467.777 212V196.2H495.977V307H467.777V290.8C464.177 296 459.177 300.333 452.777 303.8C446.51 307.133 439.243 308.8 430.977 308.8C421.643 308.8 413.11 306.4 405.377 301.6C397.777 296.8 391.71 290.067 387.177 281.4C382.777 272.6 380.577 262.533 380.577 251.2ZM467.777 251.6C467.777 244.8 466.443 239 463.777 234.2C461.11 229.267 457.51 225.533 452.977 223C448.443 220.333 443.577 219 438.377 219C433.177 219 428.377 220.267 423.977 222.8C419.577 225.333 415.977 229.067 413.177 234C410.51 238.8 409.177 244.533 409.177 251.2C409.177 257.867 410.51 263.733 413.177 268.8C415.977 273.733 419.577 277.533 423.977 280.2C428.51 282.867 433.31 284.2 438.377 284.2C443.577 284.2 448.443 282.933 452.977 280.4C457.51 277.733 461.11 274 463.777 269.2C466.443 264.267 467.777 258.4 467.777 251.6ZM551.323 213.4C554.923 207.533 559.59 202.933 565.323 199.6C571.19 196.267 577.857 194.6 585.323 194.6V224H577.923C569.123 224 562.457 226.067 557.923 230.2C553.523 234.333 551.323 241.533 551.323 251.8V307H523.323V196.2H551.323V213.4ZM707.183 249.2C707.183 253.2 706.916 256.8 706.383 260H625.383C626.049 268 628.849 274.267 633.783 278.8C638.716 283.333 644.783 285.6 651.983 285.6C662.383 285.6 669.783 281.133 674.183 272.2H704.383C701.183 282.867 695.049 291.667 685.983 298.6C676.916 305.4 665.783 308.8 652.583 308.8C641.916 308.8 632.316 306.467 623.783 301.8C615.383 297 608.783 290.267 603.983 281.6C599.316 272.933 596.983 262.933 596.983 251.6C596.983 240.133 599.316 230.067 603.983 221.4C608.649 212.733 615.183 206.067 623.583 201.4C631.983 196.733 641.649 194.4 652.583 194.4C663.116 194.4 672.516 196.667 680.783 201.2C689.183 205.733 695.649 212.2 700.183 220.6C704.849 228.867 707.183 238.4 707.183 249.2ZM678.183 241.2C678.049 234 675.449 228.267 670.383 224C665.316 219.6 659.116 217.4 651.783 217.4C644.849 217.4 638.983 219.533 634.183 223.8C629.516 227.933 626.649 233.733 625.583 241.2H678.183Z" fill="black"/>
<defs>
<filter id="filter0_ddiiii_0_1" x="-12.2" y="-12.3" width="896.105" height="256.7" filterUnits="userSpaceOnUse" color-interpolation-filters="sRGB">
<feFlood flood-opacity="0" result="BackgroundImageFix"/>
<feColorMatrix in="SourceAlpha" type="matrix" values="0 0 0 0 0 0 0 0 0 0 0 0 0 0 0 0 0 0 127 0" result="hardAlpha"/>
<feOffset dx="-1" dy="-1"/>
<feGaussianBlur stdDeviation="1"/>
<feColorMatrix type="matrix" values="0 0 0 0 0.556863 0 0 0 0 0.403922 0 0 0 0 0.0862745 0 0 0 0.5 0"/>
<feBlend mode="normal" in2="BackgroundImageFix" result="effect1_dropShadow_0_1"/>
<feColorMatrix in="SourceAlpha" type="matrix" values="0 0 0 0 0 0 0 0 0 0 0 0 0 0 0 0 0 0 127 0" result="hardAlpha"/>
<feOffset dx="1" dy="1"/>
<feGaussianBlur stdDeviation="1"/>
<feColorMatrix type="matrix" values="0 0 0 0 1 0 0 0 0 1 0 0 0 0 0.219608 0 0 0 0.3 0"/>
<feBlend mode="normal" in2="effect1_dropShadow_0_1" result="effect2_dropShadow_0_1"/>
<feBlend mode="normal" in="SourceGraphic" in2="effect2_dropShadow_0_1" result="shape"/>
<feColorMatrix in="SourceAlpha" type="matrix" values="0 0 0 0 0 0 0 0 0 0 0 0 0 0 0 0 0 0 127 0" result="hardAlpha"/>
<feOffset dx="16" dy="16"/>
<feGaussianBlur stdDeviation="20"/>
<feComposite in2="hardAlpha" operator="arithmetic" k2="-1" k3="1"/>
<feColorMatrix type="matrix" values="0 0 0 0 0.556863 0 0 0 0 0.403922 0 0 0 0 0.0862745 0 0 0 0.9 0"/>
<feBlend mode="normal" in2="shape" result="effect3_innerShadow_0_1"/>
<feColorMatrix in="SourceAlpha" type="matrix" values="0 0 0 0 0 0 0 0 0 0 0 0 0 0 0 0 0 0 127 0" result="hardAlpha"/>
<feOffset dx="-16" dy="-16"/>
<feGaussianBlur stdDeviation="16"/>
<feComposite in2="hardAlpha" operator="arithmetic" k2="-1" k3="1"/>
<feColorMatrix type="matrix" values="0 0 0 0 1 0 0 0 0 1 0 0 0 0 0.219608 0 0 0 0.9 0"/>
<feBlend mode="normal" in2="effect3_innerShadow_0_1" result="effect4_innerShadow_0_1"/>
<feColorMatrix in="SourceAlpha" type="matrix" values="0 0 0 0 0 0 0 0 0 0 0 0 0 0 0 0 0 0 127 0" result="hardAlpha"/>
<feOffset dx="16" dy="-16"/>
<feGaussianBlur stdDeviation="16"/>
<feComposite in2="hardAlpha" operator="arithmetic" k2="-1" k3="1"/>
<feColorMatrix type="matrix" values="0 0 0 0 0.556863 0 0 0 0 0.403922 0 0 0 0 0.0862745 0 0 0 0.2 0"/>
<feBlend mode="normal" in2="effect4_innerShadow_0_1" result="effect5_innerShadow_0_1"/>
<feColorMatrix in="SourceAlpha" type="matrix" values="0 0 0 0 0 0 0 0 0 0 0 0 0 0 0 0 0 0 127 0" result="hardAlpha"/>
<feOffset dx="-16" dy="16"/>
<feGaussianBlur stdDeviation="16"/>
<feComposite in2="hardAlpha" operator="arithmetic" k2="-1" k3="1"/>
<feColorMatrix type="matrix" values="0 0 0 0 0.556863 0 0 0 0 0.403922 0 0 0 0 0.0862745 0 0 0 0.2 0"/>
<feBlend mode="normal" in2="effect5_innerShadow_0_1" result="effect6_innerShadow_0_1"/>
</filter>
</defs>
</svg>
