<svg width="1703" height="510" viewBox="0 0 1703 510" fill="none" xmlns="http://www.w3.org/2000/svg"
preserveAspectRatio="xMinYMin meet">
<path d="M61.2 458.6C50.2667 458.6 40.4 456.267 31.6 451.6C22.9333 446.933 16.0667 440.267 11 431.6C6.06667 422.933 3.6 412.8 3.6 401.2C3.6 389.733 6.13333 379.667 11.2 371C16.2667 362.2 23.2 355.467 32 350.8C40.8 346.133 50.6667 343.8 61.6 343.8C72.5333 343.8 82.4 346.133 91.2 350.8C100 355.467 106.933 362.2 112 371C117.067 379.667 119.6 389.733 119.6 401.2C119.6 412.667 117 422.8 111.8 431.6C106.733 440.267 99.7333 446.933 90.8 451.6C82 456.267 72.1333 458.6 61.2 458.6ZM61.2 429C67.7333 429 73.2667 426.6 77.8 421.8C82.4667 417 84.8 410.133 84.8 401.2C84.8 392.267 82.5333 385.4 78 380.6C73.6 375.8 68.1333 373.4 61.6 373.4C54.9333 373.4 49.4 375.8 45 380.6C40.6 385.267 38.4 392.133 38.4 401.2C38.4 410.133 40.5333 417 44.8 421.8C49.2 426.6 54.6667 429 61.2 429ZM205.744 344.2C218.81 344.2 229.21 348.467 236.944 357C244.81 365.4 248.744 377 248.744 391.8V457H214.744V396.4C214.744 388.933 212.81 383.133 208.944 379C205.077 374.867 199.877 372.8 193.344 372.8C186.81 372.8 181.61 374.867 177.744 379C173.877 383.133 171.944 388.933 171.944 396.4V457H137.744V345.4H171.944V360.2C175.41 355.267 180.077 351.4 185.944 348.6C191.81 345.667 198.41 344.2 205.744 344.2ZM386.509 345.4L316.509 510H279.709L305.309 453.2L259.909 345.4H298.109L323.909 415.2L349.509 345.4H386.509ZM464.877 457L443.477 426L425.477 457H388.477L425.277 400L387.477 345.4H425.877L447.277 376.2L465.277 345.4H502.277L464.877 401.6L503.277 457H464.877Z" fill="#21209C"/>
<g opacity="0.14" filter="url(#filter0_ddiiii_0_1)">
<path d="M193.1 14.5V226H134.3V141.1H62.6V226H3.8V14.5H62.6V94H134.3V14.5H193.1ZM387.549 139.9C387.549 144.5 387.249 149.1 386.649 153.7H275.349C275.949 162.9 278.449 169.8 282.849 174.4C287.449 178.8 293.249 181 300.249 181C310.049 181 317.049 176.6 321.249 167.8H383.949C381.349 179.4 376.249 189.8 368.649 199C361.249 208 351.849 215.1 340.449 220.3C329.049 225.5 316.449 228.1 302.649 228.1C286.049 228.1 271.249 224.6 258.249 217.6C245.449 210.6 235.349 200.6 227.949 187.6C220.749 174.6 217.149 159.3 217.149 141.7C217.149 124.1 220.749 108.9 227.949 96.1C235.149 83.1 245.149 73.1 257.949 66.1C270.949 59.1 285.849 55.6 302.649 55.6C319.249 55.6 333.949 59 346.749 65.8C359.549 72.6 369.549 82.4 376.749 95.2C383.949 107.8 387.549 122.7 387.549 139.9ZM327.549 125.2C327.549 118 325.149 112.4 320.349 108.4C315.549 104.2 309.549 102.1 302.349 102.1C295.149 102.1 289.249 104.1 284.649 108.1C280.049 111.9 277.049 117.6 275.649 125.2H327.549ZM470.413 4V226H411.613V4H470.413ZM562.698 4V226H503.898V4H562.698ZM674.483 228.1C657.683 228.1 642.583 224.6 629.183 217.6C615.983 210.6 605.583 200.6 597.983 187.6C590.383 174.6 586.583 159.3 586.583 141.7C586.583 124.3 590.383 109.1 597.983 96.1C605.783 83.1 616.283 73.1 629.483 66.1C642.883 59.1 657.983 55.6 674.783 55.6C691.583 55.6 706.583 59.1 719.783 66.1C733.183 73.1 743.683 83.1 751.283 96.1C759.083 109.1 762.983 124.3 762.983 141.7C762.983 159.1 759.083 174.4 751.283 187.6C743.683 200.6 733.183 210.6 719.783 217.6C706.383 224.6 691.283 228.1 674.483 228.1ZM674.483 177.1C682.683 177.1 689.483 174.1 694.883 168.1C700.483 161.9 703.283 153.1 703.283 141.7C703.283 130.3 700.483 121.6 694.883 115.6C689.483 109.6 682.783 106.6 674.783 106.6C666.783 106.6 660.083 109.6 654.683 115.6C649.283 121.6 646.583 130.3 646.583 141.7C646.583 153.3 649.183 162.1 654.383 168.1C659.583 174.1 666.283 177.1 674.483 177.1ZM865.505 3.69998L858.605 146.8H808.505L801.605 3.69998H865.505ZM833.705 228.4C823.305 228.4 814.905 225.6 808.505 220C802.305 214.2 799.205 206.9 799.205 198.1C799.205 189.3 802.305 182 808.505 176.2C814.905 170.4 823.305 167.5 833.705 167.5C843.905 167.5 852.105 170.4 858.305 176.2C864.705 182 867.905 189.3 867.905 198.1C867.905 206.7 864.705 213.9 858.305 219.7C852.105 225.5 843.905 228.4 833.705 228.4Z" fill="#FDB827"/>
</g>
<path d="M198.4 167.4L159.4 307H126.4L100.2 207.6L72.8 307L40 307.2L2.4 167.4H32.4L57 275.8L85.4 167.4H116.6L143.4 275.2L168.2 167.4H198.4ZM319.683 249.2C319.683 253.2 319.416 256.8 318.883 260H237.883C238.549 268 241.349 274.267 246.283 278.8C251.216 283.333 257.283 285.6 264.483 285.6C274.883 285.6 282.283 281.133 286.683 272.2H316.883C313.683 282.867 307.549 291.667 298.483 298.6C289.416 305.4 278.283 308.8 265.083 308.8C254.416 308.8 244.816 306.467 236.283 301.8C227.883 297 221.283 290.267 216.483 281.6C211.816 272.933 209.483 262.933 209.483 251.6C209.483 240.133 211.816 230.067 216.483 221.4C221.149 212.733 227.683 206.067 236.083 201.4C244.483 196.733 254.149 194.4 265.083 194.4C275.616 194.4 285.016 196.667 293.283 201.2C301.683 205.733 308.149 212.2 312.683 220.6C317.349 228.867 319.683 238.4 319.683 249.2ZM290.683 241.2C290.549 234 287.949 228.267 282.883 224C277.816 219.6 271.616 217.4 264.283 217.4C257.349 217.4 251.483 219.533 246.683 223.8C242.016 227.933 239.149 233.733 238.083 241.2H290.683ZM380.577 251.2C380.577 240 382.777 230.067 387.177 221.4C391.71 212.733 397.777 206.067 405.377 201.4C413.11 196.733 421.71 194.4 431.177 194.4C439.443 194.4 446.643 196.067 452.777 199.4C459.043 202.733 464.043 206.933 467.777 212V196.2H495.977V307H467.777V290.8C464.177 296 459.177 300.333 452.777 303.8C446.51 307.133 439.243 308.8 430.977 308.8C421.643 308.8 413.11 306.4 405.377 301.6C397.777 296.8 391.71 290.067 387.177 281.4C382.777 272.6 380.577 262.533 380.577 251.2ZM467.777 251.6C467.777 244.8 466.443 239 463.777 234.2C461.11 229.267 457.51 225.533 452.977 223C448.443 220.333 443.577 219 438.377 219C433.177 219 428.377 220.267 423.977 222.8C419.577 225.333 415.977 229.067 413.177 234C410.51 238.8 409.177 244.533 409.177 251.2C409.177 257.867 410.51 263.733 413.177 268.8C415.977 273.733 419.577 277.533 423.977 280.2C428.51 282.867 433.31 284.2 438.377 284.2C443.577 284.2 448.443 282.933 452.977 280.4C457.51 277.733 461.11 274 463.777 269.2C466.443 264.267 467.777 258.4 467.777 251.6ZM551.323 213.4C554.923 207.533 559.59 202.933 565.323 199.6C571.19 196.267 577.857 194.6 585.323 194.6V224H577.923C569.123 224 562.457 226.067 557.923 230.2C553.523 234.333 551.323 241.533 551.323 251.8V307H523.323V196.2H551.323V213.4ZM707.183 249.2C707.183 253.2 706.916 256.8 706.383 260H625.383C626.049 268 628.849 274.267 633.783 278.8C638.716 283.333 644.783 285.6 651.983 285.6C662.383 285.6 669.783 281.133 674.183 272.2H704.383C701.183 282.867 695.049 291.667 685.983 298.6C676.916 305.4 665.783 308.8 652.583 308.8C641.916 308.8 632.316 306.467 623.783 301.8C615.383 297 608.783 290.267 603.983 281.6C599.316 272.933 596.983 262.933 596.983 251.6C596.983 240.133 599.316 230.067 603.983 221.4C608.649 212.733 615.183 206.067 623.583 201.4C631.983 196.733 641.649 194.4 652.583 194.4C663.116 194.4 672.516 196.667 680.783 201.2C689.183 205.733 695.649 212.2 700.183 220.6C704.849 228.867 707.183 238.4 707.183 249.2ZM678.183 241.2C678.049 234 675.449 228.267 670.383 224C665.316 219.6 659.116 217.4 651.783 217.4C644.849 217.4 638.983 219.533 634.183 223.8C629.516 227.933 626.649 233.733 625.583 241.2H678.183Z" fill="black"/>
<rect x="647" y="387" width="300" height="6" fill="#282937"/>
<path d="M1098.29 355.01C1100.9 355.477 1103.12 356.853 1104.94 359.14C1106.76 361.427 1107.67 364.017 1107.67 366.91C1107.67 369.383 1107.02 371.623 1105.71 373.63C1104.45 375.59 1102.61 377.153 1100.18 378.32C1097.75 379.44 1094.93 380 1091.71 380H1072.25V331.35H1090.8C1094.11 331.35 1096.96 331.91 1099.34 333.03C1101.72 334.15 1103.52 335.667 1104.73 337.58C1105.94 339.447 1106.55 341.547 1106.55 343.88C1106.55 346.68 1105.8 349.013 1104.31 350.88C1102.82 352.747 1100.81 354.123 1098.29 355.01ZM1080.23 351.79H1090.1C1092.71 351.79 1094.74 351.207 1096.19 350.04C1097.68 348.827 1098.43 347.1 1098.43 344.86C1098.43 342.667 1097.68 340.963 1096.19 339.75C1094.74 338.49 1092.71 337.86 1090.1 337.86H1080.23V351.79ZM1091.01 373.49C1093.72 373.49 1095.84 372.837 1097.38 371.53C1098.92 370.223 1099.69 368.403 1099.69 366.07C1099.69 363.69 1098.87 361.8 1097.24 360.4C1095.61 359 1093.44 358.3 1090.73 358.3H1080.23V373.49H1091.01ZM1151.69 359.77C1151.69 361.217 1151.6 362.523 1151.41 363.69H1121.94C1122.18 366.77 1123.32 369.243 1125.37 371.11C1127.43 372.977 1129.95 373.91 1132.93 373.91C1137.23 373.91 1140.26 372.113 1142.03 368.52H1150.64C1149.48 372.067 1147.35 374.983 1144.27 377.27C1141.24 379.51 1137.46 380.63 1132.93 380.63C1129.25 380.63 1125.93 379.813 1122.99 378.18C1120.1 376.5 1117.81 374.167 1116.13 371.18C1114.5 368.147 1113.68 364.647 1113.68 360.68C1113.68 356.713 1114.48 353.237 1116.06 350.25C1117.7 347.217 1119.96 344.883 1122.85 343.25C1125.79 341.617 1129.15 340.8 1132.93 340.8C1136.57 340.8 1139.82 341.593 1142.66 343.18C1145.51 344.767 1147.73 347.007 1149.31 349.9C1150.9 352.747 1151.69 356.037 1151.69 359.77ZM1143.36 357.25C1143.32 354.31 1142.27 351.953 1140.21 350.18C1138.16 348.407 1135.62 347.52 1132.58 347.52C1129.83 347.52 1127.47 348.407 1125.51 350.18C1123.55 351.907 1122.39 354.263 1122.01 357.25H1143.36ZM1173.54 380.63C1170.51 380.63 1167.78 380.093 1165.35 379.02C1162.97 377.9 1161.08 376.407 1159.68 374.54C1158.28 372.627 1157.54 370.503 1157.44 368.17H1165.7C1165.84 369.803 1166.61 371.18 1168.01 372.3C1169.46 373.373 1171.26 373.91 1173.4 373.91C1175.64 373.91 1177.37 373.49 1178.58 372.65C1179.84 371.763 1180.47 370.643 1180.47 369.29C1180.47 367.843 1179.77 366.77 1178.37 366.07C1177.02 365.37 1174.85 364.6 1171.86 363.76C1168.97 362.967 1166.61 362.197 1164.79 361.45C1162.97 360.703 1161.39 359.56 1160.03 358.02C1158.73 356.48 1158.07 354.45 1158.07 351.93C1158.07 349.877 1158.68 348.01 1159.89 346.33C1161.11 344.603 1162.83 343.25 1165.07 342.27C1167.36 341.29 1169.97 340.8 1172.91 340.8C1177.3 340.8 1180.82 341.92 1183.48 344.16C1186.19 346.353 1187.64 349.363 1187.82 353.19H1179.84C1179.7 351.463 1179 350.087 1177.74 349.06C1176.48 348.033 1174.78 347.52 1172.63 347.52C1170.53 347.52 1168.92 347.917 1167.8 348.71C1166.68 349.503 1166.12 350.553 1166.12 351.86C1166.12 352.887 1166.5 353.75 1167.24 354.45C1167.99 355.15 1168.9 355.71 1169.97 356.13C1171.05 356.503 1172.63 356.993 1174.73 357.6C1177.53 358.347 1179.82 359.117 1181.59 359.91C1183.41 360.657 1184.98 361.777 1186.28 363.27C1187.59 364.763 1188.27 366.747 1188.31 369.22C1188.31 371.413 1187.71 373.373 1186.49 375.1C1185.28 376.827 1183.55 378.18 1181.31 379.16C1179.12 380.14 1176.53 380.63 1173.54 380.63ZM1206.25 347.94V369.29C1206.25 370.737 1206.57 371.787 1207.23 372.44C1207.93 373.047 1209.09 373.35 1210.73 373.35H1215.63V380H1209.33C1205.73 380 1202.98 379.16 1201.07 377.48C1199.15 375.8 1198.2 373.07 1198.2 369.29V347.94H1193.65V341.43H1198.2V331.84H1206.25V341.43H1215.63V347.94H1206.25ZM1238.51 360.68C1238.51 356.713 1239.3 353.237 1240.89 350.25C1242.52 347.217 1244.76 344.883 1247.61 343.25C1250.45 341.617 1253.72 340.8 1257.41 340.8C1262.07 340.8 1265.92 341.92 1268.96 344.16C1272.04 346.353 1274.11 349.503 1275.19 353.61H1266.58C1265.88 351.697 1264.76 350.203 1263.22 349.13C1261.68 348.057 1259.74 347.52 1257.41 347.52C1254.14 347.52 1251.53 348.687 1249.57 351.02C1247.65 353.307 1246.7 356.527 1246.7 360.68C1246.7 364.833 1247.65 368.077 1249.57 370.41C1251.53 372.743 1254.14 373.91 1257.41 373.91C1262.03 373.91 1265.08 371.88 1266.58 367.82H1275.19C1274.07 371.74 1271.97 374.867 1268.89 377.2C1265.81 379.487 1261.98 380.63 1257.41 380.63C1253.72 380.63 1250.45 379.813 1247.61 378.18C1244.76 376.5 1242.52 374.167 1240.89 371.18C1239.3 368.147 1238.51 364.647 1238.51 360.68ZM1299.87 380.63C1296.23 380.63 1292.94 379.813 1290 378.18C1287.06 376.5 1284.75 374.167 1283.07 371.18C1281.39 368.147 1280.55 364.647 1280.55 360.68C1280.55 356.76 1281.41 353.283 1283.14 350.25C1284.87 347.217 1287.22 344.883 1290.21 343.25C1293.2 341.617 1296.53 340.8 1300.22 340.8C1303.91 340.8 1307.24 341.617 1310.23 343.25C1313.22 344.883 1315.57 347.217 1317.3 350.25C1319.03 353.283 1319.89 356.76 1319.89 360.68C1319.89 364.6 1319 368.077 1317.23 371.11C1315.46 374.143 1313.03 376.5 1309.95 378.18C1306.92 379.813 1303.56 380.63 1299.87 380.63ZM1299.87 373.7C1301.92 373.7 1303.84 373.21 1305.61 372.23C1307.43 371.25 1308.9 369.78 1310.02 367.82C1311.14 365.86 1311.7 363.48 1311.7 360.68C1311.7 357.88 1311.16 355.523 1310.09 353.61C1309.02 351.65 1307.59 350.18 1305.82 349.2C1304.05 348.22 1302.13 347.73 1300.08 347.73C1298.03 347.73 1296.11 348.22 1294.34 349.2C1292.61 350.18 1291.24 351.65 1290.21 353.61C1289.18 355.523 1288.67 357.88 1288.67 360.68C1288.67 364.833 1289.72 368.053 1291.82 370.34C1293.97 372.58 1296.65 373.7 1299.87 373.7ZM1335.76 328.2V380H1327.78V328.2H1335.76ZM1354.21 328.2V380H1346.23V328.2H1354.21ZM1362.03 360.54C1362.03 356.667 1362.82 353.237 1364.41 350.25C1366.04 347.263 1368.24 344.953 1370.99 343.32C1373.79 341.64 1376.87 340.8 1380.23 340.8C1383.26 340.8 1385.9 341.407 1388.14 342.62C1390.43 343.787 1392.25 345.257 1393.6 347.03V341.43H1401.65V380H1393.6V374.26C1392.25 376.08 1390.4 377.597 1388.07 378.81C1385.74 380.023 1383.08 380.63 1380.09 380.63C1376.78 380.63 1373.74 379.79 1370.99 378.11C1368.24 376.383 1366.04 374.003 1364.41 370.97C1362.82 367.89 1362.03 364.413 1362.03 360.54ZM1393.6 360.68C1393.6 358.02 1393.04 355.71 1391.92 353.75C1390.85 351.79 1389.42 350.297 1387.65 349.27C1385.88 348.243 1383.96 347.73 1381.91 347.73C1379.86 347.73 1377.94 348.243 1376.17 349.27C1374.4 350.25 1372.95 351.72 1371.83 353.68C1370.76 355.593 1370.22 357.88 1370.22 360.54C1370.22 363.2 1370.76 365.533 1371.83 367.54C1372.95 369.547 1374.4 371.087 1376.17 372.16C1377.99 373.187 1379.9 373.7 1381.91 373.7C1383.96 373.7 1385.88 373.187 1387.65 372.16C1389.42 371.133 1390.85 369.64 1391.92 367.68C1393.04 365.673 1393.6 363.34 1393.6 360.68ZM1420.11 347.17C1421.47 345.303 1423.31 343.787 1425.64 342.62C1428.02 341.407 1430.66 340.8 1433.55 340.8C1436.96 340.8 1440.04 341.617 1442.79 343.25C1445.55 344.883 1447.72 347.217 1449.3 350.25C1450.89 353.237 1451.68 356.667 1451.68 360.54C1451.68 364.413 1450.89 367.89 1449.3 370.97C1447.72 374.003 1445.52 376.383 1442.72 378.11C1439.97 379.79 1436.91 380.63 1433.55 380.63C1430.57 380.63 1427.91 380.047 1425.57 378.88C1423.29 377.713 1421.47 376.22 1420.11 374.4V380H1412.13V328.2H1420.11V347.17ZM1443.56 360.54C1443.56 357.88 1443 355.593 1441.88 353.68C1440.81 351.72 1439.36 350.25 1437.54 349.27C1435.77 348.243 1433.86 347.73 1431.8 347.73C1429.8 347.73 1427.88 348.243 1426.06 349.27C1424.29 350.297 1422.84 351.79 1421.72 353.75C1420.65 355.71 1420.11 358.02 1420.11 360.68C1420.11 363.34 1420.65 365.673 1421.72 367.68C1422.84 369.64 1424.29 371.133 1426.06 372.16C1427.88 373.187 1429.8 373.7 1431.8 373.7C1433.86 373.7 1435.77 373.187 1437.54 372.16C1439.36 371.087 1440.81 369.547 1441.88 367.54C1443 365.533 1443.56 363.2 1443.56 360.54ZM1476.3 380.63C1472.66 380.63 1469.37 379.813 1466.43 378.18C1463.49 376.5 1461.18 374.167 1459.5 371.18C1457.82 368.147 1456.98 364.647 1456.98 360.68C1456.98 356.76 1457.85 353.283 1459.57 350.25C1461.3 347.217 1463.66 344.883 1466.64 343.25C1469.63 341.617 1472.97 340.8 1476.65 340.8C1480.34 340.8 1483.68 341.617 1486.66 343.25C1489.65 344.883 1492.01 347.217 1493.73 350.25C1495.46 353.283 1496.32 356.76 1496.32 360.68C1496.32 364.6 1495.44 368.077 1493.66 371.11C1491.89 374.143 1489.46 376.5 1486.38 378.18C1483.35 379.813 1479.99 380.63 1476.3 380.63ZM1476.3 373.7C1478.36 373.7 1480.27 373.21 1482.04 372.23C1483.86 371.25 1485.33 369.78 1486.45 367.82C1487.57 365.86 1488.13 363.48 1488.13 360.68C1488.13 357.88 1487.6 355.523 1486.52 353.61C1485.45 351.65 1484.03 350.18 1482.25 349.2C1480.48 348.22 1478.57 347.73 1476.51 347.73C1474.46 347.73 1472.55 348.22 1470.77 349.2C1469.05 350.18 1467.67 351.65 1466.64 353.61C1465.62 355.523 1465.1 357.88 1465.1 360.68C1465.1 364.833 1466.15 368.053 1468.25 370.34C1470.4 372.58 1473.08 373.7 1476.3 373.7ZM1512.19 347.03C1513.36 345.07 1514.9 343.553 1516.81 342.48C1518.77 341.36 1521.08 340.8 1523.74 340.8V349.06H1521.71C1518.59 349.06 1516.21 349.853 1514.57 351.44C1512.99 353.027 1512.19 355.78 1512.19 359.7V380H1504.21V341.43H1512.19V347.03ZM1528.42 360.54C1528.42 356.667 1529.21 353.237 1530.8 350.25C1532.43 347.263 1534.62 344.953 1537.38 343.32C1540.18 341.64 1543.26 340.8 1546.62 340.8C1549.65 340.8 1552.29 341.407 1554.53 342.62C1556.81 343.787 1558.63 345.257 1559.99 347.03V341.43H1568.04V380H1559.99V374.26C1558.63 376.08 1556.79 377.597 1554.46 378.81C1552.12 380.023 1549.46 380.63 1546.48 380.63C1543.16 380.63 1540.13 379.79 1537.38 378.11C1534.62 376.383 1532.43 374.003 1530.8 370.97C1529.21 367.89 1528.42 364.413 1528.42 360.54ZM1559.99 360.68C1559.99 358.02 1559.43 355.71 1558.31 353.75C1557.23 351.79 1555.81 350.297 1554.04 349.27C1552.26 348.243 1550.35 347.73 1548.3 347.73C1546.24 347.73 1544.33 348.243 1542.56 349.27C1540.78 350.25 1539.34 351.72 1538.22 353.68C1537.14 355.593 1536.61 357.88 1536.61 360.54C1536.61 363.2 1537.14 365.533 1538.22 367.54C1539.34 369.547 1540.78 371.087 1542.56 372.16C1544.38 373.187 1546.29 373.7 1548.3 373.7C1550.35 373.7 1552.26 373.187 1554.04 372.16C1555.81 371.133 1557.23 369.64 1558.31 367.68C1559.43 365.673 1559.99 363.34 1559.99 360.68ZM1587.83 347.94V369.29C1587.83 370.737 1588.16 371.787 1588.81 372.44C1589.51 373.047 1590.68 373.35 1592.31 373.35H1597.21V380H1590.91C1587.32 380 1584.56 379.16 1582.65 377.48C1580.74 375.8 1579.78 373.07 1579.78 369.29V347.94H1575.23V341.43H1579.78V331.84H1587.83V341.43H1597.21V347.94H1587.83ZM1608.62 336.32C1607.18 336.32 1605.96 335.83 1604.98 334.85C1604 333.87 1603.51 332.657 1603.51 331.21C1603.51 329.763 1604 328.55 1604.98 327.57C1605.96 326.59 1607.18 326.1 1608.62 326.1C1610.02 326.1 1611.21 326.59 1612.19 327.57C1613.17 328.55 1613.66 329.763 1613.66 331.21C1613.66 332.657 1613.17 333.87 1612.19 334.85C1611.21 335.83 1610.02 336.32 1608.62 336.32ZM1612.54 341.43V380H1604.56V341.43H1612.54ZM1639.75 380.63C1636.11 380.63 1632.82 379.813 1629.88 378.18C1626.94 376.5 1624.63 374.167 1622.95 371.18C1621.27 368.147 1620.43 364.647 1620.43 360.68C1620.43 356.76 1621.29 353.283 1623.02 350.25C1624.75 347.217 1627.1 344.883 1630.09 343.25C1633.08 341.617 1636.41 340.8 1640.1 340.8C1643.79 340.8 1647.12 341.617 1650.11 343.25C1653.1 344.883 1655.45 347.217 1657.18 350.25C1658.91 353.283 1659.77 356.76 1659.77 360.68C1659.77 364.6 1658.88 368.077 1657.11 371.11C1655.34 374.143 1652.91 376.5 1649.83 378.18C1646.8 379.813 1643.44 380.63 1639.75 380.63ZM1639.75 373.7C1641.8 373.7 1643.72 373.21 1645.49 372.23C1647.31 371.25 1648.78 369.78 1649.9 367.82C1651.02 365.86 1651.58 363.48 1651.58 360.68C1651.58 357.88 1651.04 355.523 1649.97 353.61C1648.9 351.65 1647.47 350.18 1645.7 349.2C1643.93 348.22 1642.01 347.73 1639.96 347.73C1637.91 347.73 1635.99 348.22 1634.22 349.2C1632.49 350.18 1631.12 351.65 1630.09 353.61C1629.06 355.523 1628.55 357.88 1628.55 360.68C1628.55 364.833 1629.6 368.053 1631.7 370.34C1633.85 372.58 1636.53 373.7 1639.75 373.7ZM1687.12 340.8C1690.15 340.8 1692.86 341.43 1695.24 342.69C1697.67 343.95 1699.56 345.817 1700.91 348.29C1702.26 350.763 1702.94 353.75 1702.94 357.25V380H1695.03V358.44C1695.03 354.987 1694.17 352.35 1692.44 350.53C1690.71 348.663 1688.36 347.73 1685.37 347.73C1682.38 347.73 1680 348.663 1678.23 350.53C1676.5 352.35 1675.64 354.987 1675.64 358.44V380H1667.66V341.43H1675.64V345.84C1676.95 344.253 1678.6 343.017 1680.61 342.13C1682.66 341.243 1684.83 340.8 1687.12 340.8ZM1081.56 424.94V446.29C1081.56 447.737 1081.89 448.787 1082.54 449.44C1083.24 450.047 1084.41 450.35 1086.04 450.35H1090.94V457H1084.64C1081.05 457 1078.29 456.16 1076.38 454.48C1074.47 452.8 1073.51 450.07 1073.51 446.29V424.94H1068.96V418.43H1073.51V408.84H1081.56V418.43H1090.94V424.94H1081.56ZM1115.02 457.63C1111.38 457.63 1108.09 456.813 1105.15 455.18C1102.21 453.5 1099.9 451.167 1098.22 448.18C1096.54 445.147 1095.7 441.647 1095.7 437.68C1095.7 433.76 1096.57 430.283 1098.29 427.25C1100.02 424.217 1102.38 421.883 1105.36 420.25C1108.35 418.617 1111.69 417.8 1115.37 417.8C1119.06 417.8 1122.4 418.617 1125.38 420.25C1128.37 421.883 1130.73 424.217 1132.45 427.25C1134.18 430.283 1135.04 433.76 1135.04 437.68C1135.04 441.6 1134.16 445.077 1132.38 448.11C1130.61 451.143 1128.18 453.5 1125.1 455.18C1122.07 456.813 1118.71 457.63 1115.02 457.63ZM1115.02 450.7C1117.08 450.7 1118.99 450.21 1120.76 449.23C1122.58 448.25 1124.05 446.78 1125.17 444.82C1126.29 442.86 1126.85 440.48 1126.85 437.68C1126.85 434.88 1126.32 432.523 1125.24 430.61C1124.17 428.65 1122.75 427.18 1120.97 426.2C1119.2 425.22 1117.29 424.73 1115.23 424.73C1113.18 424.73 1111.27 425.22 1109.49 426.2C1107.77 427.18 1106.39 428.65 1105.36 430.61C1104.34 432.523 1103.82 434.88 1103.82 437.68C1103.82 441.833 1104.87 445.053 1106.97 447.34C1109.12 449.58 1111.8 450.7 1115.02 450.7ZM1159.66 457.63C1156.02 457.63 1152.73 456.813 1149.79 455.18C1146.85 453.5 1144.54 451.167 1142.86 448.18C1141.18 445.147 1140.34 441.647 1140.34 437.68C1140.34 433.76 1141.21 430.283 1142.93 427.25C1144.66 424.217 1147.02 421.883 1150 420.25C1152.99 418.617 1156.33 417.8 1160.01 417.8C1163.7 417.8 1167.04 418.617 1170.02 420.25C1173.01 421.883 1175.37 424.217 1177.09 427.25C1178.82 430.283 1179.68 433.76 1179.68 437.68C1179.68 441.6 1178.8 445.077 1177.02 448.11C1175.25 451.143 1172.82 453.5 1169.74 455.18C1166.71 456.813 1163.35 457.63 1159.66 457.63ZM1159.66 450.7C1161.72 450.7 1163.63 450.21 1165.4 449.23C1167.22 448.25 1168.69 446.78 1169.81 444.82C1170.93 442.86 1171.49 440.48 1171.49 437.68C1171.49 434.88 1170.96 432.523 1169.88 430.61C1168.81 428.65 1167.39 427.18 1165.61 426.2C1163.84 425.22 1161.93 424.73 1159.87 424.73C1157.82 424.73 1155.91 425.22 1154.13 426.2C1152.41 427.18 1151.03 428.65 1150 430.61C1148.98 432.523 1148.46 434.88 1148.46 437.68C1148.46 441.833 1149.51 445.053 1151.61 447.34C1153.76 449.58 1156.44 450.7 1159.66 450.7ZM1195.55 405.2V457H1187.57V405.2H1195.55ZM1220.03 457.63C1217 457.63 1214.27 457.093 1211.84 456.02C1209.46 454.9 1207.57 453.407 1206.17 451.54C1204.77 449.627 1204.02 447.503 1203.93 445.17H1212.19C1212.33 446.803 1213.1 448.18 1214.5 449.3C1215.95 450.373 1217.74 450.91 1219.89 450.91C1222.13 450.91 1223.86 450.49 1225.07 449.65C1226.33 448.763 1226.96 447.643 1226.96 446.29C1226.96 444.843 1226.26 443.77 1224.86 443.07C1223.51 442.37 1221.34 441.6 1218.35 440.76C1215.46 439.967 1213.1 439.197 1211.28 438.45C1209.46 437.703 1207.87 436.56 1206.52 435.02C1205.21 433.48 1204.56 431.45 1204.56 428.93C1204.56 426.877 1205.17 425.01 1206.38 423.33C1207.59 421.603 1209.32 420.25 1211.56 419.27C1213.85 418.29 1216.46 417.8 1219.4 417.8C1223.79 417.8 1227.31 418.92 1229.97 421.16C1232.68 423.353 1234.12 426.363 1234.31 430.19H1226.33C1226.19 428.463 1225.49 427.087 1224.23 426.06C1222.97 425.033 1221.27 424.52 1219.12 424.52C1217.02 424.52 1215.41 424.917 1214.29 425.71C1213.17 426.503 1212.61 427.553 1212.61 428.86C1212.61 429.887 1212.98 430.75 1213.73 431.45C1214.48 432.15 1215.39 432.71 1216.46 433.13C1217.53 433.503 1219.12 433.993 1221.22 434.6C1224.02 435.347 1226.31 436.117 1228.08 436.91C1229.9 437.657 1231.46 438.777 1232.77 440.27C1234.08 441.763 1234.75 443.747 1234.8 446.22C1234.8 448.413 1234.19 450.373 1232.98 452.1C1231.77 453.827 1230.04 455.18 1227.8 456.16C1225.61 457.14 1223.02 457.63 1220.03 457.63ZM1296.96 436.77C1296.96 438.217 1296.86 439.523 1296.68 440.69H1267.21C1267.44 443.77 1268.58 446.243 1270.64 448.11C1272.69 449.977 1275.21 450.91 1278.2 450.91C1282.49 450.91 1285.52 449.113 1287.3 445.52H1295.91C1294.74 449.067 1292.62 451.983 1289.54 454.27C1286.5 456.51 1282.72 457.63 1278.2 457.63C1274.51 457.63 1271.2 456.813 1268.26 455.18C1265.36 453.5 1263.08 451.167 1261.4 448.18C1259.76 445.147 1258.95 441.647 1258.95 437.68C1258.95 433.713 1259.74 430.237 1261.33 427.25C1262.96 424.217 1265.22 421.883 1268.12 420.25C1271.06 418.617 1274.42 417.8 1278.2 417.8C1281.84 417.8 1285.08 418.593 1287.93 420.18C1290.77 421.767 1292.99 424.007 1294.58 426.9C1296.16 429.747 1296.96 433.037 1296.96 436.77ZM1288.63 434.25C1288.58 431.31 1287.53 428.953 1285.48 427.18C1283.42 425.407 1280.88 424.52 1277.85 424.52C1275.09 424.52 1272.74 425.407 1270.78 427.18C1268.82 428.907 1267.65 431.263 1267.28 434.25H1288.63ZM1319.72 449.86L1330.64 418.43H1339.11L1324.41 457H1314.89L1300.26 418.43H1308.8L1319.72 449.86ZM1380.49 436.77C1380.49 438.217 1380.4 439.523 1380.21 440.69H1350.74C1350.97 443.77 1352.12 446.243 1354.17 448.11C1356.22 449.977 1358.74 450.91 1361.73 450.91C1366.02 450.91 1369.06 449.113 1370.83 445.52H1379.44C1378.27 449.067 1376.15 451.983 1373.07 454.27C1370.04 456.51 1366.26 457.63 1361.73 457.63C1358.04 457.63 1354.73 456.813 1351.79 455.18C1348.9 453.5 1346.61 451.167 1344.93 448.18C1343.3 445.147 1342.48 441.647 1342.48 437.68C1342.48 433.713 1343.27 430.237 1344.86 427.25C1346.49 424.217 1348.76 421.883 1351.65 420.25C1354.59 418.617 1357.95 417.8 1361.73 417.8C1365.37 417.8 1368.61 418.593 1371.46 420.18C1374.31 421.767 1376.52 424.007 1378.11 426.9C1379.7 429.747 1380.49 433.037 1380.49 436.77ZM1372.16 434.25C1372.11 431.31 1371.06 428.953 1369.01 427.18C1366.96 425.407 1364.41 424.52 1361.38 424.52C1358.63 424.52 1356.27 425.407 1354.31 427.18C1352.35 428.907 1351.18 431.263 1350.81 434.25H1372.16ZM1396.32 424.03C1397.49 422.07 1399.03 420.553 1400.94 419.48C1402.9 418.36 1405.21 417.8 1407.87 417.8V426.06H1405.84C1402.72 426.06 1400.34 426.853 1398.7 428.44C1397.12 430.027 1396.32 432.78 1396.32 436.7V457H1388.34V418.43H1396.32V424.03ZM1425.22 408.35L1424.31 442.3H1417.66L1416.75 408.35H1425.22ZM1421.23 457.49C1419.78 457.49 1418.57 457 1417.59 456.02C1416.61 455.04 1416.12 453.827 1416.12 452.38C1416.12 450.933 1416.61 449.72 1417.59 448.74C1418.57 447.76 1419.78 447.27 1421.23 447.27C1422.63 447.27 1423.82 447.76 1424.8 448.74C1425.78 449.72 1426.27 450.933 1426.27 452.38C1426.27 453.827 1425.78 455.04 1424.8 456.02C1423.82 457 1422.63 457.49 1421.23 457.49Z" fill="black"/>
<defs>
<filter id="filter0_ddiiii_0_1" x="-12.2" y="-12.3" width="896.105" height="256.7" filterUnits="userSpaceOnUse" color-interpolation-filters="sRGB">
<feFlood flood-opacity="0" result="BackgroundImageFix"/>
<feColorMatrix in="SourceAlpha" type="matrix" values="0 0 0 0 0 0 0 0 0 0 0 0 0 0 0 0 0 0 127 0" result="hardAlpha"/>
<feOffset dx="-1" dy="-1"/>
<feGaussianBlur stdDeviation="1"/>
<feColorMatrix type="matrix" values="0 0 0 0 0.556863 0 0 0 0 0.403922 0 0 0 0 0.0862745 0 0 0 0.5 0"/>
<feBlend mode="normal" in2="BackgroundImageFix" result="effect1_dropShadow_0_1"/>
<feColorMatrix in="SourceAlpha" type="matrix" values="0 0 0 0 0 0 0 0 0 0 0 0 0 0 0 0 0 0 127 0" result="hardAlpha"/>
<feOffset dx="1" dy="1"/>
<feGaussianBlur stdDeviation="1"/>
<feColorMatrix type="matrix" values="0 0 0 0 1 0 0 0 0 1 0 0 0 0 0.219608 0 0 0 0.3 0"/>
<feBlend mode="normal" in2="effect1_dropShadow_0_1" result="effect2_dropShadow_0_1"/>
<feBlend mode="normal" in="SourceGraphic" in2="effect2_dropShadow_0_1" result="shape"/>
<feColorMatrix in="SourceAlpha" type="matrix" values="0 0 0 0 0 0 0 0 0 0 0 0 0 0 0 0 0 0 127 0" result="hardAlpha"/>
<feOffset dx="16" dy="16"/>
<feGaussianBlur stdDeviation="20"/>
<feComposite in2="hardAlpha" operator="arithmetic" k2="-1" k3="1"/>
<feColorMatrix type="matrix" values="0 0 0 0 0.556863 0 0 0 0 0.403922 0 0 0 0 0.0862745 0 0 0 0.9 0"/>
<feBlend mode="normal" in2="shape" result="effect3_innerShadow_0_1"/>
<feColorMatrix in="SourceAlpha" type="matrix" values="0 0 0 0 0 0 0 0 0 0 0 0 0 0 0 0 0 0 127 0" result="hardAlpha"/>
<feOffset dx="-16" dy="-16"/>
<feGaussianBlur stdDeviation="16"/>
<feComposite in2="hardAlpha" operator="arithmetic" k2="-1" k3="1"/>
<feColorMatrix type="matrix" values="0 0 0 0 1 0 0 0 0 1 0 0 0 0 0.219608 0 0 0 0.9 0"/>
<feBlend mode="normal" in2="effect3_innerShadow_0_1" result="effect4_innerShadow_0_1"/>
<feColorMatrix in="SourceAlpha" type="matrix" values="0 0 0 0 0 0 0 0 0 0 0 0 0 0 0 0 0 0 127 0" result="hardAlpha"/>
<feOffset dx="16" dy="-16"/>
<feGaussianBlur stdDeviation="16"/>
<feComposite in2="hardAlpha" operator="arithmetic" k2="-1" k3="1"/>
<feColorMatrix type="matrix" values="0 0 0 0 0.556863 0 0 0 0 0.403922 0 0 0 0 0.0862745 0 0 0 0.2 0"/>
<feBlend mode="normal" in2="effect4_innerShadow_0_1" result="effect5_innerShadow_0_1"/>
<feColorMatrix in="SourceAlpha" type="matrix" values="0 0 0 0 0 0 0 0 0 0 0 0 0 0 0 0 0 0 127 0" result="hardAlpha"/>
<feOffset dx="-16" dy="16"/>
<feGaussianBlur stdDeviation="16"/>
<feComposite in2="hardAlpha" operator="arithmetic" k2="-1" k3="1"/>
<feColorMatrix type="matrix" values="0 0 0 0 0.556863 0 0 0 0 0.403922 0 0 0 0 0.0862745 0 0 0 0.2 0"/>
<feBlend mode="normal" in2="effect5_innerShadow_0_1" result="effect6_innerShadow_0_1"/>
</filter>
</defs>
</svg>
