<svg width="147" height="140" viewBox="0 0 147 140" fill="none" xmlns="http://www.w3.org/2000/svg">
    <g opacity="0.62" filter="url(#filter0_d_47_54)">
    <path d="M94.782 119L86.232 110.9C76.732 117.4 65.382 120.65 52.182 120.65C43.882 120.65 36.632 119.3 30.432 116.6C24.332 113.9 19.582 110.1 16.182 105.2C12.882 100.3 11.232 94.65 11.232 88.25C11.232 81.85 12.882 76.05 16.182 70.85C19.582 65.55 24.632 61.25 31.332 57.95C28.832 54.75 27.032 51.7 25.932 48.8C24.832 45.9 24.282 42.8 24.282 39.5C24.282 34.3 25.632 29.55 28.332 25.25C31.032 20.95 34.982 17.55 40.182 15.05C45.482 12.45 51.732 11.15 58.932 11.15C66.232 11.15 72.432 12.5 77.532 15.2C82.632 17.8 86.432 21.3 88.932 25.7C91.532 30 92.782 34.7 92.682 39.8H65.532C65.532 37.5 64.882 35.75 63.582 34.55C62.282 33.35 60.682 32.75 58.782 32.75C56.782 32.75 55.082 33.35 53.682 34.55C52.382 35.65 51.732 37.2 51.732 39.2C51.732 42.7 54.232 46.95 59.232 51.95L83.982 76.1C84.882 74.3 85.832 72.15 86.832 69.65L89.832 64.25H118.932L114.582 72.65C110.982 81.25 107.032 88.5 102.732 94.4L127.932 119H94.782ZM54.132 97.1C59.432 97.1 64.132 95.95 68.232 93.65L47.382 73.7C44.782 75.3 42.832 77.15 41.532 79.25C40.232 81.35 39.582 83.5 39.582 85.7C39.582 88.9 40.882 91.6 43.482 93.8C46.082 96 49.632 97.1 54.132 97.1Z" fill="#6371EA"/>
    </g>
    <defs>
    <filter id="filter0_d_47_54" x="0.231934" y="0.150024" width="146.7" height="139.5" filterUnits="userSpaceOnUse" color-interpolation-filters="sRGB">
    <feFlood flood-opacity="0" result="BackgroundImageFix"/>
    <feColorMatrix in="SourceAlpha" type="matrix" values="0 0 0 0 0 0 0 0 0 0 0 0 0 0 0 0 0 0 127 0" result="hardAlpha"/>
    <feOffset dx="4" dy="4"/>
    <feGaussianBlur stdDeviation="7.5"/>
    <feComposite in2="hardAlpha" operator="out"/>
    <feColorMatrix type="matrix" values="0 0 0 0 0 0 0 0 0 0 0 0 0 0 0 0 0 0 0.25 0"/>
    <feBlend mode="normal" in2="BackgroundImageFix" result="effect1_dropShadow_47_54"/>
    <feBlend mode="normal" in="SourceGraphic" in2="effect1_dropShadow_47_54" result="shape"/>
    </filter>
    </defs>
</svg>