<svg width="1701" height="512" viewBox="0 0 1701 512" fill="none" xmlns="http://www.w3.org/2000/svg" preserveAspectRatio="xMinYMin meet">
<path d="M59.2 460.6C48.2667 460.6 38.4 458.267 29.6 453.6C20.9333 448.933 14.0667 442.267 9 433.6C4.06667 424.933 1.6 414.8 1.6 403.2C1.6 391.733 4.13333 381.667 9.2 373C14.2667 364.2 21.2 357.467 30 352.8C38.8 348.133 48.6667 345.8 59.6 345.8C70.5333 345.8 80.4 348.133 89.2 352.8C98 357.467 104.933 364.2 110 373C115.067 381.667 117.6 391.733 117.6 403.2C117.6 414.667 115 424.8 109.8 433.6C104.733 442.267 97.7333 448.933 88.8 453.6C80 458.267 70.1333 460.6 59.2 460.6ZM59.2 431C65.7333 431 71.2667 428.6 75.8 423.8C80.4667 419 82.8 412.133 82.8 403.2C82.8 394.267 80.5333 387.4 76 382.6C71.6 377.8 66.1333 375.4 59.6 375.4C52.9333 375.4 47.4 377.8 43 382.6C38.6 387.267 36.4 394.133 36.4 403.2C36.4 412.133 38.5333 419 42.8 423.8C47.2 428.6 52.6667 431 59.2 431ZM203.744 346.2C216.81 346.2 227.21 350.467 234.944 359C242.81 367.4 246.744 379 246.744 393.8V459H212.744V398.4C212.744 390.933 210.81 385.133 206.944 381C203.077 376.867 197.877 374.8 191.344 374.8C184.81 374.8 179.61 376.867 175.744 381C171.877 385.133 169.944 390.933 169.944 398.4V459H135.744V347.4H169.944V362.2C173.41 357.267 178.077 353.4 183.944 350.6C189.81 347.667 196.41 346.2 203.744 346.2ZM384.509 347.4L314.509 512H277.709L303.309 455.2L257.909 347.4H296.109L321.909 417.2L347.509 347.4H384.509ZM462.877 459L441.477 428L423.477 459H386.477L423.277 402L385.477 347.4H423.877L445.277 378.2L463.277 347.4H500.277L462.877 403.6L501.277 459H462.877Z" fill="#21209C"/>
<g opacity="0.14" filter="url(#filter0_ddiiii_0_1)">
<path d="M196.1 14.5V226H137.3V141.1H65.6V226H6.8V14.5H65.6V94H137.3V14.5H196.1ZM390.549 139.9C390.549 144.5 390.249 149.1 389.649 153.7H278.349C278.949 162.9 281.449 169.8 285.849 174.4C290.449 178.8 296.249 181 303.249 181C313.049 181 320.049 176.6 324.249 167.8H386.949C384.349 179.4 379.249 189.8 371.649 199C364.249 208 354.849 215.1 343.449 220.3C332.049 225.5 319.449 228.1 305.649 228.1C289.049 228.1 274.249 224.6 261.249 217.6C248.449 210.6 238.349 200.6 230.949 187.6C223.749 174.6 220.149 159.3 220.149 141.7C220.149 124.1 223.749 108.9 230.949 96.1C238.149 83.1 248.149 73.1 260.949 66.1C273.949 59.1 288.849 55.6 305.649 55.6C322.249 55.6 336.949 59 349.749 65.8C362.549 72.6 372.549 82.4 379.749 95.2C386.949 107.8 390.549 122.7 390.549 139.9ZM330.549 125.2C330.549 118 328.149 112.4 323.349 108.4C318.549 104.2 312.549 102.1 305.349 102.1C298.149 102.1 292.249 104.1 287.649 108.1C283.049 111.9 280.049 117.6 278.649 125.2H330.549ZM473.413 4V226H414.613V4H473.413ZM565.698 4V226H506.898V4H565.698ZM677.483 228.1C660.683 228.1 645.583 224.6 632.183 217.6C618.983 210.6 608.583 200.6 600.983 187.6C593.383 174.6 589.583 159.3 589.583 141.7C589.583 124.3 593.383 109.1 600.983 96.1C608.783 83.1 619.283 73.1 632.483 66.1C645.883 59.1 660.983 55.6 677.783 55.6C694.583 55.6 709.583 59.1 722.783 66.1C736.183 73.1 746.683 83.1 754.283 96.1C762.083 109.1 765.983 124.3 765.983 141.7C765.983 159.1 762.083 174.4 754.283 187.6C746.683 200.6 736.183 210.6 722.783 217.6C709.383 224.6 694.283 228.1 677.483 228.1ZM677.483 177.1C685.683 177.1 692.483 174.1 697.883 168.1C703.483 161.9 706.283 153.1 706.283 141.7C706.283 130.3 703.483 121.6 697.883 115.6C692.483 109.6 685.783 106.6 677.783 106.6C669.783 106.6 663.083 109.6 657.683 115.6C652.283 121.6 649.583 130.3 649.583 141.7C649.583 153.3 652.183 162.1 657.383 168.1C662.583 174.1 669.283 177.1 677.483 177.1ZM868.505 3.69998L861.605 146.8H811.505L804.605 3.69998H868.505ZM836.705 228.4C826.305 228.4 817.905 225.6 811.505 220C805.305 214.2 802.205 206.9 802.205 198.1C802.205 189.3 805.305 182 811.505 176.2C817.905 170.4 826.305 167.5 836.705 167.5C846.905 167.5 855.105 170.4 861.305 176.2C867.705 182 870.905 189.3 870.905 198.1C870.905 206.7 867.705 213.9 861.305 219.7C855.105 225.5 846.905 228.4 836.705 228.4Z" fill="#FDB827"/>
</g>
<path d="M196.4 169.4L157.4 309H124.4L98.2 209.6L70.8 309L38 309.2L0.4 169.4H30.4L55 277.8L83.4 169.4H114.6L141.4 277.2L166.2 169.4H196.4ZM317.683 251.2C317.683 255.2 317.416 258.8 316.883 262H235.883C236.549 270 239.349 276.267 244.283 280.8C249.216 285.333 255.283 287.6 262.483 287.6C272.883 287.6 280.283 283.133 284.683 274.2H314.883C311.683 284.867 305.549 293.667 296.483 300.6C287.416 307.4 276.283 310.8 263.083 310.8C252.416 310.8 242.816 308.467 234.283 303.8C225.883 299 219.283 292.267 214.483 283.6C209.816 274.933 207.483 264.933 207.483 253.6C207.483 242.133 209.816 232.067 214.483 223.4C219.149 214.733 225.683 208.067 234.083 203.4C242.483 198.733 252.149 196.4 263.083 196.4C273.616 196.4 283.016 198.667 291.283 203.2C299.683 207.733 306.149 214.2 310.683 222.6C315.349 230.867 317.683 240.4 317.683 251.2ZM288.683 243.2C288.549 236 285.949 230.267 280.883 226C275.816 221.6 269.616 219.4 262.283 219.4C255.349 219.4 249.483 221.533 244.683 225.8C240.016 229.933 237.149 235.733 236.083 243.2H288.683ZM378.577 253.2C378.577 242 380.777 232.067 385.177 223.4C389.71 214.733 395.777 208.067 403.377 203.4C411.11 198.733 419.71 196.4 429.177 196.4C437.443 196.4 444.643 198.067 450.777 201.4C457.043 204.733 462.043 208.933 465.777 214V198.2H493.977V309H465.777V292.8C462.177 298 457.177 302.333 450.777 305.8C444.51 309.133 437.243 310.8 428.977 310.8C419.643 310.8 411.11 308.4 403.377 303.6C395.777 298.8 389.71 292.067 385.177 283.4C380.777 274.6 378.577 264.533 378.577 253.2ZM465.777 253.6C465.777 246.8 464.443 241 461.777 236.2C459.11 231.267 455.51 227.533 450.977 225C446.443 222.333 441.577 221 436.377 221C431.177 221 426.377 222.267 421.977 224.8C417.577 227.333 413.977 231.067 411.177 236C408.51 240.8 407.177 246.533 407.177 253.2C407.177 259.867 408.51 265.733 411.177 270.8C413.977 275.733 417.577 279.533 421.977 282.2C426.51 284.867 431.31 286.2 436.377 286.2C441.577 286.2 446.443 284.933 450.977 282.4C455.51 279.733 459.11 276 461.777 271.2C464.443 266.267 465.777 260.4 465.777 253.6ZM549.323 215.4C552.923 209.533 557.59 204.933 563.323 201.6C569.19 198.267 575.857 196.6 583.323 196.6V226H575.923C567.123 226 560.457 228.067 555.923 232.2C551.523 236.333 549.323 243.533 549.323 253.8V309H521.323V198.2H549.323V215.4ZM705.183 251.2C705.183 255.2 704.916 258.8 704.383 262H623.383C624.049 270 626.849 276.267 631.783 280.8C636.716 285.333 642.783 287.6 649.983 287.6C660.383 287.6 667.783 283.133 672.183 274.2H702.383C699.183 284.867 693.049 293.667 683.983 300.6C674.916 307.4 663.783 310.8 650.583 310.8C639.916 310.8 630.316 308.467 621.783 303.8C613.383 299 606.783 292.267 601.983 283.6C597.316 274.933 594.983 264.933 594.983 253.6C594.983 242.133 597.316 232.067 601.983 223.4C606.649 214.733 613.183 208.067 621.583 203.4C629.983 198.733 639.649 196.4 650.583 196.4C661.116 196.4 670.516 198.667 678.783 203.2C687.183 207.733 693.649 214.2 698.183 222.6C702.849 230.867 705.183 240.4 705.183 251.2ZM676.183 243.2C676.049 236 673.449 230.267 668.383 226C663.316 221.6 657.116 219.4 649.783 219.4C642.849 219.4 636.983 221.533 632.183 225.8C627.516 229.933 624.649 235.733 623.583 243.2H676.183Z" fill="black"/>
<rect x="643" y="389" width="300" height="6" fill="#282937"/>
<path d="M1096.29 357.01C1098.9 357.477 1101.12 358.853 1102.94 361.14C1104.76 363.427 1105.67 366.017 1105.67 368.91C1105.67 371.383 1105.02 373.623 1103.71 375.63C1102.45 377.59 1100.61 379.153 1098.18 380.32C1095.75 381.44 1092.93 382 1089.71 382H1070.25V333.35H1088.8C1092.11 333.35 1094.96 333.91 1097.34 335.03C1099.72 336.15 1101.52 337.667 1102.73 339.58C1103.94 341.447 1104.55 343.547 1104.55 345.88C1104.55 348.68 1103.8 351.013 1102.31 352.88C1100.82 354.747 1098.81 356.123 1096.29 357.01ZM1078.23 353.79H1088.1C1090.71 353.79 1092.74 353.207 1094.19 352.04C1095.68 350.827 1096.43 349.1 1096.43 346.86C1096.43 344.667 1095.68 342.963 1094.19 341.75C1092.74 340.49 1090.71 339.86 1088.1 339.86H1078.23V353.79ZM1089.01 375.49C1091.72 375.49 1093.84 374.837 1095.38 373.53C1096.92 372.223 1097.69 370.403 1097.69 368.07C1097.69 365.69 1096.87 363.8 1095.24 362.4C1093.61 361 1091.44 360.3 1088.73 360.3H1078.23V375.49H1089.01ZM1149.69 361.77C1149.69 363.217 1149.6 364.523 1149.41 365.69H1119.94C1120.18 368.77 1121.32 371.243 1123.37 373.11C1125.43 374.977 1127.95 375.91 1130.93 375.91C1135.23 375.91 1138.26 374.113 1140.03 370.52H1148.64C1147.48 374.067 1145.35 376.983 1142.27 379.27C1139.24 381.51 1135.46 382.63 1130.93 382.63C1127.25 382.63 1123.93 381.813 1120.99 380.18C1118.1 378.5 1115.81 376.167 1114.13 373.18C1112.5 370.147 1111.68 366.647 1111.68 362.68C1111.68 358.713 1112.48 355.237 1114.06 352.25C1115.7 349.217 1117.96 346.883 1120.85 345.25C1123.79 343.617 1127.15 342.8 1130.93 342.8C1134.57 342.8 1137.82 343.593 1140.66 345.18C1143.51 346.767 1145.73 349.007 1147.31 351.9C1148.9 354.747 1149.69 358.037 1149.69 361.77ZM1141.36 359.25C1141.32 356.31 1140.27 353.953 1138.21 352.18C1136.16 350.407 1133.62 349.52 1130.58 349.52C1127.83 349.52 1125.47 350.407 1123.51 352.18C1121.55 353.907 1120.39 356.263 1120.01 359.25H1141.36ZM1171.54 382.63C1168.51 382.63 1165.78 382.093 1163.35 381.02C1160.97 379.9 1159.08 378.407 1157.68 376.54C1156.28 374.627 1155.54 372.503 1155.44 370.17H1163.7C1163.84 371.803 1164.61 373.18 1166.01 374.3C1167.46 375.373 1169.26 375.91 1171.4 375.91C1173.64 375.91 1175.37 375.49 1176.58 374.65C1177.84 373.763 1178.47 372.643 1178.47 371.29C1178.47 369.843 1177.77 368.77 1176.37 368.07C1175.02 367.37 1172.85 366.6 1169.86 365.76C1166.97 364.967 1164.61 364.197 1162.79 363.45C1160.97 362.703 1159.39 361.56 1158.03 360.02C1156.73 358.48 1156.07 356.45 1156.07 353.93C1156.07 351.877 1156.68 350.01 1157.89 348.33C1159.11 346.603 1160.83 345.25 1163.07 344.27C1165.36 343.29 1167.97 342.8 1170.91 342.8C1175.3 342.8 1178.82 343.92 1181.48 346.16C1184.19 348.353 1185.64 351.363 1185.82 355.19H1177.84C1177.7 353.463 1177 352.087 1175.74 351.06C1174.48 350.033 1172.78 349.52 1170.63 349.52C1168.53 349.52 1166.92 349.917 1165.8 350.71C1164.68 351.503 1164.12 352.553 1164.12 353.86C1164.12 354.887 1164.5 355.75 1165.24 356.45C1165.99 357.15 1166.9 357.71 1167.97 358.13C1169.05 358.503 1170.63 358.993 1172.73 359.6C1175.53 360.347 1177.82 361.117 1179.59 361.91C1181.41 362.657 1182.98 363.777 1184.28 365.27C1185.59 366.763 1186.27 368.747 1186.31 371.22C1186.31 373.413 1185.71 375.373 1184.49 377.1C1183.28 378.827 1181.55 380.18 1179.31 381.16C1177.12 382.14 1174.53 382.63 1171.54 382.63ZM1204.25 349.94V371.29C1204.25 372.737 1204.57 373.787 1205.23 374.44C1205.93 375.047 1207.09 375.35 1208.73 375.35H1213.63V382H1207.33C1203.73 382 1200.98 381.16 1199.07 379.48C1197.15 377.8 1196.2 375.07 1196.2 371.29V349.94H1191.65V343.43H1196.2V333.84H1204.25V343.43H1213.63V349.94H1204.25ZM1236.51 362.68C1236.51 358.713 1237.3 355.237 1238.89 352.25C1240.52 349.217 1242.76 346.883 1245.61 345.25C1248.45 343.617 1251.72 342.8 1255.41 342.8C1260.07 342.8 1263.92 343.92 1266.96 346.16C1270.04 348.353 1272.11 351.503 1273.19 355.61H1264.58C1263.88 353.697 1262.76 352.203 1261.22 351.13C1259.68 350.057 1257.74 349.52 1255.41 349.52C1252.14 349.52 1249.53 350.687 1247.57 353.02C1245.65 355.307 1244.7 358.527 1244.7 362.68C1244.7 366.833 1245.65 370.077 1247.57 372.41C1249.53 374.743 1252.14 375.91 1255.41 375.91C1260.03 375.91 1263.08 373.88 1264.58 369.82H1273.19C1272.07 373.74 1269.97 376.867 1266.89 379.2C1263.81 381.487 1259.98 382.63 1255.41 382.63C1251.72 382.63 1248.45 381.813 1245.61 380.18C1242.76 378.5 1240.52 376.167 1238.89 373.18C1237.3 370.147 1236.51 366.647 1236.51 362.68ZM1297.87 382.63C1294.23 382.63 1290.94 381.813 1288 380.18C1285.06 378.5 1282.75 376.167 1281.07 373.18C1279.39 370.147 1278.55 366.647 1278.55 362.68C1278.55 358.76 1279.41 355.283 1281.14 352.25C1282.87 349.217 1285.22 346.883 1288.21 345.25C1291.2 343.617 1294.53 342.8 1298.22 342.8C1301.91 342.8 1305.24 343.617 1308.23 345.25C1311.22 346.883 1313.57 349.217 1315.3 352.25C1317.03 355.283 1317.89 358.76 1317.89 362.68C1317.89 366.6 1317 370.077 1315.23 373.11C1313.46 376.143 1311.03 378.5 1307.95 380.18C1304.92 381.813 1301.56 382.63 1297.87 382.63ZM1297.87 375.7C1299.92 375.7 1301.84 375.21 1303.61 374.23C1305.43 373.25 1306.9 371.78 1308.02 369.82C1309.14 367.86 1309.7 365.48 1309.7 362.68C1309.7 359.88 1309.16 357.523 1308.09 355.61C1307.02 353.65 1305.59 352.18 1303.82 351.2C1302.05 350.22 1300.13 349.73 1298.08 349.73C1296.03 349.73 1294.11 350.22 1292.34 351.2C1290.61 352.18 1289.24 353.65 1288.21 355.61C1287.18 357.523 1286.67 359.88 1286.67 362.68C1286.67 366.833 1287.72 370.053 1289.82 372.34C1291.97 374.58 1294.65 375.7 1297.87 375.7ZM1333.76 330.2V382H1325.78V330.2H1333.76ZM1352.21 330.2V382H1344.23V330.2H1352.21ZM1360.03 362.54C1360.03 358.667 1360.82 355.237 1362.41 352.25C1364.04 349.263 1366.24 346.953 1368.99 345.32C1371.79 343.64 1374.87 342.8 1378.23 342.8C1381.26 342.8 1383.9 343.407 1386.14 344.62C1388.43 345.787 1390.25 347.257 1391.6 349.03V343.43H1399.65V382H1391.6V376.26C1390.25 378.08 1388.4 379.597 1386.07 380.81C1383.74 382.023 1381.08 382.63 1378.09 382.63C1374.78 382.63 1371.74 381.79 1368.99 380.11C1366.24 378.383 1364.04 376.003 1362.41 372.97C1360.82 369.89 1360.03 366.413 1360.03 362.54ZM1391.6 362.68C1391.6 360.02 1391.04 357.71 1389.92 355.75C1388.85 353.79 1387.42 352.297 1385.65 351.27C1383.88 350.243 1381.96 349.73 1379.91 349.73C1377.86 349.73 1375.94 350.243 1374.17 351.27C1372.4 352.25 1370.95 353.72 1369.83 355.68C1368.76 357.593 1368.22 359.88 1368.22 362.54C1368.22 365.2 1368.76 367.533 1369.83 369.54C1370.95 371.547 1372.4 373.087 1374.17 374.16C1375.99 375.187 1377.9 375.7 1379.91 375.7C1381.96 375.7 1383.88 375.187 1385.65 374.16C1387.42 373.133 1388.85 371.64 1389.92 369.68C1391.04 367.673 1391.6 365.34 1391.6 362.68ZM1418.11 349.17C1419.47 347.303 1421.31 345.787 1423.64 344.62C1426.02 343.407 1428.66 342.8 1431.55 342.8C1434.96 342.8 1438.04 343.617 1440.79 345.25C1443.55 346.883 1445.72 349.217 1447.3 352.25C1448.89 355.237 1449.68 358.667 1449.68 362.54C1449.68 366.413 1448.89 369.89 1447.3 372.97C1445.72 376.003 1443.52 378.383 1440.72 380.11C1437.97 381.79 1434.91 382.63 1431.55 382.63C1428.57 382.63 1425.91 382.047 1423.57 380.88C1421.29 379.713 1419.47 378.22 1418.11 376.4V382H1410.13V330.2H1418.11V349.17ZM1441.56 362.54C1441.56 359.88 1441 357.593 1439.88 355.68C1438.81 353.72 1437.36 352.25 1435.54 351.27C1433.77 350.243 1431.86 349.73 1429.8 349.73C1427.8 349.73 1425.88 350.243 1424.06 351.27C1422.29 352.297 1420.84 353.79 1419.72 355.75C1418.65 357.71 1418.11 360.02 1418.11 362.68C1418.11 365.34 1418.65 367.673 1419.72 369.68C1420.84 371.64 1422.29 373.133 1424.06 374.16C1425.88 375.187 1427.8 375.7 1429.8 375.7C1431.86 375.7 1433.77 375.187 1435.54 374.16C1437.36 373.087 1438.81 371.547 1439.88 369.54C1441 367.533 1441.56 365.2 1441.56 362.54ZM1474.3 382.63C1470.66 382.63 1467.37 381.813 1464.43 380.18C1461.49 378.5 1459.18 376.167 1457.5 373.18C1455.82 370.147 1454.98 366.647 1454.98 362.68C1454.98 358.76 1455.85 355.283 1457.57 352.25C1459.3 349.217 1461.66 346.883 1464.64 345.25C1467.63 343.617 1470.97 342.8 1474.65 342.8C1478.34 342.8 1481.68 343.617 1484.66 345.25C1487.65 346.883 1490.01 349.217 1491.73 352.25C1493.46 355.283 1494.32 358.76 1494.32 362.68C1494.32 366.6 1493.44 370.077 1491.66 373.11C1489.89 376.143 1487.46 378.5 1484.38 380.18C1481.35 381.813 1477.99 382.63 1474.3 382.63ZM1474.3 375.7C1476.36 375.7 1478.27 375.21 1480.04 374.23C1481.86 373.25 1483.33 371.78 1484.45 369.82C1485.57 367.86 1486.13 365.48 1486.13 362.68C1486.13 359.88 1485.6 357.523 1484.52 355.61C1483.45 353.65 1482.03 352.18 1480.25 351.2C1478.48 350.22 1476.57 349.73 1474.51 349.73C1472.46 349.73 1470.55 350.22 1468.77 351.2C1467.05 352.18 1465.67 353.65 1464.64 355.61C1463.62 357.523 1463.1 359.88 1463.1 362.68C1463.1 366.833 1464.15 370.053 1466.25 372.34C1468.4 374.58 1471.08 375.7 1474.3 375.7ZM1510.19 349.03C1511.36 347.07 1512.9 345.553 1514.81 344.48C1516.77 343.36 1519.08 342.8 1521.74 342.8V351.06H1519.71C1516.59 351.06 1514.21 351.853 1512.57 353.44C1510.99 355.027 1510.19 357.78 1510.19 361.7V382H1502.21V343.43H1510.19V349.03ZM1526.42 362.54C1526.42 358.667 1527.21 355.237 1528.8 352.25C1530.43 349.263 1532.62 346.953 1535.38 345.32C1538.18 343.64 1541.26 342.8 1544.62 342.8C1547.65 342.8 1550.29 343.407 1552.53 344.62C1554.81 345.787 1556.63 347.257 1557.99 349.03V343.43H1566.04V382H1557.99V376.26C1556.63 378.08 1554.79 379.597 1552.46 380.81C1550.12 382.023 1547.46 382.63 1544.48 382.63C1541.16 382.63 1538.13 381.79 1535.38 380.11C1532.62 378.383 1530.43 376.003 1528.8 372.97C1527.21 369.89 1526.42 366.413 1526.42 362.54ZM1557.99 362.68C1557.99 360.02 1557.43 357.71 1556.31 355.75C1555.23 353.79 1553.81 352.297 1552.04 351.27C1550.26 350.243 1548.35 349.73 1546.3 349.73C1544.24 349.73 1542.33 350.243 1540.56 351.27C1538.78 352.25 1537.34 353.72 1536.22 355.68C1535.14 357.593 1534.61 359.88 1534.61 362.54C1534.61 365.2 1535.14 367.533 1536.22 369.54C1537.34 371.547 1538.78 373.087 1540.56 374.16C1542.38 375.187 1544.29 375.7 1546.3 375.7C1548.35 375.7 1550.26 375.187 1552.04 374.16C1553.81 373.133 1555.23 371.64 1556.31 369.68C1557.43 367.673 1557.99 365.34 1557.99 362.68ZM1585.83 349.94V371.29C1585.83 372.737 1586.16 373.787 1586.81 374.44C1587.51 375.047 1588.68 375.35 1590.31 375.35H1595.21V382H1588.91C1585.32 382 1582.56 381.16 1580.65 379.48C1578.74 377.8 1577.78 375.07 1577.78 371.29V349.94H1573.23V343.43H1577.78V333.84H1585.83V343.43H1595.21V349.94H1585.83ZM1606.62 338.32C1605.18 338.32 1603.96 337.83 1602.98 336.85C1602 335.87 1601.51 334.657 1601.51 333.21C1601.51 331.763 1602 330.55 1602.98 329.57C1603.96 328.59 1605.18 328.1 1606.62 328.1C1608.02 328.1 1609.21 328.59 1610.19 329.57C1611.17 330.55 1611.66 331.763 1611.66 333.21C1611.66 334.657 1611.17 335.87 1610.19 336.85C1609.21 337.83 1608.02 338.32 1606.62 338.32ZM1610.54 343.43V382H1602.56V343.43H1610.54ZM1637.75 382.63C1634.11 382.63 1630.82 381.813 1627.88 380.18C1624.94 378.5 1622.63 376.167 1620.95 373.18C1619.27 370.147 1618.43 366.647 1618.43 362.68C1618.43 358.76 1619.29 355.283 1621.02 352.25C1622.75 349.217 1625.1 346.883 1628.09 345.25C1631.08 343.617 1634.41 342.8 1638.1 342.8C1641.79 342.8 1645.12 343.617 1648.11 345.25C1651.1 346.883 1653.45 349.217 1655.18 352.25C1656.91 355.283 1657.77 358.76 1657.77 362.68C1657.77 366.6 1656.88 370.077 1655.11 373.11C1653.34 376.143 1650.91 378.5 1647.83 380.18C1644.8 381.813 1641.44 382.63 1637.75 382.63ZM1637.75 375.7C1639.8 375.7 1641.72 375.21 1643.49 374.23C1645.31 373.25 1646.78 371.78 1647.9 369.82C1649.02 367.86 1649.58 365.48 1649.58 362.68C1649.58 359.88 1649.04 357.523 1647.97 355.61C1646.9 353.65 1645.47 352.18 1643.7 351.2C1641.93 350.22 1640.01 349.73 1637.96 349.73C1635.91 349.73 1633.99 350.22 1632.22 351.2C1630.49 352.18 1629.12 353.65 1628.09 355.61C1627.06 357.523 1626.55 359.88 1626.55 362.68C1626.55 366.833 1627.6 370.053 1629.7 372.34C1631.85 374.58 1634.53 375.7 1637.75 375.7ZM1685.12 342.8C1688.15 342.8 1690.86 343.43 1693.24 344.69C1695.67 345.95 1697.56 347.817 1698.91 350.29C1700.26 352.763 1700.94 355.75 1700.94 359.25V382H1693.03V360.44C1693.03 356.987 1692.17 354.35 1690.44 352.53C1688.71 350.663 1686.36 349.73 1683.37 349.73C1680.38 349.73 1678 350.663 1676.23 352.53C1674.5 354.35 1673.64 356.987 1673.64 360.44V382H1665.66V343.43H1673.64V347.84C1674.95 346.253 1676.6 345.017 1678.61 344.13C1680.66 343.243 1682.83 342.8 1685.12 342.8ZM1079.56 426.94V448.29C1079.56 449.737 1079.89 450.787 1080.54 451.44C1081.24 452.047 1082.41 452.35 1084.04 452.35H1088.94V459H1082.64C1079.05 459 1076.29 458.16 1074.38 456.48C1072.47 454.8 1071.51 452.07 1071.51 448.29V426.94H1066.96V420.43H1071.51V410.84H1079.56V420.43H1088.94V426.94H1079.56ZM1113.02 459.63C1109.38 459.63 1106.09 458.813 1103.15 457.18C1100.21 455.5 1097.9 453.167 1096.22 450.18C1094.54 447.147 1093.7 443.647 1093.7 439.68C1093.7 435.76 1094.57 432.283 1096.29 429.25C1098.02 426.217 1100.38 423.883 1103.36 422.25C1106.35 420.617 1109.69 419.8 1113.37 419.8C1117.06 419.8 1120.4 420.617 1123.38 422.25C1126.37 423.883 1128.73 426.217 1130.45 429.25C1132.18 432.283 1133.04 435.76 1133.04 439.68C1133.04 443.6 1132.16 447.077 1130.38 450.11C1128.61 453.143 1126.18 455.5 1123.1 457.18C1120.07 458.813 1116.71 459.63 1113.02 459.63ZM1113.02 452.7C1115.08 452.7 1116.99 452.21 1118.76 451.23C1120.58 450.25 1122.05 448.78 1123.17 446.82C1124.29 444.86 1124.85 442.48 1124.85 439.68C1124.85 436.88 1124.32 434.523 1123.24 432.61C1122.17 430.65 1120.75 429.18 1118.97 428.2C1117.2 427.22 1115.29 426.73 1113.23 426.73C1111.18 426.73 1109.27 427.22 1107.49 428.2C1105.77 429.18 1104.39 430.65 1103.36 432.61C1102.34 434.523 1101.82 436.88 1101.82 439.68C1101.82 443.833 1102.87 447.053 1104.97 449.34C1107.12 451.58 1109.8 452.7 1113.02 452.7ZM1157.66 459.63C1154.02 459.63 1150.73 458.813 1147.79 457.18C1144.85 455.5 1142.54 453.167 1140.86 450.18C1139.18 447.147 1138.34 443.647 1138.34 439.68C1138.34 435.76 1139.21 432.283 1140.93 429.25C1142.66 426.217 1145.02 423.883 1148 422.25C1150.99 420.617 1154.33 419.8 1158.01 419.8C1161.7 419.8 1165.04 420.617 1168.02 422.25C1171.01 423.883 1173.37 426.217 1175.09 429.25C1176.82 432.283 1177.68 435.76 1177.68 439.68C1177.68 443.6 1176.8 447.077 1175.02 450.11C1173.25 453.143 1170.82 455.5 1167.74 457.18C1164.71 458.813 1161.35 459.63 1157.66 459.63ZM1157.66 452.7C1159.72 452.7 1161.63 452.21 1163.4 451.23C1165.22 450.25 1166.69 448.78 1167.81 446.82C1168.93 444.86 1169.49 442.48 1169.49 439.68C1169.49 436.88 1168.96 434.523 1167.88 432.61C1166.81 430.65 1165.39 429.18 1163.61 428.2C1161.84 427.22 1159.93 426.73 1157.87 426.73C1155.82 426.73 1153.91 427.22 1152.13 428.2C1150.41 429.18 1149.03 430.65 1148 432.61C1146.98 434.523 1146.46 436.88 1146.46 439.68C1146.46 443.833 1147.51 447.053 1149.61 449.34C1151.76 451.58 1154.44 452.7 1157.66 452.7ZM1193.55 407.2V459H1185.57V407.2H1193.55ZM1218.03 459.63C1215 459.63 1212.27 459.093 1209.84 458.02C1207.46 456.9 1205.57 455.407 1204.17 453.54C1202.77 451.627 1202.02 449.503 1201.93 447.17H1210.19C1210.33 448.803 1211.1 450.18 1212.5 451.3C1213.95 452.373 1215.74 452.91 1217.89 452.91C1220.13 452.91 1221.86 452.49 1223.07 451.65C1224.33 450.763 1224.96 449.643 1224.96 448.29C1224.96 446.843 1224.26 445.77 1222.86 445.07C1221.51 444.37 1219.34 443.6 1216.35 442.76C1213.46 441.967 1211.1 441.197 1209.28 440.45C1207.46 439.703 1205.87 438.56 1204.52 437.02C1203.21 435.48 1202.56 433.45 1202.56 430.93C1202.56 428.877 1203.17 427.01 1204.38 425.33C1205.59 423.603 1207.32 422.25 1209.56 421.27C1211.85 420.29 1214.46 419.8 1217.4 419.8C1221.79 419.8 1225.31 420.92 1227.97 423.16C1230.68 425.353 1232.12 428.363 1232.31 432.19H1224.33C1224.19 430.463 1223.49 429.087 1222.23 428.06C1220.97 427.033 1219.27 426.52 1217.12 426.52C1215.02 426.52 1213.41 426.917 1212.29 427.71C1211.17 428.503 1210.61 429.553 1210.61 430.86C1210.61 431.887 1210.98 432.75 1211.73 433.45C1212.48 434.15 1213.39 434.71 1214.46 435.13C1215.53 435.503 1217.12 435.993 1219.22 436.6C1222.02 437.347 1224.31 438.117 1226.08 438.91C1227.9 439.657 1229.46 440.777 1230.77 442.27C1232.08 443.763 1232.75 445.747 1232.8 448.22C1232.8 450.413 1232.19 452.373 1230.98 454.1C1229.77 455.827 1228.04 457.18 1225.8 458.16C1223.61 459.14 1221.02 459.63 1218.03 459.63ZM1294.96 438.77C1294.96 440.217 1294.86 441.523 1294.68 442.69H1265.21C1265.44 445.77 1266.58 448.243 1268.64 450.11C1270.69 451.977 1273.21 452.91 1276.2 452.91C1280.49 452.91 1283.52 451.113 1285.3 447.52H1293.91C1292.74 451.067 1290.62 453.983 1287.54 456.27C1284.5 458.51 1280.72 459.63 1276.2 459.63C1272.51 459.63 1269.2 458.813 1266.26 457.18C1263.36 455.5 1261.08 453.167 1259.4 450.18C1257.76 447.147 1256.95 443.647 1256.95 439.68C1256.95 435.713 1257.74 432.237 1259.33 429.25C1260.96 426.217 1263.22 423.883 1266.12 422.25C1269.06 420.617 1272.42 419.8 1276.2 419.8C1279.84 419.8 1283.08 420.593 1285.93 422.18C1288.77 423.767 1290.99 426.007 1292.58 428.9C1294.16 431.747 1294.96 435.037 1294.96 438.77ZM1286.63 436.25C1286.58 433.31 1285.53 430.953 1283.48 429.18C1281.42 427.407 1278.88 426.52 1275.85 426.52C1273.09 426.52 1270.74 427.407 1268.78 429.18C1266.82 430.907 1265.65 433.263 1265.28 436.25H1286.63ZM1317.72 451.86L1328.64 420.43H1337.11L1322.41 459H1312.89L1298.26 420.43H1306.8L1317.72 451.86ZM1378.49 438.77C1378.49 440.217 1378.4 441.523 1378.21 442.69H1348.74C1348.97 445.77 1350.12 448.243 1352.17 450.11C1354.22 451.977 1356.74 452.91 1359.73 452.91C1364.02 452.91 1367.06 451.113 1368.83 447.52H1377.44C1376.27 451.067 1374.15 453.983 1371.07 456.27C1368.04 458.51 1364.26 459.63 1359.73 459.63C1356.04 459.63 1352.73 458.813 1349.79 457.18C1346.9 455.5 1344.61 453.167 1342.93 450.18C1341.3 447.147 1340.48 443.647 1340.48 439.68C1340.48 435.713 1341.27 432.237 1342.86 429.25C1344.49 426.217 1346.76 423.883 1349.65 422.25C1352.59 420.617 1355.95 419.8 1359.73 419.8C1363.37 419.8 1366.61 420.593 1369.46 422.18C1372.31 423.767 1374.52 426.007 1376.11 428.9C1377.7 431.747 1378.49 435.037 1378.49 438.77ZM1370.16 436.25C1370.11 433.31 1369.06 430.953 1367.01 429.18C1364.96 427.407 1362.41 426.52 1359.38 426.52C1356.63 426.52 1354.27 427.407 1352.31 429.18C1350.35 430.907 1349.18 433.263 1348.81 436.25H1370.16ZM1394.32 426.03C1395.49 424.07 1397.03 422.553 1398.94 421.48C1400.9 420.36 1403.21 419.8 1405.87 419.8V428.06H1403.84C1400.72 428.06 1398.34 428.853 1396.7 430.44C1395.12 432.027 1394.32 434.78 1394.32 438.7V459H1386.34V420.43H1394.32V426.03ZM1423.22 410.35L1422.31 444.3H1415.66L1414.75 410.35H1423.22ZM1419.23 459.49C1417.78 459.49 1416.57 459 1415.59 458.02C1414.61 457.04 1414.12 455.827 1414.12 454.38C1414.12 452.933 1414.61 451.72 1415.59 450.74C1416.57 449.76 1417.78 449.27 1419.23 449.27C1420.63 449.27 1421.82 449.76 1422.8 450.74C1423.78 451.72 1424.27 452.933 1424.27 454.38C1424.27 455.827 1423.78 457.04 1422.8 458.02C1421.82 459 1420.63 459.49 1419.23 459.49Z" fill="black"/>
<defs>
<filter id="filter0_ddiiii_0_1" x="-9.19995" y="-12.3" width="896.105" height="256.7" filterUnits="userSpaceOnUse" color-interpolation-filters="sRGB">
<feFlood flood-opacity="0" result="BackgroundImageFix"/>
<feColorMatrix in="SourceAlpha" type="matrix" values="0 0 0 0 0 0 0 0 0 0 0 0 0 0 0 0 0 0 127 0" result="hardAlpha"/>
<feOffset dx="-1" dy="-1"/>
<feGaussianBlur stdDeviation="1"/>
<feColorMatrix type="matrix" values="0 0 0 0 0.556863 0 0 0 0 0.403922 0 0 0 0 0.0862745 0 0 0 0.5 0"/>
<feBlend mode="normal" in2="BackgroundImageFix" result="effect1_dropShadow_0_1"/>
<feColorMatrix in="SourceAlpha" type="matrix" values="0 0 0 0 0 0 0 0 0 0 0 0 0 0 0 0 0 0 127 0" result="hardAlpha"/>
<feOffset dx="1" dy="1"/>
<feGaussianBlur stdDeviation="1"/>
<feColorMatrix type="matrix" values="0 0 0 0 1 0 0 0 0 1 0 0 0 0 0.219608 0 0 0 0.3 0"/>
<feBlend mode="normal" in2="effect1_dropShadow_0_1" result="effect2_dropShadow_0_1"/>
<feBlend mode="normal" in="SourceGraphic" in2="effect2_dropShadow_0_1" result="shape"/>
<feColorMatrix in="SourceAlpha" type="matrix" values="0 0 0 0 0 0 0 0 0 0 0 0 0 0 0 0 0 0 127 0" result="hardAlpha"/>
<feOffset dx="16" dy="16"/>
<feGaussianBlur stdDeviation="20"/>
<feComposite in2="hardAlpha" operator="arithmetic" k2="-1" k3="1"/>
<feColorMatrix type="matrix" values="0 0 0 0 0.556863 0 0 0 0 0.403922 0 0 0 0 0.0862745 0 0 0 0.9 0"/>
<feBlend mode="normal" in2="shape" result="effect3_innerShadow_0_1"/>
<feColorMatrix in="SourceAlpha" type="matrix" values="0 0 0 0 0 0 0 0 0 0 0 0 0 0 0 0 0 0 127 0" result="hardAlpha"/>
<feOffset dx="-16" dy="-16"/>
<feGaussianBlur stdDeviation="16"/>
<feComposite in2="hardAlpha" operator="arithmetic" k2="-1" k3="1"/>
<feColorMatrix type="matrix" values="0 0 0 0 1 0 0 0 0 1 0 0 0 0 0.219608 0 0 0 0.9 0"/>
<feBlend mode="normal" in2="effect3_innerShadow_0_1" result="effect4_innerShadow_0_1"/>
<feColorMatrix in="SourceAlpha" type="matrix" values="0 0 0 0 0 0 0 0 0 0 0 0 0 0 0 0 0 0 127 0" result="hardAlpha"/>
<feOffset dx="16" dy="-16"/>
<feGaussianBlur stdDeviation="16"/>
<feComposite in2="hardAlpha" operator="arithmetic" k2="-1" k3="1"/>
<feColorMatrix type="matrix" values="0 0 0 0 0.556863 0 0 0 0 0.403922 0 0 0 0 0.0862745 0 0 0 0.2 0"/>
<feBlend mode="normal" in2="effect4_innerShadow_0_1" result="effect5_innerShadow_0_1"/>
<feColorMatrix in="SourceAlpha" type="matrix" values="0 0 0 0 0 0 0 0 0 0 0 0 0 0 0 0 0 0 127 0" result="hardAlpha"/>
<feOffset dx="-16" dy="16"/>
<feGaussianBlur stdDeviation="16"/>
<feComposite in2="hardAlpha" operator="arithmetic" k2="-1" k3="1"/>
<feColorMatrix type="matrix" values="0 0 0 0 0.556863 0 0 0 0 0.403922 0 0 0 0 0.0862745 0 0 0 0.2 0"/>
<feBlend mode="normal" in2="effect5_innerShadow_0_1" result="effect6_innerShadow_0_1"/>
</filter>
</defs>
</svg>
