<svg width="880" height="540" viewBox="0 0 880 540" fill="none" xmlns="http://www.w3.org/2000/svg">
<path d="M74.8 539.4C61.6 539.4 49.4667 536.333 38.4 530.2C27.4667 524.067 18.7333 515.533 12.2 504.6C5.8 493.533 2.6 481.133 2.6 467.4C2.6 453.667 5.8 441.333 12.2 430.4C18.7333 419.467 27.4667 410.933 38.4 404.8C49.4667 398.667 61.6 395.6 74.8 395.6C88 395.6 100.067 398.667 111 404.8C122.067 410.933 130.733 419.467 137 430.4C143.4 441.333 146.6 453.667 146.6 467.4C146.6 481.133 143.4 493.533 137 504.6C130.6 515.533 121.933 524.067 111 530.2C100.067 536.333 88 539.4 74.8 539.4ZM74.8 508.2C86 508.2 94.9333 504.467 101.6 497C108.4 489.533 111.8 479.667 111.8 467.4C111.8 455 108.4 445.133 101.6 437.8C94.9333 430.333 86 426.6 74.8 426.6C63.4667 426.6 54.4 430.267 47.6 437.6C40.9333 444.933 37.6 454.867 37.6 467.4C37.6 479.8 40.9333 489.733 47.6 497.2C54.4 504.533 63.4667 508.2 74.8 508.2ZM291.227 538H257.027L199.827 451.4V538H165.627V397.6H199.827L257.027 484.6V397.6H291.227V538ZM436.417 397.6L387.817 491.6V538H353.617V491.6L305.017 397.6H343.817L371.017 456.4L398.017 397.6H436.417ZM536.197 538L507.597 495L482.397 538H443.597L488.597 466.6L442.597 397.6H482.397L510.597 440L535.397 397.6H574.197L529.597 468.4L575.997 538H536.197Z" fill="#21209C"/>
<g opacity="0.2" filter="url(#filter0_ddiiii_0_1)">
<path d="M202.1 14.5V226H143.3V141.1H71.6V226H12.8V14.5H71.6V94H143.3V14.5H202.1ZM396.549 139.9C396.549 144.5 396.249 149.1 395.649 153.7H284.349C284.949 162.9 287.449 169.8 291.849 174.4C296.449 178.8 302.249 181 309.249 181C319.049 181 326.049 176.6 330.249 167.8H392.949C390.349 179.4 385.249 189.8 377.649 199C370.249 208 360.849 215.1 349.449 220.3C338.049 225.5 325.449 228.1 311.649 228.1C295.049 228.1 280.249 224.6 267.249 217.6C254.449 210.6 244.349 200.6 236.949 187.6C229.749 174.6 226.149 159.3 226.149 141.7C226.149 124.1 229.749 108.9 236.949 96.1C244.149 83.1 254.149 73.1 266.949 66.1C279.949 59.1 294.849 55.6 311.649 55.6C328.249 55.6 342.949 59 355.749 65.8C368.549 72.6 378.549 82.4 385.749 95.2C392.949 107.8 396.549 122.7 396.549 139.9ZM336.549 125.2C336.549 118 334.149 112.4 329.349 108.4C324.549 104.2 318.549 102.1 311.349 102.1C304.149 102.1 298.249 104.1 293.649 108.1C289.049 111.9 286.049 117.6 284.649 125.2H336.549ZM479.413 4V226H420.613V4H479.413ZM571.698 4V226H512.898V4H571.698ZM683.483 228.1C666.683 228.1 651.583 224.6 638.183 217.6C624.983 210.6 614.583 200.6 606.983 187.6C599.383 174.6 595.583 159.3 595.583 141.7C595.583 124.3 599.383 109.1 606.983 96.1C614.783 83.1 625.283 73.1 638.483 66.1C651.883 59.1 666.983 55.6 683.783 55.6C700.583 55.6 715.583 59.1 728.783 66.1C742.183 73.1 752.683 83.1 760.283 96.1C768.083 109.1 771.983 124.3 771.983 141.7C771.983 159.1 768.083 174.4 760.283 187.6C752.683 200.6 742.183 210.6 728.783 217.6C715.383 224.6 700.283 228.1 683.483 228.1ZM683.483 177.1C691.683 177.1 698.483 174.1 703.883 168.1C709.483 161.9 712.283 153.1 712.283 141.7C712.283 130.3 709.483 121.6 703.883 115.6C698.483 109.6 691.783 106.6 683.783 106.6C675.783 106.6 669.083 109.6 663.683 115.6C658.283 121.6 655.583 130.3 655.583 141.7C655.583 153.3 658.183 162.1 663.383 168.1C668.583 174.1 675.283 177.1 683.483 177.1ZM874.505 3.69998L867.605 146.8H817.505L810.605 3.69998H874.505ZM842.705 228.4C832.305 228.4 823.905 225.6 817.505 220C811.305 214.2 808.205 206.9 808.205 198.1C808.205 189.3 811.305 182 817.505 176.2C823.905 170.4 832.305 167.5 842.705 167.5C852.905 167.5 861.105 170.4 867.305 176.2C873.705 182 876.905 189.3 876.905 198.1C876.905 206.7 873.705 213.9 867.305 219.7C861.105 225.5 852.905 228.4 842.705 228.4Z" fill="#FDB827"/>
</g>
<path d="M196.4 209.4L157.4 349H124.4L98.2 249.6L70.8 349L38 349.2L0.4 209.4H30.4L55 317.8L83.4 209.4H114.6L141.4 317.2L166.2 209.4H196.4ZM317.683 291.2C317.683 295.2 317.416 298.8 316.883 302H235.883C236.549 310 239.349 316.267 244.283 320.8C249.216 325.333 255.283 327.6 262.483 327.6C272.883 327.6 280.283 323.133 284.683 314.2H314.883C311.683 324.867 305.549 333.667 296.483 340.6C287.416 347.4 276.283 350.8 263.083 350.8C252.416 350.8 242.816 348.467 234.283 343.8C225.883 339 219.283 332.267 214.483 323.6C209.816 314.933 207.483 304.933 207.483 293.6C207.483 282.133 209.816 272.067 214.483 263.4C219.149 254.733 225.683 248.067 234.083 243.4C242.483 238.733 252.149 236.4 263.083 236.4C273.616 236.4 283.016 238.667 291.283 243.2C299.683 247.733 306.149 254.2 310.683 262.6C315.349 270.867 317.683 280.4 317.683 291.2ZM288.683 283.2C288.549 276 285.949 270.267 280.883 266C275.816 261.6 269.616 259.4 262.283 259.4C255.349 259.4 249.483 261.533 244.683 265.8C240.016 269.933 237.149 275.733 236.083 283.2H288.683ZM378.577 293.2C378.577 282 380.777 272.067 385.177 263.4C389.71 254.733 395.777 248.067 403.377 243.4C411.11 238.733 419.71 236.4 429.177 236.4C437.443 236.4 444.643 238.067 450.777 241.4C457.043 244.733 462.043 248.933 465.777 254V238.2H493.977V349H465.777V332.8C462.177 338 457.177 342.333 450.777 345.8C444.51 349.133 437.243 350.8 428.977 350.8C419.643 350.8 411.11 348.4 403.377 343.6C395.777 338.8 389.71 332.067 385.177 323.4C380.777 314.6 378.577 304.533 378.577 293.2ZM465.777 293.6C465.777 286.8 464.443 281 461.777 276.2C459.11 271.267 455.51 267.533 450.977 265C446.443 262.333 441.577 261 436.377 261C431.177 261 426.377 262.267 421.977 264.8C417.577 267.333 413.977 271.067 411.177 276C408.51 280.8 407.177 286.533 407.177 293.2C407.177 299.867 408.51 305.733 411.177 310.8C413.977 315.733 417.577 319.533 421.977 322.2C426.51 324.867 431.31 326.2 436.377 326.2C441.577 326.2 446.443 324.933 450.977 322.4C455.51 319.733 459.11 316 461.777 311.2C464.443 306.267 465.777 300.4 465.777 293.6ZM549.323 255.4C552.923 249.533 557.59 244.933 563.323 241.6C569.19 238.267 575.857 236.6 583.323 236.6V266H575.923C567.123 266 560.457 268.067 555.923 272.2C551.523 276.333 549.323 283.533 549.323 293.8V349H521.323V238.2H549.323V255.4ZM705.183 291.2C705.183 295.2 704.916 298.8 704.383 302H623.383C624.049 310 626.849 316.267 631.783 320.8C636.716 325.333 642.783 327.6 649.983 327.6C660.383 327.6 667.783 323.133 672.183 314.2H702.383C699.183 324.867 693.049 333.667 683.983 340.6C674.916 347.4 663.783 350.8 650.583 350.8C639.916 350.8 630.316 348.467 621.783 343.8C613.383 339 606.783 332.267 601.983 323.6C597.316 314.933 594.983 304.933 594.983 293.6C594.983 282.133 597.316 272.067 601.983 263.4C606.649 254.733 613.183 248.067 621.583 243.4C629.983 238.733 639.649 236.4 650.583 236.4C661.116 236.4 670.516 238.667 678.783 243.2C687.183 247.733 693.649 254.2 698.183 262.6C702.849 270.867 705.183 280.4 705.183 291.2ZM676.183 283.2C676.049 276 673.449 270.267 668.383 266C663.316 261.6 657.116 259.4 649.783 259.4C642.849 259.4 636.983 261.533 632.183 265.8C627.516 269.933 624.649 275.733 623.583 283.2H676.183Z" fill="black"/>
<defs>
<filter id="filter0_ddiiii_0_1" x="6.80005" y="-2.30002" width="876.105" height="236.7" filterUnits="userSpaceOnUse" color-interpolation-filters="sRGB">
<feFlood flood-opacity="0" result="BackgroundImageFix"/>
<feColorMatrix in="SourceAlpha" type="matrix" values="0 0 0 0 0 0 0 0 0 0 0 0 0 0 0 0 0 0 127 0" result="hardAlpha"/>
<feOffset dx="-1" dy="-1"/>
<feGaussianBlur stdDeviation="1"/>
<feColorMatrix type="matrix" values="0 0 0 0 0.901961 0 0 0 0 0.654902 0 0 0 0 0.137255 0 0 0 0.5 0"/>
<feBlend mode="normal" in2="BackgroundImageFix" result="effect1_dropShadow_0_1"/>
<feColorMatrix in="SourceAlpha" type="matrix" values="0 0 0 0 0 0 0 0 0 0 0 0 0 0 0 0 0 0 127 0" result="hardAlpha"/>
<feOffset dx="1" dy="1"/>
<feGaussianBlur stdDeviation="1"/>
<feColorMatrix type="matrix" values="0 0 0 0 1 0 0 0 0 0.788235 0 0 0 0 0.168627 0 0 0 0.3 0"/>
<feBlend mode="normal" in2="effect1_dropShadow_0_1" result="effect2_dropShadow_0_1"/>
<feBlend mode="normal" in="SourceGraphic" in2="effect2_dropShadow_0_1" result="shape"/>
<feColorMatrix in="SourceAlpha" type="matrix" values="0 0 0 0 0 0 0 0 0 0 0 0 0 0 0 0 0 0 127 0" result="hardAlpha"/>
<feOffset dx="6" dy="6"/>
<feGaussianBlur stdDeviation="7.5"/>
<feComposite in2="hardAlpha" operator="arithmetic" k2="-1" k3="1"/>
<feColorMatrix type="matrix" values="0 0 0 0 0.901961 0 0 0 0 0.654902 0 0 0 0 0.137255 0 0 0 0.9 0"/>
<feBlend mode="normal" in2="shape" result="effect3_innerShadow_0_1"/>
<feColorMatrix in="SourceAlpha" type="matrix" values="0 0 0 0 0 0 0 0 0 0 0 0 0 0 0 0 0 0 127 0" result="hardAlpha"/>
<feOffset dx="-6" dy="-6"/>
<feGaussianBlur stdDeviation="6"/>
<feComposite in2="hardAlpha" operator="arithmetic" k2="-1" k3="1"/>
<feColorMatrix type="matrix" values="0 0 0 0 1 0 0 0 0 0.788235 0 0 0 0 0.168627 0 0 0 0.9 0"/>
<feBlend mode="normal" in2="effect3_innerShadow_0_1" result="effect4_innerShadow_0_1"/>
<feColorMatrix in="SourceAlpha" type="matrix" values="0 0 0 0 0 0 0 0 0 0 0 0 0 0 0 0 0 0 127 0" result="hardAlpha"/>
<feOffset dx="6" dy="-6"/>
<feGaussianBlur stdDeviation="6"/>
<feComposite in2="hardAlpha" operator="arithmetic" k2="-1" k3="1"/>
<feColorMatrix type="matrix" values="0 0 0 0 0.901961 0 0 0 0 0.654902 0 0 0 0 0.137255 0 0 0 0.2 0"/>
<feBlend mode="normal" in2="effect4_innerShadow_0_1" result="effect5_innerShadow_0_1"/>
<feColorMatrix in="SourceAlpha" type="matrix" values="0 0 0 0 0 0 0 0 0 0 0 0 0 0 0 0 0 0 127 0" result="hardAlpha"/>
<feOffset dx="-6" dy="6"/>
<feGaussianBlur stdDeviation="6"/>
<feComposite in2="hardAlpha" operator="arithmetic" k2="-1" k3="1"/>
<feColorMatrix type="matrix" values="0 0 0 0 0.901961 0 0 0 0 0.654902 0 0 0 0 0.137255 0 0 0 0.2 0"/>
<feBlend mode="normal" in2="effect5_innerShadow_0_1" result="effect6_innerShadow_0_1"/>
</filter>
</defs>
</svg>
