<svg width="615" height="478" viewBox="0 0 615 478" fill="none" xmlns="http://www.w3.org/2000/svg">
<g filter="url(#filter0_ddddii_653_86)">
<rect x="69" y="69" width="465" height="328" rx="20" fill="#C6C6C6"/>
<rect x="145" y="110" width="314" height="246" rx="4" fill="white"/>
<rect opacity="0.6" x="169" y="131" width="266" height="17" rx="8.5" fill="#939393" fill-opacity="0.4"/>
<rect opacity="0.6" x="169" y="187" width="186" height="29" rx="4" fill="#939393" fill-opacity="0.4"/>
<rect opacity="0.2" x="169" y="227" width="266" height="64" rx="4" fill="#939393" fill-opacity="0.4"/>
<rect opacity="0.6" x="169" y="164" width="104" height="13" rx="6.5" fill="#21209C"/>
<rect opacity="0.4" x="169" y="302" width="104" height="13" rx="6.5" fill="#D45B4A"/>
<rect opacity="0.2" x="169" y="325" width="266" height="13" rx="4" fill="#D45B4A"/>
<rect x="371" y="187" width="64" height="29" rx="4" fill="#21209C"/>
<path d="M189.7 202.665C189.7 202.975 189.68 203.255 189.64 203.505H183.325C183.375 204.165 183.62 204.695 184.06 205.095C184.5 205.495 185.04 205.695 185.68 205.695C186.6 205.695 187.25 205.31 187.63 204.54H189.475C189.225 205.3 188.77 205.925 188.11 206.415C187.46 206.895 186.65 207.135 185.68 207.135C184.89 207.135 184.18 206.96 183.55 206.61C182.93 206.25 182.44 205.75 182.08 205.11C181.73 204.46 181.555 203.71 181.555 202.86C181.555 202.01 181.725 201.265 182.065 200.625C182.415 199.975 182.9 199.475 183.52 199.125C184.15 198.775 184.87 198.6 185.68 198.6C186.46 198.6 187.155 198.77 187.765 199.11C188.375 199.45 188.85 199.93 189.19 200.55C189.53 201.16 189.7 201.865 189.7 202.665ZM187.915 202.125C187.905 201.495 187.68 200.99 187.24 200.61C186.8 200.23 186.255 200.04 185.605 200.04C185.015 200.04 184.51 200.23 184.09 200.61C183.67 200.98 183.42 201.485 183.34 202.125H187.915ZM194.923 202.815L197.593 207H195.658L193.873 204.195L192.193 207H190.408L193.078 202.935L190.408 198.735H192.343L194.128 201.54L195.808 198.735H197.593L194.923 202.815ZM198.298 202.83C198.298 202 198.468 201.265 198.808 200.625C199.158 199.985 199.628 199.49 200.218 199.14C200.818 198.78 201.478 198.6 202.198 198.6C202.848 198.6 203.413 198.73 203.893 198.99C204.383 199.24 204.773 199.555 205.063 199.935V198.735H206.788V207H205.063V205.77C204.773 206.16 204.378 206.485 203.878 206.745C203.378 207.005 202.808 207.135 202.168 207.135C201.458 207.135 200.808 206.955 200.218 206.595C199.628 206.225 199.158 205.715 198.808 205.065C198.468 204.405 198.298 203.66 198.298 202.83ZM205.063 202.86C205.063 202.29 204.943 201.795 204.703 201.375C204.473 200.955 204.168 200.635 203.788 200.415C203.408 200.195 202.998 200.085 202.558 200.085C202.118 200.085 201.708 200.195 201.328 200.415C200.948 200.625 200.638 200.94 200.398 201.36C200.168 201.77 200.053 202.26 200.053 202.83C200.053 203.4 200.168 203.9 200.398 204.33C200.638 204.76 200.948 205.09 201.328 205.32C201.718 205.54 202.128 205.65 202.558 205.65C202.998 205.65 203.408 205.54 203.788 205.32C204.168 205.1 204.473 204.78 204.703 204.36C204.943 203.93 205.063 203.43 205.063 202.86ZM219.039 198.6C219.689 198.6 220.269 198.735 220.779 199.005C221.299 199.275 221.704 199.675 221.994 200.205C222.294 200.735 222.444 201.375 222.444 202.125V207H220.749V202.38C220.749 201.64 220.564 201.075 220.194 200.685C219.824 200.285 219.319 200.085 218.679 200.085C218.039 200.085 217.529 200.285 217.149 200.685C216.779 201.075 216.594 201.64 216.594 202.38V207H214.899V202.38C214.899 201.64 214.714 201.075 214.344 200.685C213.974 200.285 213.469 200.085 212.829 200.085C212.189 200.085 211.679 200.285 211.299 200.685C210.929 201.075 210.744 201.64 210.744 202.38V207H209.034V198.735H210.744V199.68C211.024 199.34 211.379 199.075 211.809 198.885C212.239 198.695 212.699 198.6 213.189 198.6C213.849 198.6 214.439 198.74 214.959 199.02C215.479 199.3 215.879 199.705 216.159 200.235C216.409 199.735 216.799 199.34 217.329 199.05C217.859 198.75 218.429 198.6 219.039 198.6ZM226.33 199.95C226.62 199.57 227.015 199.25 227.515 198.99C228.015 198.73 228.58 198.6 229.21 198.6C229.93 198.6 230.585 198.78 231.175 199.14C231.775 199.49 232.245 199.985 232.585 200.625C232.925 201.265 233.095 202 233.095 202.83C233.095 203.66 232.925 204.405 232.585 205.065C232.245 205.715 231.775 206.225 231.175 206.595C230.585 206.955 229.93 207.135 229.21 207.135C228.58 207.135 228.02 207.01 227.53 206.76C227.04 206.5 226.64 206.18 226.33 205.8V210.93H224.62V198.735H226.33V199.95ZM231.355 202.83C231.355 202.26 231.235 201.77 230.995 201.36C230.765 200.94 230.455 200.625 230.065 200.415C229.685 200.195 229.275 200.085 228.835 200.085C228.405 200.085 227.995 200.195 227.605 200.415C227.225 200.635 226.915 200.955 226.675 201.375C226.445 201.795 226.33 202.29 226.33 202.86C226.33 203.43 226.445 203.93 226.675 204.36C226.915 204.78 227.225 205.1 227.605 205.32C227.995 205.54 228.405 205.65 228.835 205.65C229.275 205.65 229.685 205.54 230.065 205.32C230.455 205.09 230.765 204.76 230.995 204.33C231.235 203.9 231.355 203.4 231.355 202.83ZM236.496 195.9V207H234.786V195.9H236.496ZM246.316 202.665C246.316 202.975 246.296 203.255 246.256 203.505H239.941C239.991 204.165 240.236 204.695 240.676 205.095C241.116 205.495 241.656 205.695 242.296 205.695C243.216 205.695 243.866 205.31 244.246 204.54H246.091C245.841 205.3 245.386 205.925 244.726 206.415C244.076 206.895 243.266 207.135 242.296 207.135C241.506 207.135 240.796 206.96 240.166 206.61C239.546 206.25 239.056 205.75 238.696 205.11C238.346 204.46 238.171 203.71 238.171 202.86C238.171 202.01 238.341 201.265 238.681 200.625C239.031 199.975 239.516 199.475 240.136 199.125C240.766 198.775 241.486 198.6 242.296 198.6C243.076 198.6 243.771 198.77 244.381 199.11C244.991 199.45 245.466 199.93 245.806 200.55C246.146 201.16 246.316 201.865 246.316 202.665ZM244.531 202.125C244.521 201.495 244.296 200.99 243.856 200.61C243.416 200.23 242.871 200.04 242.221 200.04C241.631 200.04 241.126 200.23 240.706 200.61C240.286 200.98 240.036 201.485 239.956 202.125H244.531ZM255.694 197.31C256.834 197.31 257.819 197.52 258.649 197.94C259.479 198.36 260.109 198.95 260.539 199.71C260.979 200.46 261.199 201.335 261.199 202.335C261.199 203.135 261.059 203.9 260.779 204.63C260.509 205.36 260.114 205.955 259.594 206.415C259.084 206.875 258.479 207.105 257.779 207.105C257.269 207.105 256.869 206.995 256.579 206.775C256.289 206.545 256.109 206.225 256.039 205.815C255.729 206.215 255.339 206.53 254.869 206.76C254.399 206.99 253.909 207.105 253.399 207.105C252.629 207.105 252.024 206.875 251.584 206.415C251.154 205.945 250.939 205.31 250.939 204.51C250.939 203.75 251.094 203.04 251.404 202.38C251.724 201.72 252.169 201.195 252.739 200.805C253.309 200.405 253.949 200.205 254.659 200.205C255.529 200.205 256.139 200.5 256.489 201.09L256.624 200.34H258.109L257.359 204.63C257.329 204.84 257.314 205.025 257.314 205.185C257.314 205.445 257.364 205.64 257.464 205.77C257.574 205.9 257.764 205.965 258.034 205.965C258.414 205.965 258.739 205.78 259.009 205.41C259.279 205.03 259.479 204.565 259.609 204.015C259.749 203.465 259.819 202.93 259.819 202.41C259.819 201.14 259.449 200.17 258.709 199.5C257.969 198.83 256.894 198.495 255.484 198.495C254.304 198.495 253.244 198.775 252.304 199.335C251.374 199.895 250.644 200.665 250.114 201.645C249.584 202.625 249.319 203.715 249.319 204.915C249.319 206.195 249.699 207.17 250.459 207.84C251.219 208.51 252.304 208.845 253.714 208.845C254.664 208.845 255.494 208.67 256.204 208.32L256.429 209.46C255.519 209.85 254.499 210.045 253.369 210.045C252.279 210.045 251.324 209.84 250.504 209.43C249.684 209.02 249.049 208.435 248.599 207.675C248.149 206.925 247.924 206.05 247.924 205.05C247.924 203.62 248.254 202.315 248.914 201.135C249.584 199.955 250.509 199.025 251.689 198.345C252.869 197.655 254.204 197.31 255.694 197.31ZM253.924 205.785C254.344 205.785 254.724 205.665 255.064 205.425C255.414 205.175 255.689 204.85 255.889 204.45C256.089 204.04 256.189 203.605 256.189 203.145C256.189 202.665 256.054 202.275 255.784 201.975C255.524 201.665 255.154 201.51 254.674 201.51C254.244 201.51 253.864 201.645 253.534 201.915C253.214 202.175 252.964 202.515 252.784 202.935C252.614 203.355 252.529 203.795 252.529 204.255C252.529 204.725 252.644 205.1 252.874 205.38C253.104 205.65 253.454 205.785 253.924 205.785ZM270.955 202.665C270.955 202.975 270.935 203.255 270.895 203.505H264.58C264.63 204.165 264.875 204.695 265.315 205.095C265.755 205.495 266.295 205.695 266.935 205.695C267.855 205.695 268.505 205.31 268.885 204.54H270.73C270.48 205.3 270.025 205.925 269.365 206.415C268.715 206.895 267.905 207.135 266.935 207.135C266.145 207.135 265.435 206.96 264.805 206.61C264.185 206.25 263.695 205.75 263.335 205.11C262.985 204.46 262.81 203.71 262.81 202.86C262.81 202.01 262.98 201.265 263.32 200.625C263.67 199.975 264.155 199.475 264.775 199.125C265.405 198.775 266.125 198.6 266.935 198.6C267.715 198.6 268.41 198.77 269.02 199.11C269.63 199.45 270.105 199.93 270.445 200.55C270.785 201.16 270.955 201.865 270.955 202.665ZM269.17 202.125C269.16 201.495 268.935 200.99 268.495 200.61C268.055 200.23 267.51 200.04 266.86 200.04C266.27 200.04 265.765 200.23 265.345 200.61C264.925 200.98 264.675 201.485 264.595 202.125H269.17ZM282.643 198.6C283.293 198.6 283.873 198.735 284.383 199.005C284.903 199.275 285.308 199.675 285.598 200.205C285.898 200.735 286.048 201.375 286.048 202.125V207H284.353V202.38C284.353 201.64 284.168 201.075 283.798 200.685C283.428 200.285 282.923 200.085 282.283 200.085C281.643 200.085 281.133 200.285 280.753 200.685C280.383 201.075 280.198 201.64 280.198 202.38V207H278.503V202.38C278.503 201.64 278.318 201.075 277.948 200.685C277.578 200.285 277.073 200.085 276.433 200.085C275.793 200.085 275.283 200.285 274.903 200.685C274.533 201.075 274.348 201.64 274.348 202.38V207H272.638V198.735H274.348V199.68C274.628 199.34 274.983 199.075 275.413 198.885C275.843 198.695 276.303 198.6 276.793 198.6C277.453 198.6 278.043 198.74 278.563 199.02C279.083 199.3 279.483 199.705 279.763 200.235C280.013 199.735 280.403 199.34 280.933 199.05C281.463 198.75 282.033 198.6 282.643 198.6ZM287.654 202.83C287.654 202 287.824 201.265 288.164 200.625C288.514 199.985 288.984 199.49 289.574 199.14C290.174 198.78 290.834 198.6 291.554 198.6C292.204 198.6 292.769 198.73 293.249 198.99C293.739 199.24 294.129 199.555 294.419 199.935V198.735H296.144V207H294.419V205.77C294.129 206.16 293.734 206.485 293.234 206.745C292.734 207.005 292.164 207.135 291.524 207.135C290.814 207.135 290.164 206.955 289.574 206.595C288.984 206.225 288.514 205.715 288.164 205.065C287.824 204.405 287.654 203.66 287.654 202.83ZM294.419 202.86C294.419 202.29 294.299 201.795 294.059 201.375C293.829 200.955 293.524 200.635 293.144 200.415C292.764 200.195 292.354 200.085 291.914 200.085C291.474 200.085 291.064 200.195 290.684 200.415C290.304 200.625 289.994 200.94 289.754 201.36C289.524 201.77 289.409 202.26 289.409 202.83C289.409 203.4 289.524 203.9 289.754 204.33C289.994 204.76 290.304 205.09 290.684 205.32C291.074 205.54 291.484 205.65 291.914 205.65C292.354 205.65 292.764 205.54 293.144 205.32C293.524 205.1 293.829 204.78 294.059 204.36C294.299 203.93 294.419 203.43 294.419 202.86ZM299.26 197.64C298.95 197.64 298.69 197.535 298.48 197.325C298.27 197.115 298.165 196.855 298.165 196.545C298.165 196.235 298.27 195.975 298.48 195.765C298.69 195.555 298.95 195.45 299.26 195.45C299.56 195.45 299.815 195.555 300.025 195.765C300.235 195.975 300.34 196.235 300.34 196.545C300.34 196.855 300.235 197.115 300.025 197.325C299.815 197.535 299.56 197.64 299.26 197.64ZM300.1 198.735V207H298.39V198.735H300.1ZM304.055 195.9V207H302.345V195.9H304.055ZM306.99 207.105C306.68 207.105 306.42 207 306.21 206.79C306 206.58 305.895 206.32 305.895 206.01C305.895 205.7 306 205.44 306.21 205.23C306.42 205.02 306.68 204.915 306.99 204.915C307.29 204.915 307.545 205.02 307.755 205.23C307.965 205.44 308.07 205.7 308.07 206.01C308.07 206.32 307.965 206.58 307.755 206.79C307.545 207 307.29 207.105 306.99 207.105ZM309.348 202.86C309.348 202.01 309.518 201.265 309.858 200.625C310.208 199.975 310.688 199.475 311.298 199.125C311.908 198.775 312.608 198.6 313.398 198.6C314.398 198.6 315.223 198.84 315.873 199.32C316.533 199.79 316.978 200.465 317.208 201.345H315.363C315.213 200.935 314.973 200.615 314.643 200.385C314.313 200.155 313.898 200.04 313.398 200.04C312.698 200.04 312.138 200.29 311.718 200.79C311.308 201.28 311.103 201.97 311.103 202.86C311.103 203.75 311.308 204.445 311.718 204.945C312.138 205.445 312.698 205.695 313.398 205.695C314.388 205.695 315.043 205.26 315.363 204.39H317.208C316.968 205.23 316.518 205.9 315.858 206.4C315.198 206.89 314.378 207.135 313.398 207.135C312.608 207.135 311.908 206.96 311.298 206.61C310.688 206.25 310.208 205.75 309.858 205.11C309.518 204.46 309.348 203.71 309.348 202.86ZM322.497 207.135C321.717 207.135 321.012 206.96 320.382 206.61C319.752 206.25 319.257 205.75 318.897 205.11C318.537 204.46 318.357 203.71 318.357 202.86C318.357 202.02 318.542 201.275 318.912 200.625C319.282 199.975 319.787 199.475 320.427 199.125C321.067 198.775 321.782 198.6 322.572 198.6C323.362 198.6 324.077 198.775 324.717 199.125C325.357 199.475 325.862 199.975 326.232 200.625C326.602 201.275 326.787 202.02 326.787 202.86C326.787 203.7 326.597 204.445 326.217 205.095C325.837 205.745 325.317 206.25 324.657 206.61C324.007 206.96 323.287 207.135 322.497 207.135ZM322.497 205.65C322.937 205.65 323.347 205.545 323.727 205.335C324.117 205.125 324.432 204.81 324.672 204.39C324.912 203.97 325.032 203.46 325.032 202.86C325.032 202.26 324.917 201.755 324.687 201.345C324.457 200.925 324.152 200.61 323.772 200.4C323.392 200.19 322.982 200.085 322.542 200.085C322.102 200.085 321.692 200.19 321.312 200.4C320.942 200.61 320.647 200.925 320.427 201.345C320.207 201.755 320.097 202.26 320.097 202.86C320.097 203.75 320.322 204.44 320.772 204.93C321.232 205.41 321.807 205.65 322.497 205.65ZM338.483 198.6C339.133 198.6 339.713 198.735 340.223 199.005C340.743 199.275 341.148 199.675 341.438 200.205C341.738 200.735 341.888 201.375 341.888 202.125V207H340.193V202.38C340.193 201.64 340.008 201.075 339.638 200.685C339.268 200.285 338.763 200.085 338.123 200.085C337.483 200.085 336.973 200.285 336.593 200.685C336.223 201.075 336.038 201.64 336.038 202.38V207H334.343V202.38C334.343 201.64 334.158 201.075 333.788 200.685C333.418 200.285 332.913 200.085 332.273 200.085C331.633 200.085 331.123 200.285 330.743 200.685C330.373 201.075 330.188 201.64 330.188 202.38V207H328.478V198.735H330.188V199.68C330.468 199.34 330.823 199.075 331.253 198.885C331.683 198.695 332.143 198.6 332.633 198.6C333.293 198.6 333.883 198.74 334.403 199.02C334.923 199.3 335.323 199.705 335.603 200.235C335.853 199.735 336.243 199.34 336.773 199.05C337.303 198.75 337.873 198.6 338.483 198.6Z" fill="black"/>
<path opacity="0.6" d="M181.43 245.51C181.43 244.83 181.583 244.22 181.89 243.68C182.197 243.133 182.613 242.707 183.14 242.4C183.673 242.093 184.263 241.94 184.91 241.94C185.67 241.94 186.333 242.123 186.9 242.49C187.467 242.857 187.88 243.377 188.14 244.05H187.05C186.857 243.63 186.577 243.307 186.21 243.08C185.85 242.853 185.417 242.74 184.91 242.74C184.423 242.74 183.987 242.853 183.6 243.08C183.213 243.307 182.91 243.63 182.69 244.05C182.47 244.463 182.36 244.95 182.36 245.51C182.36 246.063 182.47 246.55 182.69 246.97C182.91 247.383 183.213 247.703 183.6 247.93C183.987 248.157 184.423 248.27 184.91 248.27C185.417 248.27 185.85 248.16 186.21 247.94C186.577 247.713 186.857 247.39 187.05 246.97H188.14C187.88 247.637 187.467 248.153 186.9 248.52C186.333 248.88 185.67 249.06 184.91 249.06C184.263 249.06 183.673 248.91 183.14 248.61C182.613 248.303 182.197 247.88 181.89 247.34C181.583 246.8 181.43 246.19 181.43 245.51ZM191.885 249.09C191.371 249.09 190.905 248.973 190.485 248.74C190.071 248.507 189.745 248.177 189.505 247.75C189.271 247.317 189.155 246.817 189.155 246.25C189.155 245.69 189.275 245.197 189.515 244.77C189.761 244.337 190.095 244.007 190.515 243.78C190.935 243.547 191.405 243.43 191.925 243.43C192.445 243.43 192.915 243.547 193.335 243.78C193.755 244.007 194.085 244.333 194.325 244.76C194.571 245.187 194.695 245.683 194.695 246.25C194.695 246.817 194.568 247.317 194.315 247.75C194.068 248.177 193.731 248.507 193.305 248.74C192.878 248.973 192.405 249.09 191.885 249.09ZM191.885 248.29C192.211 248.29 192.518 248.213 192.805 248.06C193.091 247.907 193.321 247.677 193.495 247.37C193.675 247.063 193.765 246.69 193.765 246.25C193.765 245.81 193.678 245.437 193.505 245.13C193.331 244.823 193.105 244.597 192.825 244.45C192.545 244.297 192.241 244.22 191.915 244.22C191.581 244.22 191.275 244.297 190.995 244.45C190.721 244.597 190.501 244.823 190.335 245.13C190.168 245.437 190.085 245.81 190.085 246.25C190.085 246.697 190.165 247.073 190.325 247.38C190.491 247.687 190.711 247.917 190.985 248.07C191.258 248.217 191.558 248.29 191.885 248.29ZM196.801 241.6V249H195.891V241.6H196.801ZM199.262 241.6V249H198.352V241.6H199.262ZM200.473 246.24C200.473 245.68 200.586 245.19 200.813 244.77C201.04 244.343 201.35 244.013 201.743 243.78C202.143 243.547 202.586 243.43 203.073 243.43C203.553 243.43 203.97 243.533 204.323 243.74C204.676 243.947 204.94 244.207 205.113 244.52V243.52H206.033V249H205.113V247.98C204.933 248.3 204.663 248.567 204.303 248.78C203.95 248.987 203.536 249.09 203.063 249.09C202.576 249.09 202.136 248.97 201.743 248.73C201.35 248.49 201.04 248.153 200.813 247.72C200.586 247.287 200.473 246.793 200.473 246.24ZM205.113 246.25C205.113 245.837 205.03 245.477 204.863 245.17C204.696 244.863 204.47 244.63 204.183 244.47C203.903 244.303 203.593 244.22 203.253 244.22C202.913 244.22 202.603 244.3 202.323 244.46C202.043 244.62 201.82 244.853 201.653 245.16C201.486 245.467 201.403 245.827 201.403 246.24C201.403 246.66 201.486 247.027 201.653 247.34C201.82 247.647 202.043 247.883 202.323 248.05C202.603 248.21 202.913 248.29 203.253 248.29C203.593 248.29 203.903 248.21 204.183 248.05C204.47 247.883 204.696 247.647 204.863 247.34C205.03 247.027 205.113 246.663 205.113 246.25ZM208.481 244.54C208.667 244.213 208.941 243.947 209.301 243.74C209.661 243.533 210.071 243.43 210.531 243.43C211.024 243.43 211.467 243.547 211.861 243.78C212.254 244.013 212.564 244.343 212.791 244.77C213.017 245.19 213.131 245.68 213.131 246.24C213.131 246.793 213.017 247.287 212.791 247.72C212.564 248.153 212.251 248.49 211.851 248.73C211.457 248.97 211.017 249.09 210.531 249.09C210.057 249.09 209.641 248.987 209.281 248.78C208.927 248.573 208.661 248.31 208.481 247.99V249H207.571V241.6H208.481V244.54ZM212.201 246.24C212.201 245.827 212.117 245.467 211.951 245.16C211.784 244.853 211.557 244.62 211.271 244.46C210.991 244.3 210.681 244.22 210.341 244.22C210.007 244.22 209.697 244.303 209.411 244.47C209.131 244.63 208.904 244.867 208.731 245.18C208.564 245.487 208.481 245.843 208.481 246.25C208.481 246.663 208.564 247.027 208.731 247.34C208.904 247.647 209.131 247.883 209.411 248.05C209.697 248.21 210.007 248.29 210.341 248.29C210.681 248.29 210.991 248.21 211.271 248.05C211.557 247.883 211.784 247.647 211.951 247.34C212.117 247.027 212.201 246.66 212.201 246.24ZM216.719 249.09C216.205 249.09 215.739 248.973 215.319 248.74C214.905 248.507 214.579 248.177 214.339 247.75C214.105 247.317 213.989 246.817 213.989 246.25C213.989 245.69 214.109 245.197 214.349 244.77C214.595 244.337 214.929 244.007 215.349 243.78C215.769 243.547 216.239 243.43 216.759 243.43C217.279 243.43 217.749 243.547 218.169 243.78C218.589 244.007 218.919 244.333 219.159 244.76C219.405 245.187 219.529 245.683 219.529 246.25C219.529 246.817 219.402 247.317 219.149 247.75C218.902 248.177 218.565 248.507 218.139 248.74C217.712 248.973 217.239 249.09 216.719 249.09ZM216.719 248.29C217.045 248.29 217.352 248.213 217.639 248.06C217.925 247.907 218.155 247.677 218.329 247.37C218.509 247.063 218.599 246.69 218.599 246.25C218.599 245.81 218.512 245.437 218.339 245.13C218.165 244.823 217.939 244.597 217.659 244.45C217.379 244.297 217.075 244.22 216.749 244.22C216.415 244.22 216.109 244.297 215.829 244.45C215.555 244.597 215.335 244.823 215.169 245.13C215.002 245.437 214.919 245.81 214.919 246.25C214.919 246.697 214.999 247.073 215.159 247.38C215.325 247.687 215.545 247.917 215.819 248.07C216.092 248.217 216.392 248.29 216.719 248.29ZM221.635 244.41C221.795 244.097 222.022 243.853 222.315 243.68C222.615 243.507 222.978 243.42 223.405 243.42V244.36H223.165C222.145 244.36 221.635 244.913 221.635 246.02V249H220.725V243.52H221.635V244.41ZM224.116 246.24C224.116 245.68 224.229 245.19 224.456 244.77C224.682 244.343 224.992 244.013 225.386 243.78C225.786 243.547 226.229 243.43 226.716 243.43C227.196 243.43 227.612 243.533 227.966 243.74C228.319 243.947 228.582 244.207 228.756 244.52V243.52H229.676V249H228.756V247.98C228.576 248.3 228.306 248.567 227.946 248.78C227.592 248.987 227.179 249.09 226.706 249.09C226.219 249.09 225.779 248.97 225.386 248.73C224.992 248.49 224.682 248.153 224.456 247.72C224.229 247.287 224.116 246.793 224.116 246.24ZM228.756 246.25C228.756 245.837 228.672 245.477 228.506 245.17C228.339 244.863 228.112 244.63 227.826 244.47C227.546 244.303 227.236 244.22 226.896 244.22C226.556 244.22 226.246 244.3 225.966 244.46C225.686 244.62 225.462 244.853 225.296 245.16C225.129 245.467 225.046 245.827 225.046 246.24C225.046 246.66 225.129 247.027 225.296 247.34C225.462 247.647 225.686 247.883 225.966 248.05C226.246 248.21 226.556 248.29 226.896 248.29C227.236 248.29 227.546 248.21 227.826 248.05C228.112 247.883 228.339 247.647 228.506 247.34C228.672 247.027 228.756 246.663 228.756 246.25ZM232.323 244.27V247.5C232.323 247.767 232.38 247.957 232.493 248.07C232.607 248.177 232.803 248.23 233.083 248.23H233.753V249H232.933C232.427 249 232.047 248.883 231.793 248.65C231.54 248.417 231.413 248.033 231.413 247.5V244.27H230.703V243.52H231.413V242.14H232.323V243.52H233.753V244.27H232.323ZM237.246 249.09C236.733 249.09 236.266 248.973 235.846 248.74C235.433 248.507 235.106 248.177 234.866 247.75C234.633 247.317 234.516 246.817 234.516 246.25C234.516 245.69 234.636 245.197 234.876 244.77C235.123 244.337 235.456 244.007 235.876 243.78C236.296 243.547 236.766 243.43 237.286 243.43C237.806 243.43 238.276 243.547 238.696 243.78C239.116 244.007 239.446 244.333 239.686 244.76C239.933 245.187 240.056 245.683 240.056 246.25C240.056 246.817 239.929 247.317 239.676 247.75C239.429 248.177 239.093 248.507 238.666 248.74C238.239 248.973 237.766 249.09 237.246 249.09ZM237.246 248.29C237.573 248.29 237.879 248.213 238.166 248.06C238.453 247.907 238.683 247.677 238.856 247.37C239.036 247.063 239.126 246.69 239.126 246.25C239.126 245.81 239.039 245.437 238.866 245.13C238.693 244.823 238.466 244.597 238.186 244.45C237.906 244.297 237.603 244.22 237.276 244.22C236.943 244.22 236.636 244.297 236.356 244.45C236.083 244.597 235.863 244.823 235.696 245.13C235.529 245.437 235.446 245.81 235.446 246.25C235.446 246.697 235.526 247.073 235.686 247.38C235.853 247.687 236.073 247.917 236.346 248.07C236.619 248.217 236.919 248.29 237.246 248.29ZM242.162 244.41C242.322 244.097 242.549 243.853 242.842 243.68C243.142 243.507 243.506 243.42 243.932 243.42V244.36H243.692C242.672 244.36 242.162 244.913 242.162 246.02V249H241.252V243.52H242.162V244.41ZM247.259 242.6V241.77H249.139V249H248.219V242.6H247.259Z" fill="black"/>
<path opacity="0.6" d="M181.43 261.51C181.43 260.83 181.583 260.22 181.89 259.68C182.197 259.133 182.613 258.707 183.14 258.4C183.673 258.093 184.263 257.94 184.91 257.94C185.67 257.94 186.333 258.123 186.9 258.49C187.467 258.857 187.88 259.377 188.14 260.05H187.05C186.857 259.63 186.577 259.307 186.21 259.08C185.85 258.853 185.417 258.74 184.91 258.74C184.423 258.74 183.987 258.853 183.6 259.08C183.213 259.307 182.91 259.63 182.69 260.05C182.47 260.463 182.36 260.95 182.36 261.51C182.36 262.063 182.47 262.55 182.69 262.97C182.91 263.383 183.213 263.703 183.6 263.93C183.987 264.157 184.423 264.27 184.91 264.27C185.417 264.27 185.85 264.16 186.21 263.94C186.577 263.713 186.857 263.39 187.05 262.97H188.14C187.88 263.637 187.467 264.153 186.9 264.52C186.333 264.88 185.67 265.06 184.91 265.06C184.263 265.06 183.673 264.91 183.14 264.61C182.613 264.303 182.197 263.88 181.89 263.34C181.583 262.8 181.43 262.19 181.43 261.51ZM191.885 265.09C191.371 265.09 190.905 264.973 190.485 264.74C190.071 264.507 189.745 264.177 189.505 263.75C189.271 263.317 189.155 262.817 189.155 262.25C189.155 261.69 189.275 261.197 189.515 260.77C189.761 260.337 190.095 260.007 190.515 259.78C190.935 259.547 191.405 259.43 191.925 259.43C192.445 259.43 192.915 259.547 193.335 259.78C193.755 260.007 194.085 260.333 194.325 260.76C194.571 261.187 194.695 261.683 194.695 262.25C194.695 262.817 194.568 263.317 194.315 263.75C194.068 264.177 193.731 264.507 193.305 264.74C192.878 264.973 192.405 265.09 191.885 265.09ZM191.885 264.29C192.211 264.29 192.518 264.213 192.805 264.06C193.091 263.907 193.321 263.677 193.495 263.37C193.675 263.063 193.765 262.69 193.765 262.25C193.765 261.81 193.678 261.437 193.505 261.13C193.331 260.823 193.105 260.597 192.825 260.45C192.545 260.297 192.241 260.22 191.915 260.22C191.581 260.22 191.275 260.297 190.995 260.45C190.721 260.597 190.501 260.823 190.335 261.13C190.168 261.437 190.085 261.81 190.085 262.25C190.085 262.697 190.165 263.073 190.325 263.38C190.491 263.687 190.711 263.917 190.985 264.07C191.258 264.217 191.558 264.29 191.885 264.29ZM196.801 257.6V265H195.891V257.6H196.801ZM199.262 257.6V265H198.352V257.6H199.262ZM200.473 262.24C200.473 261.68 200.586 261.19 200.813 260.77C201.04 260.343 201.35 260.013 201.743 259.78C202.143 259.547 202.586 259.43 203.073 259.43C203.553 259.43 203.97 259.533 204.323 259.74C204.676 259.947 204.94 260.207 205.113 260.52V259.52H206.033V265H205.113V263.98C204.933 264.3 204.663 264.567 204.303 264.78C203.95 264.987 203.536 265.09 203.063 265.09C202.576 265.09 202.136 264.97 201.743 264.73C201.35 264.49 201.04 264.153 200.813 263.72C200.586 263.287 200.473 262.793 200.473 262.24ZM205.113 262.25C205.113 261.837 205.03 261.477 204.863 261.17C204.696 260.863 204.47 260.63 204.183 260.47C203.903 260.303 203.593 260.22 203.253 260.22C202.913 260.22 202.603 260.3 202.323 260.46C202.043 260.62 201.82 260.853 201.653 261.16C201.486 261.467 201.403 261.827 201.403 262.24C201.403 262.66 201.486 263.027 201.653 263.34C201.82 263.647 202.043 263.883 202.323 264.05C202.603 264.21 202.913 264.29 203.253 264.29C203.593 264.29 203.903 264.21 204.183 264.05C204.47 263.883 204.696 263.647 204.863 263.34C205.03 263.027 205.113 262.663 205.113 262.25ZM208.481 260.54C208.667 260.213 208.941 259.947 209.301 259.74C209.661 259.533 210.071 259.43 210.531 259.43C211.024 259.43 211.467 259.547 211.861 259.78C212.254 260.013 212.564 260.343 212.791 260.77C213.017 261.19 213.131 261.68 213.131 262.24C213.131 262.793 213.017 263.287 212.791 263.72C212.564 264.153 212.251 264.49 211.851 264.73C211.457 264.97 211.017 265.09 210.531 265.09C210.057 265.09 209.641 264.987 209.281 264.78C208.927 264.573 208.661 264.31 208.481 263.99V265H207.571V257.6H208.481V260.54ZM212.201 262.24C212.201 261.827 212.117 261.467 211.951 261.16C211.784 260.853 211.557 260.62 211.271 260.46C210.991 260.3 210.681 260.22 210.341 260.22C210.007 260.22 209.697 260.303 209.411 260.47C209.131 260.63 208.904 260.867 208.731 261.18C208.564 261.487 208.481 261.843 208.481 262.25C208.481 262.663 208.564 263.027 208.731 263.34C208.904 263.647 209.131 263.883 209.411 264.05C209.697 264.21 210.007 264.29 210.341 264.29C210.681 264.29 210.991 264.21 211.271 264.05C211.557 263.883 211.784 263.647 211.951 263.34C212.117 263.027 212.201 262.66 212.201 262.24ZM216.719 265.09C216.205 265.09 215.739 264.973 215.319 264.74C214.905 264.507 214.579 264.177 214.339 263.75C214.105 263.317 213.989 262.817 213.989 262.25C213.989 261.69 214.109 261.197 214.349 260.77C214.595 260.337 214.929 260.007 215.349 259.78C215.769 259.547 216.239 259.43 216.759 259.43C217.279 259.43 217.749 259.547 218.169 259.78C218.589 260.007 218.919 260.333 219.159 260.76C219.405 261.187 219.529 261.683 219.529 262.25C219.529 262.817 219.402 263.317 219.149 263.75C218.902 264.177 218.565 264.507 218.139 264.74C217.712 264.973 217.239 265.09 216.719 265.09ZM216.719 264.29C217.045 264.29 217.352 264.213 217.639 264.06C217.925 263.907 218.155 263.677 218.329 263.37C218.509 263.063 218.599 262.69 218.599 262.25C218.599 261.81 218.512 261.437 218.339 261.13C218.165 260.823 217.939 260.597 217.659 260.45C217.379 260.297 217.075 260.22 216.749 260.22C216.415 260.22 216.109 260.297 215.829 260.45C215.555 260.597 215.335 260.823 215.169 261.13C215.002 261.437 214.919 261.81 214.919 262.25C214.919 262.697 214.999 263.073 215.159 263.38C215.325 263.687 215.545 263.917 215.819 264.07C216.092 264.217 216.392 264.29 216.719 264.29ZM221.635 260.41C221.795 260.097 222.022 259.853 222.315 259.68C222.615 259.507 222.978 259.42 223.405 259.42V260.36H223.165C222.145 260.36 221.635 260.913 221.635 262.02V265H220.725V259.52H221.635V260.41ZM224.116 262.24C224.116 261.68 224.229 261.19 224.456 260.77C224.682 260.343 224.992 260.013 225.386 259.78C225.786 259.547 226.229 259.43 226.716 259.43C227.196 259.43 227.612 259.533 227.966 259.74C228.319 259.947 228.582 260.207 228.756 260.52V259.52H229.676V265H228.756V263.98C228.576 264.3 228.306 264.567 227.946 264.78C227.592 264.987 227.179 265.09 226.706 265.09C226.219 265.09 225.779 264.97 225.386 264.73C224.992 264.49 224.682 264.153 224.456 263.72C224.229 263.287 224.116 262.793 224.116 262.24ZM228.756 262.25C228.756 261.837 228.672 261.477 228.506 261.17C228.339 260.863 228.112 260.63 227.826 260.47C227.546 260.303 227.236 260.22 226.896 260.22C226.556 260.22 226.246 260.3 225.966 260.46C225.686 260.62 225.462 260.853 225.296 261.16C225.129 261.467 225.046 261.827 225.046 262.24C225.046 262.66 225.129 263.027 225.296 263.34C225.462 263.647 225.686 263.883 225.966 264.05C226.246 264.21 226.556 264.29 226.896 264.29C227.236 264.29 227.546 264.21 227.826 264.05C228.112 263.883 228.339 263.647 228.506 263.34C228.672 263.027 228.756 262.663 228.756 262.25ZM232.323 260.27V263.5C232.323 263.767 232.38 263.957 232.493 264.07C232.607 264.177 232.803 264.23 233.083 264.23H233.753V265H232.933C232.427 265 232.047 264.883 231.793 264.65C231.54 264.417 231.413 264.033 231.413 263.5V260.27H230.703V259.52H231.413V258.14H232.323V259.52H233.753V260.27H232.323ZM237.246 265.09C236.733 265.09 236.266 264.973 235.846 264.74C235.433 264.507 235.106 264.177 234.866 263.75C234.633 263.317 234.516 262.817 234.516 262.25C234.516 261.69 234.636 261.197 234.876 260.77C235.123 260.337 235.456 260.007 235.876 259.78C236.296 259.547 236.766 259.43 237.286 259.43C237.806 259.43 238.276 259.547 238.696 259.78C239.116 260.007 239.446 260.333 239.686 260.76C239.933 261.187 240.056 261.683 240.056 262.25C240.056 262.817 239.929 263.317 239.676 263.75C239.429 264.177 239.093 264.507 238.666 264.74C238.239 264.973 237.766 265.09 237.246 265.09ZM237.246 264.29C237.573 264.29 237.879 264.213 238.166 264.06C238.453 263.907 238.683 263.677 238.856 263.37C239.036 263.063 239.126 262.69 239.126 262.25C239.126 261.81 239.039 261.437 238.866 261.13C238.693 260.823 238.466 260.597 238.186 260.45C237.906 260.297 237.603 260.22 237.276 260.22C236.943 260.22 236.636 260.297 236.356 260.45C236.083 260.597 235.863 260.823 235.696 261.13C235.529 261.437 235.446 261.81 235.446 262.25C235.446 262.697 235.526 263.073 235.686 263.38C235.853 263.687 236.073 263.917 236.346 264.07C236.619 264.217 236.919 264.29 237.246 264.29ZM242.162 260.41C242.322 260.097 242.549 259.853 242.842 259.68C243.142 259.507 243.506 259.42 243.932 259.42V260.36H243.692C242.672 260.36 242.162 260.913 242.162 262.02V265H241.252V259.52H242.162V260.41ZM247.389 264.27C248.236 263.59 248.899 263.033 249.379 262.6C249.859 262.16 250.262 261.703 250.589 261.23C250.922 260.75 251.089 260.28 251.089 259.82C251.089 259.387 250.982 259.047 250.769 258.8C250.562 258.547 250.226 258.42 249.759 258.42C249.306 258.42 248.952 258.563 248.699 258.85C248.452 259.13 248.319 259.507 248.299 259.98H247.419C247.446 259.233 247.672 258.657 248.099 258.25C248.526 257.843 249.076 257.64 249.749 257.64C250.436 257.64 250.979 257.83 251.379 258.21C251.786 258.59 251.989 259.113 251.989 259.78C251.989 260.333 251.822 260.873 251.489 261.4C251.162 261.92 250.789 262.38 250.369 262.78C249.949 263.173 249.412 263.633 248.759 264.16H252.199V264.92H247.389V264.27Z" fill="black"/>
<path d="M394.41 204.87H390.045L389.295 207H387.51L391.245 196.56H393.225L396.96 207H395.16L394.41 204.87ZM393.93 203.475L392.235 198.63L390.525 203.475H393.93ZM398.014 202.83C398.014 202 398.184 201.265 398.524 200.625C398.874 199.985 399.344 199.49 399.934 199.14C400.534 198.78 401.199 198.6 401.929 198.6C402.469 198.6 402.999 198.72 403.519 198.96C404.049 199.19 404.469 199.5 404.779 199.89V195.9H406.504V207H404.779V205.755C404.499 206.155 404.109 206.485 403.609 206.745C403.119 207.005 402.554 207.135 401.914 207.135C401.194 207.135 400.534 206.955 399.934 206.595C399.344 206.225 398.874 205.715 398.524 205.065C398.184 204.405 398.014 203.66 398.014 202.83ZM404.779 202.86C404.779 202.29 404.659 201.795 404.419 201.375C404.189 200.955 403.884 200.635 403.504 200.415C403.124 200.195 402.714 200.085 402.274 200.085C401.834 200.085 401.424 200.195 401.044 200.415C400.664 200.625 400.354 200.94 400.114 201.36C399.884 201.77 399.769 202.26 399.769 202.83C399.769 203.4 399.884 203.9 400.114 204.33C400.354 204.76 400.664 205.09 401.044 205.32C401.434 205.54 401.844 205.65 402.274 205.65C402.714 205.65 403.124 205.54 403.504 205.32C403.884 205.1 404.189 204.78 404.419 204.36C404.659 203.93 404.779 203.43 404.779 202.86ZM408.18 202.83C408.18 202 408.35 201.265 408.69 200.625C409.04 199.985 409.51 199.49 410.1 199.14C410.7 198.78 411.365 198.6 412.095 198.6C412.635 198.6 413.165 198.72 413.685 198.96C414.215 199.19 414.635 199.5 414.945 199.89V195.9H416.67V207H414.945V205.755C414.665 206.155 414.275 206.485 413.775 206.745C413.285 207.005 412.72 207.135 412.08 207.135C411.36 207.135 410.7 206.955 410.1 206.595C409.51 206.225 409.04 205.715 408.69 205.065C408.35 204.405 408.18 203.66 408.18 202.83ZM414.945 202.86C414.945 202.29 414.825 201.795 414.585 201.375C414.355 200.955 414.05 200.635 413.67 200.415C413.29 200.195 412.88 200.085 412.44 200.085C412 200.085 411.59 200.195 411.21 200.415C410.83 200.625 410.52 200.94 410.28 201.36C410.05 201.77 409.935 202.26 409.935 202.83C409.935 203.4 410.05 203.9 410.28 204.33C410.52 204.76 410.83 205.09 411.21 205.32C411.6 205.54 412.01 205.65 412.44 205.65C412.88 205.65 413.29 205.54 413.67 205.32C414.05 205.1 414.355 204.78 414.585 204.36C414.825 203.93 414.945 203.43 414.945 202.86Z" fill="white"/>
<mask id="path-14-inside-1_653_86" fill="white">
<rect x="364" y="181" width="77" height="40" rx="4"/>
</mask>
<rect x="364" y="181" width="77" height="40" rx="4" stroke="#FDB827" stroke-width="18" mask="url(#path-14-inside-1_653_86)"/>
</g>
<defs>
<filter id="filter0_ddddii_653_86" x="0" y="0" width="615" height="478" filterUnits="userSpaceOnUse" color-interpolation-filters="sRGB">
<feFlood flood-opacity="0" result="BackgroundImageFix"/>
<feColorMatrix in="SourceAlpha" type="matrix" values="0 0 0 0 0 0 0 0 0 0 0 0 0 0 0 0 0 0 127 0" result="hardAlpha"/>
<feOffset dx="23" dy="23"/>
<feGaussianBlur stdDeviation="29"/>
<feColorMatrix type="matrix" values="0 0 0 0 0.870588 0 0 0 0 0.870588 0 0 0 0 0.870588 0 0 0 0.9 0"/>
<feBlend mode="normal" in2="BackgroundImageFix" result="effect1_dropShadow_653_86"/>
<feColorMatrix in="SourceAlpha" type="matrix" values="0 0 0 0 0 0 0 0 0 0 0 0 0 0 0 0 0 0 127 0" result="hardAlpha"/>
<feOffset dx="-23" dy="-23"/>
<feGaussianBlur stdDeviation="23"/>
<feColorMatrix type="matrix" values="0 0 0 0 1 0 0 0 0 1 0 0 0 0 1 0 0 0 0.9 0"/>
<feBlend mode="normal" in2="effect1_dropShadow_653_86" result="effect2_dropShadow_653_86"/>
<feColorMatrix in="SourceAlpha" type="matrix" values="0 0 0 0 0 0 0 0 0 0 0 0 0 0 0 0 0 0 127 0" result="hardAlpha"/>
<feOffset dx="23" dy="-23"/>
<feGaussianBlur stdDeviation="23"/>
<feColorMatrix type="matrix" values="0 0 0 0 0.870588 0 0 0 0 0.870588 0 0 0 0 0.870588 0 0 0 0.2 0"/>
<feBlend mode="normal" in2="effect2_dropShadow_653_86" result="effect3_dropShadow_653_86"/>
<feColorMatrix in="SourceAlpha" type="matrix" values="0 0 0 0 0 0 0 0 0 0 0 0 0 0 0 0 0 0 127 0" result="hardAlpha"/>
<feOffset dx="-23" dy="23"/>
<feGaussianBlur stdDeviation="23"/>
<feColorMatrix type="matrix" values="0 0 0 0 0.870588 0 0 0 0 0.870588 0 0 0 0 0.870588 0 0 0 0.2 0"/>
<feBlend mode="normal" in2="effect3_dropShadow_653_86" result="effect4_dropShadow_653_86"/>
<feBlend mode="normal" in="SourceGraphic" in2="effect4_dropShadow_653_86" result="shape"/>
<feColorMatrix in="SourceAlpha" type="matrix" values="0 0 0 0 0 0 0 0 0 0 0 0 0 0 0 0 0 0 127 0" result="hardAlpha"/>
<feOffset dx="-1" dy="-1"/>
<feGaussianBlur stdDeviation="1"/>
<feComposite in2="hardAlpha" operator="arithmetic" k2="-1" k3="1"/>
<feColorMatrix type="matrix" values="0 0 0 0 0.870588 0 0 0 0 0.870588 0 0 0 0 0.870588 0 0 0 0.5 0"/>
<feBlend mode="normal" in2="shape" result="effect5_innerShadow_653_86"/>
<feColorMatrix in="SourceAlpha" type="matrix" values="0 0 0 0 0 0 0 0 0 0 0 0 0 0 0 0 0 0 127 0" result="hardAlpha"/>
<feOffset dx="1" dy="1"/>
<feGaussianBlur stdDeviation="1"/>
<feComposite in2="hardAlpha" operator="arithmetic" k2="-1" k3="1"/>
<feColorMatrix type="matrix" values="0 0 0 0 1 0 0 0 0 1 0 0 0 0 1 0 0 0 0.3 0"/>
<feBlend mode="normal" in2="effect5_innerShadow_653_86" result="effect6_innerShadow_653_86"/>
</filter>
</defs>
</svg>
