<svg width="615" height="478" viewBox="0 0 615 478" fill="none" xmlns="http://www.w3.org/2000/svg">
<g filter="url(#filter0_ddddii_650_141)">
<g clip-path="url(#clip0_650_141)">
<rect x="69" y="69" width="465" height="328" rx="20" fill="white"/>
<rect x="68" y="69" width="466" height="328" rx="20" fill="white"/>
<g filter="url(#filter1_d_650_141)">
<path d="M68.501 89C68.501 77.9543 77.4553 69 88.501 69H540C551.046 69 560 77.9543 560 89V116.584H68.501V89Z" fill="white"/>
</g>
<rect opacity="0.2" x="97.5303" y="89.0356" width="62.5636" height="8.01421" rx="4.0071" fill="#282937"/>
<rect opacity="0.2" x="191.626" y="89.0356" width="62.5636" height="8.01421" rx="4.0071" fill="#282937"/>
<rect opacity="0.1" x="98" y="152" width="130" height="18" rx="9" fill="#282937"/>
<rect opacity="0.1" x="105" y="202" width="227" height="44" fill="#282937"/>
<path d="M159.645 223.765C159.645 222.745 159.875 221.83 160.335 221.02C160.795 220.2 161.42 219.56 162.21 219.1C163.01 218.64 163.895 218.41 164.865 218.41C166.005 218.41 167 218.685 167.85 219.235C168.7 219.785 169.32 220.565 169.71 221.575H168.075C167.785 220.945 167.365 220.46 166.815 220.12C166.275 219.78 165.625 219.61 164.865 219.61C164.135 219.61 163.48 219.78 162.9 220.12C162.32 220.46 161.865 220.945 161.535 221.575C161.205 222.195 161.04 222.925 161.04 223.765C161.04 224.595 161.205 225.325 161.535 225.955C161.865 226.575 162.32 227.055 162.9 227.395C163.48 227.735 164.135 227.905 164.865 227.905C165.625 227.905 166.275 227.74 166.815 227.41C167.365 227.07 167.785 226.585 168.075 225.955H169.71C169.32 226.955 168.7 227.73 167.85 228.28C167 228.82 166.005 229.09 164.865 229.09C163.895 229.09 163.01 228.865 162.21 228.415C161.42 227.955 160.795 227.32 160.335 226.51C159.875 225.7 159.645 224.785 159.645 223.765ZM173.107 222.115C173.347 221.645 173.687 221.28 174.127 221.02C174.577 220.76 175.122 220.63 175.762 220.63V222.04H175.402C173.872 222.04 173.107 222.87 173.107 224.53V229H171.742V220.78H173.107V222.115ZM184.838 224.575C184.838 224.835 184.823 225.11 184.793 225.4H178.223C178.273 226.21 178.548 226.845 179.048 227.305C179.558 227.755 180.173 227.98 180.893 227.98C181.483 227.98 181.973 227.845 182.363 227.575C182.763 227.295 183.043 226.925 183.203 226.465H184.673C184.453 227.255 184.013 227.9 183.353 228.4C182.693 228.89 181.873 229.135 180.893 229.135C180.113 229.135 179.413 228.96 178.793 228.61C178.183 228.26 177.703 227.765 177.353 227.125C177.003 226.475 176.828 225.725 176.828 224.875C176.828 224.025 176.998 223.28 177.338 222.64C177.678 222 178.153 221.51 178.763 221.17C179.383 220.82 180.093 220.645 180.893 220.645C181.673 220.645 182.363 220.815 182.963 221.155C183.563 221.495 184.023 221.965 184.343 222.565C184.673 223.155 184.838 223.825 184.838 224.575ZM183.428 224.29C183.428 223.77 183.313 223.325 183.083 222.955C182.853 222.575 182.538 222.29 182.138 222.1C181.748 221.9 181.313 221.8 180.833 221.8C180.143 221.8 179.553 222.02 179.063 222.46C178.583 222.9 178.308 223.51 178.238 224.29H183.428ZM186.129 224.86C186.129 224.02 186.299 223.285 186.639 222.655C186.979 222.015 187.444 221.52 188.034 221.17C188.634 220.82 189.299 220.645 190.029 220.645C190.749 220.645 191.374 220.8 191.904 221.11C192.434 221.42 192.829 221.81 193.089 222.28V220.78H194.469V229H193.089V227.47C192.819 227.95 192.414 228.35 191.874 228.67C191.344 228.98 190.724 229.135 190.014 229.135C189.284 229.135 188.624 228.955 188.034 228.595C187.444 228.235 186.979 227.73 186.639 227.08C186.299 226.43 186.129 225.69 186.129 224.86ZM193.089 224.875C193.089 224.255 192.964 223.715 192.714 223.255C192.464 222.795 192.124 222.445 191.694 222.205C191.274 221.955 190.809 221.83 190.299 221.83C189.789 221.83 189.324 221.95 188.904 222.19C188.484 222.43 188.149 222.78 187.899 223.24C187.649 223.7 187.524 224.24 187.524 224.86C187.524 225.49 187.649 226.04 187.899 226.51C188.149 226.97 188.484 227.325 188.904 227.575C189.324 227.815 189.789 227.935 190.299 227.935C190.809 227.935 191.274 227.815 191.694 227.575C192.124 227.325 192.464 226.97 192.714 226.51C192.964 226.04 193.089 225.495 193.089 224.875ZM198.441 221.905V226.75C198.441 227.15 198.526 227.435 198.696 227.605C198.866 227.765 199.161 227.845 199.581 227.845H200.586V229H199.356C198.596 229 198.026 228.825 197.646 228.475C197.266 228.125 197.076 227.55 197.076 226.75V221.905H196.011V220.78H197.076V218.71H198.441V220.78H200.586V221.905H198.441ZM209.74 224.575C209.74 224.835 209.725 225.11 209.695 225.4H203.125C203.175 226.21 203.45 226.845 203.95 227.305C204.46 227.755 205.075 227.98 205.795 227.98C206.385 227.98 206.875 227.845 207.265 227.575C207.665 227.295 207.945 226.925 208.105 226.465H209.575C209.355 227.255 208.915 227.9 208.255 228.4C207.595 228.89 206.775 229.135 205.795 229.135C205.015 229.135 204.315 228.96 203.695 228.61C203.085 228.26 202.605 227.765 202.255 227.125C201.905 226.475 201.73 225.725 201.73 224.875C201.73 224.025 201.9 223.28 202.24 222.64C202.58 222 203.055 221.51 203.665 221.17C204.285 220.82 204.995 220.645 205.795 220.645C206.575 220.645 207.265 220.815 207.865 221.155C208.465 221.495 208.925 221.965 209.245 222.565C209.575 223.155 209.74 223.825 209.74 224.575ZM208.33 224.29C208.33 223.77 208.215 223.325 207.985 222.955C207.755 222.575 207.44 222.29 207.04 222.1C206.65 221.9 206.215 221.8 205.735 221.8C205.045 221.8 204.455 222.02 203.965 222.46C203.485 222.9 203.21 223.51 203.14 224.29H208.33ZM219.546 220.63C220.546 220.63 221.356 220.935 221.976 221.545C222.596 222.145 222.906 223.015 222.906 224.155V229H221.556V224.35C221.556 223.53 221.351 222.905 220.941 222.475C220.531 222.035 219.971 221.815 219.261 221.815C218.541 221.815 217.966 222.04 217.536 222.49C217.116 222.94 216.906 223.595 216.906 224.455V229H215.541V220.78H216.906V221.95C217.176 221.53 217.541 221.205 218.001 220.975C218.471 220.745 218.986 220.63 219.546 220.63ZM232.635 224.575C232.635 224.835 232.62 225.11 232.59 225.4H226.02C226.07 226.21 226.345 226.845 226.845 227.305C227.355 227.755 227.97 227.98 228.69 227.98C229.28 227.98 229.77 227.845 230.16 227.575C230.56 227.295 230.84 226.925 231 226.465H232.47C232.25 227.255 231.81 227.9 231.15 228.4C230.49 228.89 229.67 229.135 228.69 229.135C227.91 229.135 227.21 228.96 226.59 228.61C225.98 228.26 225.5 227.765 225.15 227.125C224.8 226.475 224.625 225.725 224.625 224.875C224.625 224.025 224.795 223.28 225.135 222.64C225.475 222 225.95 221.51 226.56 221.17C227.18 220.82 227.89 220.645 228.69 220.645C229.47 220.645 230.16 220.815 230.76 221.155C231.36 221.495 231.82 221.965 232.14 222.565C232.47 223.155 232.635 223.825 232.635 224.575ZM231.225 224.29C231.225 223.77 231.11 223.325 230.88 222.955C230.65 222.575 230.335 222.29 229.935 222.1C229.545 221.9 229.11 221.8 228.63 221.8C227.94 221.8 227.35 222.02 226.86 222.46C226.38 222.9 226.105 223.51 226.035 224.29H231.225ZM245.387 220.78L242.822 229H241.412L239.432 222.475L237.452 229H236.042L233.462 220.78H234.857L236.747 227.68L238.787 220.78H240.182L242.177 227.695L244.037 220.78H245.387ZM252.106 217.9V229H250.741V217.9H252.106ZM255.137 219.445C254.877 219.445 254.657 219.355 254.477 219.175C254.297 218.995 254.207 218.775 254.207 218.515C254.207 218.255 254.297 218.035 254.477 217.855C254.657 217.675 254.877 217.585 255.137 217.585C255.387 217.585 255.597 217.675 255.767 217.855C255.947 218.035 256.037 218.255 256.037 218.515C256.037 218.775 255.947 218.995 255.767 219.175C255.597 219.355 255.387 219.445 255.137 219.445ZM255.797 220.78V229H254.432V220.78H255.797ZM261.034 229.135C260.404 229.135 259.839 229.03 259.339 228.82C258.839 228.6 258.444 228.3 258.154 227.92C257.864 227.53 257.704 227.085 257.674 226.585H259.084C259.124 226.995 259.314 227.33 259.654 227.59C260.004 227.85 260.459 227.98 261.019 227.98C261.539 227.98 261.949 227.865 262.249 227.635C262.549 227.405 262.699 227.115 262.699 226.765C262.699 226.405 262.539 226.14 262.219 225.97C261.899 225.79 261.404 225.615 260.734 225.445C260.124 225.285 259.624 225.125 259.234 224.965C258.854 224.795 258.524 224.55 258.244 224.23C257.974 223.9 257.839 223.47 257.839 222.94C257.839 222.52 257.964 222.135 258.214 221.785C258.464 221.435 258.819 221.16 259.279 220.96C259.739 220.75 260.264 220.645 260.854 220.645C261.764 220.645 262.499 220.875 263.059 221.335C263.619 221.795 263.919 222.425 263.959 223.225H262.594C262.564 222.795 262.389 222.45 262.069 222.19C261.759 221.93 261.339 221.8 260.809 221.8C260.319 221.8 259.929 221.905 259.639 222.115C259.349 222.325 259.204 222.6 259.204 222.94C259.204 223.21 259.289 223.435 259.459 223.615C259.639 223.785 259.859 223.925 260.119 224.035C260.389 224.135 260.759 224.25 261.229 224.38C261.819 224.54 262.299 224.7 262.669 224.86C263.039 225.01 263.354 225.24 263.614 225.55C263.884 225.86 264.024 226.265 264.034 226.765C264.034 227.215 263.909 227.62 263.659 227.98C263.409 228.34 263.054 228.625 262.594 228.835C262.144 229.035 261.624 229.135 261.034 229.135ZM267.626 221.905V226.75C267.626 227.15 267.711 227.435 267.881 227.605C268.051 227.765 268.346 227.845 268.766 227.845H269.771V229H268.541C267.781 229 267.211 228.825 266.831 228.475C266.451 228.125 266.261 227.55 266.261 226.75V221.905H265.196V220.78H266.261V218.71H267.626V220.78H269.771V221.905H267.626Z" fill="black"/>
<rect x="102.5" y="201.5" width="233" height="45" rx="9.5" stroke="#FDB827" stroke-width="9"/>
</g>
</g>
<defs>
<filter id="filter0_ddddii_650_141" x="0" y="0" width="615" height="478" filterUnits="userSpaceOnUse" color-interpolation-filters="sRGB">
<feFlood flood-opacity="0" result="BackgroundImageFix"/>
<feColorMatrix in="SourceAlpha" type="matrix" values="0 0 0 0 0 0 0 0 0 0 0 0 0 0 0 0 0 0 127 0" result="hardAlpha"/>
<feOffset dx="23" dy="23"/>
<feGaussianBlur stdDeviation="29"/>
<feColorMatrix type="matrix" values="0 0 0 0 0.870588 0 0 0 0 0.870588 0 0 0 0 0.870588 0 0 0 0.9 0"/>
<feBlend mode="normal" in2="BackgroundImageFix" result="effect1_dropShadow_650_141"/>
<feColorMatrix in="SourceAlpha" type="matrix" values="0 0 0 0 0 0 0 0 0 0 0 0 0 0 0 0 0 0 127 0" result="hardAlpha"/>
<feOffset dx="-23" dy="-23"/>
<feGaussianBlur stdDeviation="23"/>
<feColorMatrix type="matrix" values="0 0 0 0 1 0 0 0 0 1 0 0 0 0 1 0 0 0 0.9 0"/>
<feBlend mode="normal" in2="effect1_dropShadow_650_141" result="effect2_dropShadow_650_141"/>
<feColorMatrix in="SourceAlpha" type="matrix" values="0 0 0 0 0 0 0 0 0 0 0 0 0 0 0 0 0 0 127 0" result="hardAlpha"/>
<feOffset dx="23" dy="-23"/>
<feGaussianBlur stdDeviation="23"/>
<feColorMatrix type="matrix" values="0 0 0 0 0.870588 0 0 0 0 0.870588 0 0 0 0 0.870588 0 0 0 0.2 0"/>
<feBlend mode="normal" in2="effect2_dropShadow_650_141" result="effect3_dropShadow_650_141"/>
<feColorMatrix in="SourceAlpha" type="matrix" values="0 0 0 0 0 0 0 0 0 0 0 0 0 0 0 0 0 0 127 0" result="hardAlpha"/>
<feOffset dx="-23" dy="23"/>
<feGaussianBlur stdDeviation="23"/>
<feColorMatrix type="matrix" values="0 0 0 0 0.870588 0 0 0 0 0.870588 0 0 0 0 0.870588 0 0 0 0.2 0"/>
<feBlend mode="normal" in2="effect3_dropShadow_650_141" result="effect4_dropShadow_650_141"/>
<feBlend mode="normal" in="SourceGraphic" in2="effect4_dropShadow_650_141" result="shape"/>
<feColorMatrix in="SourceAlpha" type="matrix" values="0 0 0 0 0 0 0 0 0 0 0 0 0 0 0 0 0 0 127 0" result="hardAlpha"/>
<feOffset dx="-1" dy="-1"/>
<feGaussianBlur stdDeviation="1"/>
<feComposite in2="hardAlpha" operator="arithmetic" k2="-1" k3="1"/>
<feColorMatrix type="matrix" values="0 0 0 0 0.870588 0 0 0 0 0.870588 0 0 0 0 0.870588 0 0 0 0.5 0"/>
<feBlend mode="normal" in2="shape" result="effect5_innerShadow_650_141"/>
<feColorMatrix in="SourceAlpha" type="matrix" values="0 0 0 0 0 0 0 0 0 0 0 0 0 0 0 0 0 0 127 0" result="hardAlpha"/>
<feOffset dx="1" dy="1"/>
<feGaussianBlur stdDeviation="1"/>
<feComposite in2="hardAlpha" operator="arithmetic" k2="-1" k3="1"/>
<feColorMatrix type="matrix" values="0 0 0 0 1 0 0 0 0 1 0 0 0 0 1 0 0 0 0.3 0"/>
<feBlend mode="normal" in2="effect5_innerShadow_650_141" result="effect6_innerShadow_650_141"/>
</filter>
<filter id="filter1_d_650_141" x="30.501" y="35" width="567.499" height="123.584" filterUnits="userSpaceOnUse" color-interpolation-filters="sRGB">
<feFlood flood-opacity="0" result="BackgroundImageFix"/>
<feColorMatrix in="SourceAlpha" type="matrix" values="0 0 0 0 0 0 0 0 0 0 0 0 0 0 0 0 0 0 127 0" result="hardAlpha"/>
<feMorphology radius="2" operator="dilate" in="SourceAlpha" result="effect1_dropShadow_650_141"/>
<feOffset dy="4"/>
<feGaussianBlur stdDeviation="18"/>
<feComposite in2="hardAlpha" operator="out"/>
<feColorMatrix type="matrix" values="0 0 0 0 0 0 0 0 0 0 0 0 0 0 0 0 0 0 0.08 0"/>
<feBlend mode="normal" in2="BackgroundImageFix" result="effect1_dropShadow_650_141"/>
<feBlend mode="normal" in="SourceGraphic" in2="effect1_dropShadow_650_141" result="shape"/>
</filter>
<clipPath id="clip0_650_141">
<rect x="69" y="69" width="465" height="328" rx="20" fill="white"/>
</clipPath>
</defs>
</svg>
