<svg width="615" height="478" viewBox="0 0 615 478" fill="none" xmlns="http://www.w3.org/2000/svg">
<g filter="url(#filter0_ddddii_649_105)">
<g clip-path="url(#clip0_649_105)">
<rect x="69" y="69" width="465" height="328" rx="20" fill="white"/>
<rect x="69" y="103" width="232.5" height="265" rx="4" fill="#21209C"/>
<g filter="url(#filter1_d_649_105)">
<path d="M214.061 317.804C232.575 337.419 239.126 362.849 233.713 394.095C228.301 425.342 209.633 442.506 177.708 445.589C145.783 448.671 118.045 437.24 94.4948 411.296C70.9442 385.352 50.6446 356.084 33.5961 323.494C16.5476 290.904 17.0907 261.178 35.2254 234.316C53.3601 207.454 77.3083 201.028 107.07 215.037C136.832 229.046 157.476 244.773 169.002 262.217C180.528 279.661 195.548 298.19 214.061 317.804Z" fill="#6371EA"/>
</g>
<g opacity="0.85" filter="url(#filter2_d_649_105)">
<path d="M218.957 410.784C238.978 433.406 238.334 464.227 217.025 503.248C195.716 542.269 160.087 565.045 110.138 571.577C60.1889 578.109 22.688 566.373 -2.36487 536.37C-27.4177 506.367 -46.1264 471.986 -58.4909 433.226C-70.8554 394.467 -57.6034 357.738 -18.7348 323.041C20.1338 288.344 59.3223 278.367 98.8305 293.112C138.339 307.856 163.232 325.498 173.509 346.039C183.787 366.58 198.936 388.162 218.957 410.784Z" fill="#A8B1FF"/>
</g>
<g opacity="0.75" filter="url(#filter3_d_649_105)">
<path d="M113.494 359.376C131.096 363.462 144.136 375.292 152.611 394.867C161.087 414.442 156.946 431.07 140.186 444.75C123.426 458.431 103.668 462.393 80.9102 456.637C58.1525 450.88 35.9932 442.041 14.4323 430.119C-7.12855 418.196 -17.7737 401.298 -17.5031 379.424C-17.2325 357.55 -6.17584 344.977 15.667 341.705C37.5098 338.433 54.8744 339.539 67.7608 345.022C80.6471 350.505 95.8915 355.289 113.494 359.376Z" fill="#DBDFFF"/>
</g>
<rect opacity="0.6" x="128" y="139" width="149" height="16" rx="8" fill="#F1F1F1"/>
<rect opacity="0.6" x="331" y="205" width="171" height="30" rx="4" fill="#CBCBCB" fill-opacity="0.52"/>
<rect opacity="0.6" x="331" y="270" width="171" height="30" rx="4" fill="#CBCBCB" fill-opacity="0.52"/>
<rect x="331" y="323" width="62" height="25" rx="4" fill="#21209C"/>
<rect opacity="0.6" x="188" y="169" width="89" height="16" rx="8" fill="#F1F1F1"/>
<path d="M335.303 152.78H339.903V155H332.503V141.04H335.303V152.78ZM348.002 155.18C346.936 155.18 345.976 154.947 345.122 154.48C344.269 154 343.596 153.327 343.102 152.46C342.622 151.593 342.382 150.593 342.382 149.46C342.382 148.327 342.629 147.327 343.122 146.46C343.629 145.593 344.316 144.927 345.182 144.46C346.049 143.98 347.016 143.74 348.082 143.74C349.149 143.74 350.116 143.98 350.982 144.46C351.849 144.927 352.529 145.593 353.022 146.46C353.529 147.327 353.782 148.327 353.782 149.46C353.782 150.593 353.522 151.593 353.002 152.46C352.496 153.327 351.802 154 350.922 154.48C350.056 154.947 349.082 155.18 348.002 155.18ZM348.002 152.74C348.509 152.74 348.982 152.62 349.422 152.38C349.876 152.127 350.236 151.753 350.502 151.26C350.769 150.767 350.902 150.167 350.902 149.46C350.902 148.407 350.622 147.6 350.062 147.04C349.516 146.467 348.842 146.18 348.042 146.18C347.242 146.18 346.569 146.467 346.022 147.04C345.489 147.6 345.222 148.407 345.222 149.46C345.222 150.513 345.482 151.327 346.002 151.9C346.536 152.46 347.202 152.74 348.002 152.74ZM361.576 143.74C362.403 143.74 363.13 143.907 363.756 144.24C364.383 144.56 364.876 144.98 365.236 145.5V143.92H368.056V155.08C368.056 156.107 367.85 157.02 367.436 157.82C367.023 158.633 366.403 159.273 365.576 159.74C364.75 160.22 363.75 160.46 362.576 160.46C361.003 160.46 359.71 160.093 358.696 159.36C357.696 158.627 357.13 157.627 356.996 156.36H359.776C359.923 156.867 360.236 157.267 360.716 157.56C361.21 157.867 361.803 158.02 362.496 158.02C363.31 158.02 363.97 157.773 364.476 157.28C364.983 156.8 365.236 156.067 365.236 155.08V153.36C364.876 153.88 364.376 154.313 363.736 154.66C363.11 155.007 362.39 155.18 361.576 155.18C360.643 155.18 359.79 154.94 359.016 154.46C358.243 153.98 357.63 153.307 357.176 152.44C356.736 151.56 356.516 150.553 356.516 149.42C356.516 148.3 356.736 147.307 357.176 146.44C357.63 145.573 358.236 144.907 358.996 144.44C359.77 143.973 360.63 143.74 361.576 143.74ZM365.236 149.46C365.236 148.78 365.103 148.2 364.836 147.72C364.57 147.227 364.21 146.853 363.756 146.6C363.303 146.333 362.816 146.2 362.296 146.2C361.776 146.2 361.296 146.327 360.856 146.58C360.416 146.833 360.056 147.207 359.776 147.7C359.51 148.18 359.376 148.753 359.376 149.42C359.376 150.087 359.51 150.673 359.776 151.18C360.056 151.673 360.416 152.053 360.856 152.32C361.31 152.587 361.79 152.72 362.296 152.72C362.816 152.72 363.303 152.593 363.756 152.34C364.21 152.073 364.57 151.7 364.836 151.22C365.103 150.727 365.236 150.14 365.236 149.46ZM373.611 142.6C373.118 142.6 372.704 142.447 372.371 142.14C372.051 141.82 371.891 141.427 371.891 140.96C371.891 140.493 372.051 140.107 372.371 139.8C372.704 139.48 373.118 139.32 373.611 139.32C374.104 139.32 374.511 139.48 374.831 139.8C375.164 140.107 375.331 140.493 375.331 140.96C375.331 141.427 375.164 141.82 374.831 142.14C374.511 142.447 374.104 142.6 373.611 142.6ZM374.991 143.92V155H372.191V143.92H374.991ZM385.297 143.76C386.617 143.76 387.684 144.18 388.497 145.02C389.311 145.847 389.717 147.007 389.717 148.5V155H386.917V148.88C386.917 148 386.697 147.327 386.257 146.86C385.817 146.38 385.217 146.14 384.457 146.14C383.684 146.14 383.071 146.38 382.617 146.86C382.177 147.327 381.957 148 381.957 148.88V155H379.157V143.92H381.957V145.3C382.331 144.82 382.804 144.447 383.377 144.18C383.964 143.9 384.604 143.76 385.297 143.76Z" fill="black"/>
<path d="M351.109 221.11C351.109 221.31 351.095 221.49 351.069 221.65H347.019C347.052 222.05 347.192 222.363 347.439 222.59C347.685 222.817 347.989 222.93 348.349 222.93C348.869 222.93 349.239 222.707 349.459 222.26H350.969C350.809 222.793 350.502 223.233 350.049 223.58C349.595 223.92 349.039 224.09 348.379 224.09C347.845 224.09 347.365 223.973 346.939 223.74C346.519 223.5 346.189 223.163 345.949 222.73C345.715 222.297 345.599 221.797 345.599 221.23C345.599 220.657 345.715 220.153 345.949 219.72C346.182 219.287 346.509 218.953 346.929 218.72C347.349 218.487 347.832 218.37 348.379 218.37C348.905 218.37 349.375 218.483 349.789 218.71C350.209 218.937 350.532 219.26 350.759 219.68C350.992 220.093 351.109 220.57 351.109 221.11ZM349.659 220.71C349.652 220.35 349.522 220.063 349.269 219.85C349.015 219.63 348.705 219.52 348.339 219.52C347.992 219.52 347.699 219.627 347.459 219.84C347.225 220.047 347.082 220.337 347.029 220.71H349.659ZM355.891 224L354.751 222.28L353.741 224H352.241L354.051 221.22L352.221 218.46H353.801L354.931 220.17L355.951 218.46H357.451L355.631 221.22L357.471 224H355.891ZM358.571 221.21C358.571 220.65 358.681 220.153 358.901 219.72C359.128 219.287 359.431 218.953 359.811 218.72C360.198 218.487 360.628 218.37 361.101 218.37C361.514 218.37 361.874 218.453 362.181 218.62C362.494 218.787 362.744 218.997 362.931 219.25V218.46H364.341V224H362.931V223.19C362.751 223.45 362.501 223.667 362.181 223.84C361.868 224.007 361.504 224.09 361.091 224.09C360.624 224.09 360.198 223.97 359.811 223.73C359.431 223.49 359.128 223.153 358.901 222.72C358.681 222.28 358.571 221.777 358.571 221.21ZM362.931 221.23C362.931 220.89 362.864 220.6 362.731 220.36C362.598 220.113 362.418 219.927 362.191 219.8C361.964 219.667 361.721 219.6 361.461 219.6C361.201 219.6 360.961 219.663 360.741 219.79C360.521 219.917 360.341 220.103 360.201 220.35C360.068 220.59 360.001 220.877 360.001 221.21C360.001 221.543 360.068 221.837 360.201 222.09C360.341 222.337 360.521 222.527 360.741 222.66C360.968 222.793 361.208 222.86 361.461 222.86C361.721 222.86 361.964 222.797 362.191 222.67C362.418 222.537 362.598 222.35 362.731 222.11C362.864 221.863 362.931 221.57 362.931 221.23ZM373.288 218.38C373.968 218.38 374.515 218.59 374.928 219.01C375.348 219.423 375.558 220.003 375.558 220.75V224H374.158V220.94C374.158 220.507 374.048 220.177 373.828 219.95C373.608 219.717 373.308 219.6 372.928 219.6C372.548 219.6 372.245 219.717 372.018 219.95C371.798 220.177 371.688 220.507 371.688 220.94V224H370.288V220.94C370.288 220.507 370.178 220.177 369.958 219.95C369.738 219.717 369.438 219.6 369.058 219.6C368.672 219.6 368.365 219.717 368.138 219.95C367.918 220.177 367.808 220.507 367.808 220.94V224H366.408V218.46H367.808V219.13C367.988 218.897 368.218 218.713 368.498 218.58C368.785 218.447 369.098 218.38 369.438 218.38C369.872 218.38 370.258 218.473 370.598 218.66C370.938 218.84 371.202 219.1 371.388 219.44C371.568 219.12 371.828 218.863 372.168 218.67C372.515 218.477 372.888 218.38 373.288 218.38ZM378.987 219.26C379.167 219.007 379.414 218.797 379.727 218.63C380.047 218.457 380.41 218.37 380.817 218.37C381.29 218.37 381.717 218.487 382.097 218.72C382.484 218.953 382.787 219.287 383.007 219.72C383.234 220.147 383.347 220.643 383.347 221.21C383.347 221.777 383.234 222.28 383.007 222.72C382.787 223.153 382.484 223.49 382.097 223.73C381.717 223.97 381.29 224.09 380.817 224.09C380.41 224.09 380.05 224.007 379.737 223.84C379.43 223.673 379.18 223.463 378.987 223.21V226.64H377.587V218.46H378.987V219.26ZM381.917 221.21C381.917 220.877 381.847 220.59 381.707 220.35C381.574 220.103 381.394 219.917 381.167 219.79C380.947 219.663 380.707 219.6 380.447 219.6C380.194 219.6 379.954 219.667 379.727 219.8C379.507 219.927 379.327 220.113 379.187 220.36C379.054 220.607 378.987 220.897 378.987 221.23C378.987 221.563 379.054 221.853 379.187 222.1C379.327 222.347 379.507 222.537 379.727 222.67C379.954 222.797 380.194 222.86 380.447 222.86C380.707 222.86 380.947 222.793 381.167 222.66C381.394 222.527 381.574 222.337 381.707 222.09C381.847 221.843 381.917 221.55 381.917 221.21ZM386.464 216.6V224H385.064V216.6H386.464ZM393.697 221.11C393.697 221.31 393.684 221.49 393.657 221.65H389.607C389.641 222.05 389.781 222.363 390.027 222.59C390.274 222.817 390.577 222.93 390.937 222.93C391.457 222.93 391.827 222.707 392.047 222.26H393.557C393.397 222.793 393.091 223.233 392.637 223.58C392.184 223.92 391.627 224.09 390.967 224.09C390.434 224.09 389.954 223.973 389.527 223.74C389.107 223.5 388.777 223.163 388.537 222.73C388.304 222.297 388.187 221.797 388.187 221.23C388.187 220.657 388.304 220.153 388.537 219.72C388.771 219.287 389.097 218.953 389.517 218.72C389.937 218.487 390.421 218.37 390.967 218.37C391.494 218.37 391.964 218.483 392.377 218.71C392.797 218.937 393.121 219.26 393.347 219.68C393.581 220.093 393.697 220.57 393.697 221.11ZM392.247 220.71C392.241 220.35 392.111 220.063 391.857 219.85C391.604 219.63 391.294 219.52 390.927 219.52C390.581 219.52 390.287 219.627 390.047 219.84C389.814 220.047 389.671 220.337 389.617 220.71H392.247ZM400.749 217.44C401.523 217.44 402.193 217.583 402.759 217.87C403.326 218.157 403.759 218.56 404.059 219.08C404.366 219.6 404.519 220.2 404.519 220.88C404.519 221.427 404.423 221.943 404.229 222.43C404.043 222.917 403.769 223.31 403.409 223.61C403.049 223.91 402.623 224.06 402.129 224.06C401.783 224.06 401.503 223.99 401.289 223.85C401.076 223.703 400.939 223.497 400.879 223.23C400.686 223.49 400.436 223.697 400.129 223.85C399.823 223.997 399.499 224.07 399.159 224.07C398.653 224.07 398.256 223.92 397.969 223.62C397.683 223.313 397.539 222.897 397.539 222.37C397.539 221.87 397.643 221.403 397.849 220.97C398.056 220.537 398.343 220.19 398.709 219.93C399.076 219.663 399.489 219.53 399.949 219.53C400.523 219.53 400.916 219.73 401.129 220.13L401.219 219.61H402.389L401.919 222.31C401.899 222.437 401.889 222.553 401.889 222.66C401.889 222.82 401.923 222.94 401.989 223.02C402.056 223.1 402.169 223.14 402.329 223.14C402.569 223.14 402.769 223.027 402.929 222.8C403.096 222.573 403.219 222.29 403.299 221.95C403.386 221.61 403.429 221.27 403.429 220.93C403.429 220.123 403.183 219.5 402.689 219.06C402.196 218.613 401.499 218.39 400.599 218.39C399.833 218.39 399.139 218.577 398.519 218.95C397.899 219.317 397.413 219.82 397.059 220.46C396.713 221.093 396.539 221.8 396.539 222.58C396.539 223.407 396.783 224.043 397.269 224.49C397.763 224.937 398.459 225.16 399.359 225.16C400.006 225.16 400.576 225.043 401.069 224.81L401.269 225.73C400.636 225.997 399.933 226.13 399.159 226.13C398.413 226.13 397.759 225.987 397.199 225.7C396.639 225.42 396.206 225.02 395.899 224.5C395.593 223.98 395.439 223.377 395.439 222.69C395.439 221.71 395.666 220.82 396.119 220.02C396.579 219.22 397.213 218.59 398.019 218.13C398.833 217.67 399.743 217.44 400.749 217.44ZM399.599 223.03C399.839 223.03 400.059 222.96 400.259 222.82C400.459 222.68 400.616 222.493 400.729 222.26C400.849 222.027 400.909 221.777 400.909 221.51C400.909 221.23 400.833 221.003 400.679 220.83C400.526 220.657 400.313 220.57 400.039 220.57C399.793 220.57 399.576 220.647 399.389 220.8C399.203 220.947 399.056 221.14 398.949 221.38C398.849 221.62 398.799 221.873 398.799 222.14C398.799 222.413 398.866 222.63 398.999 222.79C399.133 222.95 399.333 223.03 399.599 223.03ZM411.777 221.11C411.777 221.31 411.764 221.49 411.737 221.65H407.687C407.72 222.05 407.86 222.363 408.107 222.59C408.354 222.817 408.657 222.93 409.017 222.93C409.537 222.93 409.907 222.707 410.127 222.26H411.637C411.477 222.793 411.17 223.233 410.717 223.58C410.264 223.92 409.707 224.09 409.047 224.09C408.514 224.09 408.034 223.973 407.607 223.74C407.187 223.5 406.857 223.163 406.617 222.73C406.384 222.297 406.267 221.797 406.267 221.23C406.267 220.657 406.384 220.153 406.617 219.72C406.85 219.287 407.177 218.953 407.597 218.72C408.017 218.487 408.5 218.37 409.047 218.37C409.574 218.37 410.044 218.483 410.457 218.71C410.877 218.937 411.2 219.26 411.427 219.68C411.66 220.093 411.777 220.57 411.777 221.11ZM410.327 220.71C410.32 220.35 410.19 220.063 409.937 219.85C409.684 219.63 409.374 219.52 409.007 219.52C408.66 219.52 408.367 219.627 408.127 219.84C407.894 220.047 407.75 220.337 407.697 220.71H410.327ZM420.379 218.38C421.059 218.38 421.606 218.59 422.019 219.01C422.439 219.423 422.649 220.003 422.649 220.75V224H421.249V220.94C421.249 220.507 421.139 220.177 420.919 219.95C420.699 219.717 420.399 219.6 420.019 219.6C419.639 219.6 419.336 219.717 419.109 219.95C418.889 220.177 418.779 220.507 418.779 220.94V224H417.379V220.94C417.379 220.507 417.269 220.177 417.049 219.95C416.829 219.717 416.529 219.6 416.149 219.6C415.762 219.6 415.456 219.717 415.229 219.95C415.009 220.177 414.899 220.507 414.899 220.94V224H413.499V218.46H414.899V219.13C415.079 218.897 415.309 218.713 415.589 218.58C415.876 218.447 416.189 218.38 416.529 218.38C416.962 218.38 417.349 218.473 417.689 218.66C418.029 218.84 418.292 219.1 418.479 219.44C418.659 219.12 418.919 218.863 419.259 218.67C419.606 218.477 419.979 218.38 420.379 218.38ZM424.318 221.21C424.318 220.65 424.428 220.153 424.648 219.72C424.874 219.287 425.178 218.953 425.558 218.72C425.944 218.487 426.374 218.37 426.848 218.37C427.261 218.37 427.621 218.453 427.928 218.62C428.241 218.787 428.491 218.997 428.678 219.25V218.46H430.088V224H428.678V223.19C428.498 223.45 428.248 223.667 427.928 223.84C427.614 224.007 427.251 224.09 426.838 224.09C426.371 224.09 425.944 223.97 425.558 223.73C425.178 223.49 424.874 223.153 424.648 222.72C424.428 222.28 424.318 221.777 424.318 221.21ZM428.678 221.23C428.678 220.89 428.611 220.6 428.478 220.36C428.344 220.113 428.164 219.927 427.938 219.8C427.711 219.667 427.468 219.6 427.208 219.6C426.948 219.6 426.708 219.663 426.488 219.79C426.268 219.917 426.088 220.103 425.948 220.35C425.814 220.59 425.748 220.877 425.748 221.21C425.748 221.543 425.814 221.837 425.948 222.09C426.088 222.337 426.268 222.527 426.488 222.66C426.714 222.793 426.954 222.86 427.208 222.86C427.468 222.86 427.711 222.797 427.938 222.67C428.164 222.537 428.344 222.35 428.478 222.11C428.611 221.863 428.678 221.57 428.678 221.23ZM432.865 217.8C432.618 217.8 432.412 217.723 432.245 217.57C432.085 217.41 432.005 217.213 432.005 216.98C432.005 216.747 432.085 216.553 432.245 216.4C432.412 216.24 432.618 216.16 432.865 216.16C433.112 216.16 433.315 216.24 433.475 216.4C433.642 216.553 433.725 216.747 433.725 216.98C433.725 217.213 433.642 217.41 433.475 217.57C433.315 217.723 433.112 217.8 432.865 217.8ZM433.555 218.46V224H432.155V218.46H433.555ZM437.038 216.6V224H435.638V216.6H437.038ZM439.741 224.07C439.488 224.07 439.278 223.993 439.111 223.84C438.951 223.68 438.871 223.483 438.871 223.25C438.871 223.017 438.951 222.823 439.111 222.67C439.278 222.51 439.488 222.43 439.741 222.43C439.988 222.43 440.191 222.51 440.351 222.67C440.511 222.823 440.591 223.017 440.591 223.25C440.591 223.483 440.511 223.68 440.351 223.84C440.191 223.993 439.988 224.07 439.741 224.07ZM442.059 221.23C442.059 220.657 442.176 220.157 442.409 219.73C442.642 219.297 442.966 218.963 443.379 218.73C443.792 218.49 444.266 218.37 444.799 218.37C445.486 218.37 446.052 218.543 446.499 218.89C446.952 219.23 447.256 219.71 447.409 220.33H445.899C445.819 220.09 445.682 219.903 445.489 219.77C445.302 219.63 445.069 219.56 444.789 219.56C444.389 219.56 444.072 219.707 443.839 220C443.606 220.287 443.489 220.697 443.489 221.23C443.489 221.757 443.606 222.167 443.839 222.46C444.072 222.747 444.389 222.89 444.789 222.89C445.356 222.89 445.726 222.637 445.899 222.13H447.409C447.256 222.73 446.952 223.207 446.499 223.56C446.046 223.913 445.479 224.09 444.799 224.09C444.266 224.09 443.792 223.973 443.379 223.74C442.966 223.5 442.642 223.167 442.409 222.74C442.176 222.307 442.059 221.803 442.059 221.23ZM451.595 224.09C451.061 224.09 450.581 223.973 450.155 223.74C449.728 223.5 449.391 223.163 449.145 222.73C448.905 222.297 448.785 221.797 448.785 221.23C448.785 220.663 448.908 220.163 449.155 219.73C449.408 219.297 449.751 218.963 450.185 218.73C450.618 218.49 451.101 218.37 451.635 218.37C452.168 218.37 452.651 218.49 453.085 218.73C453.518 218.963 453.858 219.297 454.105 219.73C454.358 220.163 454.485 220.663 454.485 221.23C454.485 221.797 454.355 222.297 454.095 222.73C453.841 223.163 453.495 223.5 453.055 223.74C452.621 223.973 452.135 224.09 451.595 224.09ZM451.595 222.87C451.848 222.87 452.085 222.81 452.305 222.69C452.531 222.563 452.711 222.377 452.845 222.13C452.978 221.883 453.045 221.583 453.045 221.23C453.045 220.703 452.905 220.3 452.625 220.02C452.351 219.733 452.015 219.59 451.615 219.59C451.215 219.59 450.878 219.733 450.605 220.02C450.338 220.3 450.205 220.703 450.205 221.23C450.205 221.757 450.335 222.163 450.595 222.45C450.861 222.73 451.195 222.87 451.595 222.87ZM463.091 218.38C463.771 218.38 464.318 218.59 464.731 219.01C465.151 219.423 465.361 220.003 465.361 220.75V224H463.961V220.94C463.961 220.507 463.851 220.177 463.631 219.95C463.411 219.717 463.111 219.6 462.731 219.6C462.351 219.6 462.048 219.717 461.821 219.95C461.601 220.177 461.491 220.507 461.491 220.94V224H460.091V220.94C460.091 220.507 459.981 220.177 459.761 219.95C459.541 219.717 459.241 219.6 458.861 219.6C458.475 219.6 458.168 219.717 457.941 219.95C457.721 220.177 457.611 220.507 457.611 220.94V224H456.211V218.46H457.611V219.13C457.791 218.897 458.021 218.713 458.301 218.58C458.588 218.447 458.901 218.38 459.241 218.38C459.675 218.38 460.061 218.473 460.401 218.66C460.741 218.84 461.005 219.1 461.191 219.44C461.371 219.12 461.631 218.863 461.971 218.67C462.318 218.477 462.691 218.38 463.091 218.38Z" fill="#282937"/>
<path d="M351.199 284.18C351.199 284.553 351.109 284.903 350.929 285.23C350.756 285.557 350.479 285.82 350.099 286.02C349.726 286.22 349.252 286.32 348.679 286.32H347.509V289H346.109V282.02H348.679C349.219 282.02 349.679 282.113 350.059 282.3C350.439 282.487 350.722 282.743 350.909 283.07C351.102 283.397 351.199 283.767 351.199 284.18ZM348.619 285.19C349.006 285.19 349.292 285.103 349.479 284.93C349.666 284.75 349.759 284.5 349.759 284.18C349.759 283.5 349.379 283.16 348.619 283.16H347.509V285.19H348.619ZM358.223 282.44C358.996 282.44 359.666 282.583 360.233 282.87C360.8 283.157 361.233 283.56 361.533 284.08C361.84 284.6 361.993 285.2 361.993 285.88C361.993 286.427 361.896 286.943 361.703 287.43C361.516 287.917 361.243 288.31 360.883 288.61C360.523 288.91 360.096 289.06 359.603 289.06C359.256 289.06 358.976 288.99 358.763 288.85C358.55 288.703 358.413 288.497 358.353 288.23C358.16 288.49 357.91 288.697 357.603 288.85C357.296 288.997 356.973 289.07 356.633 289.07C356.126 289.07 355.73 288.92 355.443 288.62C355.156 288.313 355.013 287.897 355.013 287.37C355.013 286.87 355.116 286.403 355.323 285.97C355.53 285.537 355.816 285.19 356.183 284.93C356.55 284.663 356.963 284.53 357.423 284.53C357.996 284.53 358.39 284.73 358.603 285.13L358.693 284.61H359.863L359.393 287.31C359.373 287.437 359.363 287.553 359.363 287.66C359.363 287.82 359.396 287.94 359.463 288.02C359.53 288.1 359.643 288.14 359.803 288.14C360.043 288.14 360.243 288.027 360.403 287.8C360.57 287.573 360.693 287.29 360.773 286.95C360.86 286.61 360.903 286.27 360.903 285.93C360.903 285.123 360.656 284.5 360.163 284.06C359.67 283.613 358.973 283.39 358.073 283.39C357.306 283.39 356.613 283.577 355.993 283.95C355.373 284.317 354.886 284.82 354.533 285.46C354.186 286.093 354.013 286.8 354.013 287.58C354.013 288.407 354.256 289.043 354.743 289.49C355.236 289.937 355.933 290.16 356.833 290.16C357.48 290.16 358.05 290.043 358.543 289.81L358.743 290.73C358.11 290.997 357.406 291.13 356.633 291.13C355.886 291.13 355.233 290.987 354.673 290.7C354.113 290.42 353.68 290.02 353.373 289.5C353.066 288.98 352.913 288.377 352.913 287.69C352.913 286.71 353.14 285.82 353.593 285.02C354.053 284.22 354.686 283.59 355.493 283.13C356.306 282.67 357.216 282.44 358.223 282.44ZM357.073 288.03C357.313 288.03 357.533 287.96 357.733 287.82C357.933 287.68 358.09 287.493 358.203 287.26C358.323 287.027 358.383 286.777 358.383 286.51C358.383 286.23 358.306 286.003 358.153 285.83C358 285.657 357.786 285.57 357.513 285.57C357.266 285.57 357.05 285.647 356.863 285.8C356.676 285.947 356.53 286.14 356.423 286.38C356.323 286.62 356.273 286.873 356.273 287.14C356.273 287.413 356.34 287.63 356.473 287.79C356.606 287.95 356.806 288.03 357.073 288.03ZM366.221 289.09C365.768 289.09 365.361 289.01 365.001 288.85C364.641 288.683 364.354 288.46 364.141 288.18C363.934 287.9 363.821 287.59 363.801 287.25H365.211C365.238 287.463 365.341 287.64 365.521 287.78C365.708 287.92 365.938 287.99 366.211 287.99C366.478 287.99 366.684 287.937 366.831 287.83C366.984 287.723 367.061 287.587 367.061 287.42C367.061 287.24 366.968 287.107 366.781 287.02C366.601 286.927 366.311 286.827 365.911 286.72C365.498 286.62 365.158 286.517 364.891 286.41C364.631 286.303 364.404 286.14 364.211 285.92C364.024 285.7 363.931 285.403 363.931 285.03C363.931 284.723 364.018 284.443 364.191 284.19C364.371 283.937 364.624 283.737 364.951 283.59C365.284 283.443 365.674 283.37 366.121 283.37C366.781 283.37 367.308 283.537 367.701 283.87C368.094 284.197 368.311 284.64 368.351 285.2H367.011C366.991 284.98 366.898 284.807 366.731 284.68C366.571 284.547 366.354 284.48 366.081 284.48C365.828 284.48 365.631 284.527 365.491 284.62C365.358 284.713 365.291 284.843 365.291 285.01C365.291 285.197 365.384 285.34 365.571 285.44C365.758 285.533 366.048 285.63 366.441 285.73C366.841 285.83 367.171 285.933 367.431 286.04C367.691 286.147 367.914 286.313 368.101 286.54C368.294 286.76 368.394 287.053 368.401 287.42C368.401 287.74 368.311 288.027 368.131 288.28C367.958 288.533 367.704 288.733 367.371 288.88C367.044 289.02 366.661 289.09 366.221 289.09ZM372.37 289.09C371.917 289.09 371.51 289.01 371.15 288.85C370.79 288.683 370.503 288.46 370.29 288.18C370.083 287.9 369.97 287.59 369.95 287.25H371.36C371.387 287.463 371.49 287.64 371.67 287.78C371.857 287.92 372.087 287.99 372.36 287.99C372.627 287.99 372.833 287.937 372.98 287.83C373.133 287.723 373.21 287.587 373.21 287.42C373.21 287.24 373.117 287.107 372.93 287.02C372.75 286.927 372.46 286.827 372.06 286.72C371.647 286.62 371.307 286.517 371.04 286.41C370.78 286.303 370.553 286.14 370.36 285.92C370.173 285.7 370.08 285.403 370.08 285.03C370.08 284.723 370.167 284.443 370.34 284.19C370.52 283.937 370.773 283.737 371.1 283.59C371.433 283.443 371.823 283.37 372.27 283.37C372.93 283.37 373.457 283.537 373.85 283.87C374.243 284.197 374.46 284.64 374.5 285.2H373.16C373.14 284.98 373.047 284.807 372.88 284.68C372.72 284.547 372.503 284.48 372.23 284.48C371.977 284.48 371.78 284.527 371.64 284.62C371.507 284.713 371.44 284.843 371.44 285.01C371.44 285.197 371.533 285.34 371.72 285.44C371.907 285.533 372.197 285.63 372.59 285.73C372.99 285.83 373.32 285.933 373.58 286.04C373.84 286.147 374.063 286.313 374.25 286.54C374.443 286.76 374.543 287.053 374.55 287.42C374.55 287.74 374.46 288.027 374.28 288.28C374.107 288.533 373.853 288.733 373.52 288.88C373.193 289.02 372.81 289.09 372.37 289.09ZM385.729 282.02L383.779 289H382.129L380.819 284.03L379.449 289L377.809 289.01L375.929 282.02H377.429L378.659 287.44L380.079 282.02H381.639L382.979 287.41L384.219 282.02H385.729ZM389.804 289.09C389.27 289.09 388.79 288.973 388.364 288.74C387.937 288.5 387.6 288.163 387.354 287.73C387.114 287.297 386.994 286.797 386.994 286.23C386.994 285.663 387.117 285.163 387.364 284.73C387.617 284.297 387.96 283.963 388.394 283.73C388.827 283.49 389.31 283.37 389.844 283.37C390.377 283.37 390.86 283.49 391.294 283.73C391.727 283.963 392.067 284.297 392.314 284.73C392.567 285.163 392.694 285.663 392.694 286.23C392.694 286.797 392.564 287.297 392.304 287.73C392.05 288.163 391.704 288.5 391.264 288.74C390.83 288.973 390.344 289.09 389.804 289.09ZM389.804 287.87C390.057 287.87 390.294 287.81 390.514 287.69C390.74 287.563 390.92 287.377 391.054 287.13C391.187 286.883 391.254 286.583 391.254 286.23C391.254 285.703 391.114 285.3 390.834 285.02C390.56 284.733 390.224 284.59 389.824 284.59C389.424 284.59 389.087 284.733 388.814 285.02C388.547 285.3 388.414 285.703 388.414 286.23C388.414 286.757 388.544 287.163 388.804 287.45C389.07 287.73 389.404 287.87 389.804 287.87ZM395.82 284.32C396 284.027 396.234 283.797 396.52 283.63C396.814 283.463 397.147 283.38 397.52 283.38V284.85H397.15C396.71 284.85 396.377 284.953 396.15 285.16C395.93 285.367 395.82 285.727 395.82 286.24V289H394.42V283.46H395.82V284.32ZM402.443 289L400.563 286.64V289H399.163V281.6H400.563V285.81L402.423 283.46H404.243L401.803 286.24L404.263 289H402.443ZM407.513 281.9L407.353 286.73H406.173L406.003 281.9H407.513ZM406.793 289.07C406.54 289.07 406.33 288.993 406.163 288.84C406.003 288.68 405.923 288.483 405.923 288.25C405.923 288.017 406.003 287.823 406.163 287.67C406.33 287.51 406.54 287.43 406.793 287.43C407.04 287.43 407.243 287.51 407.403 287.67C407.563 287.823 407.643 288.017 407.643 288.25C407.643 288.483 407.563 288.68 407.403 288.84C407.243 288.993 407.04 289.07 406.793 289.07ZM409.608 283V281.71H412.018V289H410.578V283H409.608ZM414.541 287.42C415.181 286.887 415.691 286.443 416.071 286.09C416.451 285.73 416.768 285.357 417.021 284.97C417.275 284.583 417.401 284.203 417.401 283.83C417.401 283.49 417.321 283.223 417.161 283.03C417.001 282.837 416.755 282.74 416.421 282.74C416.088 282.74 415.831 282.853 415.651 283.08C415.471 283.3 415.378 283.603 415.371 283.99H414.011C414.038 283.19 414.275 282.583 414.721 282.17C415.175 281.757 415.748 281.55 416.441 281.55C417.201 281.55 417.785 281.753 418.191 282.16C418.598 282.56 418.801 283.09 418.801 283.75C418.801 284.27 418.661 284.767 418.381 285.24C418.101 285.713 417.781 286.127 417.421 286.48C417.061 286.827 416.591 287.247 416.011 287.74H418.961V288.9H414.021V287.86L414.541 287.42ZM420.564 283.63C420.597 282.963 420.83 282.45 421.264 282.09C421.704 281.723 422.28 281.54 422.994 281.54C423.48 281.54 423.897 281.627 424.244 281.8C424.59 281.967 424.85 282.197 425.024 282.49C425.204 282.777 425.294 283.103 425.294 283.47C425.294 283.89 425.184 284.247 424.964 284.54C424.75 284.827 424.494 285.02 424.194 285.12V285.16C424.58 285.28 424.88 285.493 425.094 285.8C425.314 286.107 425.424 286.5 425.424 286.98C425.424 287.38 425.33 287.737 425.144 288.05C424.964 288.363 424.694 288.61 424.334 288.79C423.98 288.963 423.554 289.05 423.054 289.05C422.3 289.05 421.687 288.86 421.214 288.48C420.74 288.1 420.49 287.54 420.464 286.8H421.824C421.837 287.127 421.947 287.39 422.154 287.59C422.367 287.783 422.657 287.88 423.024 287.88C423.364 287.88 423.624 287.787 423.804 287.6C423.99 287.407 424.084 287.16 424.084 286.86C424.084 286.46 423.957 286.173 423.704 286C423.45 285.827 423.057 285.74 422.524 285.74H422.234V284.59H422.524C423.47 284.59 423.944 284.273 423.944 283.64C423.944 283.353 423.857 283.13 423.684 282.97C423.517 282.81 423.274 282.73 422.954 282.73C422.64 282.73 422.397 282.817 422.224 282.99C422.057 283.157 421.96 283.37 421.934 283.63H420.564Z" fill="#282937"/>
<path opacity="0.6" d="M333.966 187.558V190.414H337.326V191.716H333.966V194.698H337.746V196H332.37V186.256H337.746V187.558H333.966ZM350.03 188.16C350.637 188.16 351.178 188.286 351.654 188.538C352.139 188.79 352.517 189.163 352.788 189.658C353.068 190.153 353.208 190.75 353.208 191.45V196H351.626V191.688C351.626 190.997 351.453 190.47 351.108 190.106C350.763 189.733 350.291 189.546 349.694 189.546C349.097 189.546 348.621 189.733 348.266 190.106C347.921 190.47 347.748 190.997 347.748 191.688V196H346.166V191.688C346.166 190.997 345.993 190.47 345.648 190.106C345.303 189.733 344.831 189.546 344.234 189.546C343.637 189.546 343.161 189.733 342.806 190.106C342.461 190.47 342.288 190.997 342.288 191.688V196H340.692V188.286H342.288V189.168C342.549 188.851 342.881 188.603 343.282 188.426C343.683 188.249 344.113 188.16 344.57 188.16C345.186 188.16 345.737 188.291 346.222 188.552C346.707 188.813 347.081 189.191 347.342 189.686C347.575 189.219 347.939 188.851 348.434 188.58C348.929 188.3 349.461 188.16 350.03 188.16ZM355.687 192.108C355.687 191.333 355.846 190.647 356.163 190.05C356.49 189.453 356.928 188.991 357.479 188.664C358.039 188.328 358.655 188.16 359.327 188.16C359.934 188.16 360.461 188.281 360.909 188.524C361.366 188.757 361.73 189.051 362.001 189.406V188.286H363.611V196H362.001V194.852C361.73 195.216 361.362 195.519 360.895 195.762C360.428 196.005 359.896 196.126 359.299 196.126C358.636 196.126 358.03 195.958 357.479 195.622C356.928 195.277 356.49 194.801 356.163 194.194C355.846 193.578 355.687 192.883 355.687 192.108ZM362.001 192.136C362.001 191.604 361.889 191.142 361.665 190.75C361.45 190.358 361.166 190.059 360.811 189.854C360.456 189.649 360.074 189.546 359.663 189.546C359.252 189.546 358.87 189.649 358.515 189.854C358.16 190.05 357.871 190.344 357.647 190.736C357.432 191.119 357.325 191.576 357.325 192.108C357.325 192.64 357.432 193.107 357.647 193.508C357.871 193.909 358.16 194.217 358.515 194.432C358.879 194.637 359.262 194.74 359.663 194.74C360.074 194.74 360.456 194.637 360.811 194.432C361.166 194.227 361.45 193.928 361.665 193.536C361.889 193.135 362.001 192.668 362.001 192.136ZM367.499 187.264C367.21 187.264 366.967 187.166 366.771 186.97C366.575 186.774 366.477 186.531 366.477 186.242C366.477 185.953 366.575 185.71 366.771 185.514C366.967 185.318 367.21 185.22 367.499 185.22C367.779 185.22 368.017 185.318 368.213 185.514C368.409 185.71 368.507 185.953 368.507 186.242C368.507 186.531 368.409 186.774 368.213 186.97C368.017 187.166 367.779 187.264 367.499 187.264ZM368.283 188.286V196H366.687V188.286H368.283ZM372.955 185.64V196H371.359V185.64H372.955Z" fill="black"/>
<path opacity="0.6" d="M338.881 252.168C338.881 252.663 338.764 253.129 338.531 253.568C338.297 254.007 337.924 254.366 337.411 254.646C336.897 254.917 336.239 255.052 335.437 255.052H333.673V259H332.077V249.27H335.437C336.183 249.27 336.813 249.401 337.327 249.662C337.849 249.914 338.237 250.259 338.489 250.698C338.75 251.137 338.881 251.627 338.881 252.168ZM335.437 253.75C336.043 253.75 336.496 253.615 336.795 253.344C337.093 253.064 337.243 252.672 337.243 252.168C337.243 251.104 336.641 250.572 335.437 250.572H333.673V253.75H335.437ZM340.851 255.108C340.851 254.333 341.01 253.647 341.327 253.05C341.654 252.453 342.092 251.991 342.643 251.664C343.203 251.328 343.819 251.16 344.491 251.16C345.098 251.16 345.625 251.281 346.073 251.524C346.53 251.757 346.894 252.051 347.165 252.406V251.286H348.775V259H347.165V257.852C346.894 258.216 346.526 258.519 346.059 258.762C345.592 259.005 345.06 259.126 344.463 259.126C343.8 259.126 343.194 258.958 342.643 258.622C342.092 258.277 341.654 257.801 341.327 257.194C341.01 256.578 340.851 255.883 340.851 255.108ZM347.165 255.136C347.165 254.604 347.053 254.142 346.829 253.75C346.614 253.358 346.33 253.059 345.975 252.854C345.62 252.649 345.238 252.546 344.827 252.546C344.416 252.546 344.034 252.649 343.679 252.854C343.324 253.05 343.035 253.344 342.811 253.736C342.596 254.119 342.489 254.576 342.489 255.108C342.489 255.64 342.596 256.107 342.811 256.508C343.035 256.909 343.324 257.217 343.679 257.432C344.043 257.637 344.426 257.74 344.827 257.74C345.238 257.74 345.62 257.637 345.975 257.432C346.33 257.227 346.614 256.928 346.829 256.536C347.053 256.135 347.165 255.668 347.165 255.136ZM354.651 259.126C354.045 259.126 353.499 259.019 353.013 258.804C352.537 258.58 352.159 258.281 351.879 257.908C351.599 257.525 351.45 257.101 351.431 256.634H353.083C353.111 256.961 353.265 257.236 353.545 257.46C353.835 257.675 354.194 257.782 354.623 257.782C355.071 257.782 355.417 257.698 355.659 257.53C355.911 257.353 356.037 257.129 356.037 256.858C356.037 256.569 355.897 256.354 355.617 256.214C355.347 256.074 354.913 255.92 354.315 255.752C353.737 255.593 353.265 255.439 352.901 255.29C352.537 255.141 352.22 254.912 351.949 254.604C351.688 254.296 351.557 253.89 351.557 253.386C351.557 252.975 351.679 252.602 351.921 252.266C352.164 251.921 352.509 251.65 352.957 251.454C353.415 251.258 353.937 251.16 354.525 251.16C355.403 251.16 356.107 251.384 356.639 251.832C357.181 252.271 357.47 252.873 357.507 253.638H355.911C355.883 253.293 355.743 253.017 355.491 252.812C355.239 252.607 354.899 252.504 354.469 252.504C354.049 252.504 353.727 252.583 353.503 252.742C353.279 252.901 353.167 253.111 353.167 253.372C353.167 253.577 353.242 253.75 353.391 253.89C353.541 254.03 353.723 254.142 353.937 254.226C354.152 254.301 354.469 254.399 354.889 254.52C355.449 254.669 355.907 254.823 356.261 254.982C356.625 255.131 356.938 255.355 357.199 255.654C357.461 255.953 357.596 256.349 357.605 256.844C357.605 257.283 357.484 257.675 357.241 258.02C356.999 258.365 356.653 258.636 356.205 258.832C355.767 259.028 355.249 259.126 354.651 259.126ZM363.11 259.126C362.503 259.126 361.957 259.019 361.472 258.804C360.996 258.58 360.618 258.281 360.338 257.908C360.058 257.525 359.908 257.101 359.89 256.634H361.542C361.57 256.961 361.724 257.236 362.004 257.46C362.293 257.675 362.652 257.782 363.082 257.782C363.53 257.782 363.875 257.698 364.118 257.53C364.37 257.353 364.496 257.129 364.496 256.858C364.496 256.569 364.356 256.354 364.076 256.214C363.805 256.074 363.371 255.92 362.774 255.752C362.195 255.593 361.724 255.439 361.36 255.29C360.996 255.141 360.678 254.912 360.408 254.604C360.146 254.296 360.016 253.89 360.016 253.386C360.016 252.975 360.137 252.602 360.38 252.266C360.622 251.921 360.968 251.65 361.416 251.454C361.873 251.258 362.396 251.16 362.984 251.16C363.861 251.16 364.566 251.384 365.098 251.832C365.639 252.271 365.928 252.873 365.966 253.638H364.37C364.342 253.293 364.202 253.017 363.95 252.812C363.698 252.607 363.357 252.504 362.928 252.504C362.508 252.504 362.186 252.583 361.962 252.742C361.738 252.901 361.626 253.111 361.626 253.372C361.626 253.577 361.7 253.75 361.85 253.89C361.999 254.03 362.181 254.142 362.396 254.226C362.61 254.301 362.928 254.399 363.348 254.52C363.908 254.669 364.365 254.823 364.72 254.982C365.084 255.131 365.396 255.355 365.658 255.654C365.919 255.953 366.054 256.349 366.064 256.844C366.064 257.283 365.942 257.675 365.7 258.02C365.457 258.365 365.112 258.636 364.664 258.832C364.225 259.028 363.707 259.126 363.11 259.126ZM379.128 251.286L376.734 259H375.054L373.5 253.302L371.946 259H370.266L367.858 251.286H369.482L371.092 257.488L372.73 251.286H374.396L375.964 257.46L377.56 251.286H379.128ZM384.647 259.126C383.919 259.126 383.261 258.963 382.673 258.636C382.085 258.3 381.623 257.833 381.287 257.236C380.951 256.629 380.783 255.929 380.783 255.136C380.783 254.352 380.956 253.657 381.301 253.05C381.646 252.443 382.118 251.977 382.715 251.65C383.312 251.323 383.98 251.16 384.717 251.16C385.454 251.16 386.122 251.323 386.719 251.65C387.316 251.977 387.788 252.443 388.133 253.05C388.478 253.657 388.651 254.352 388.651 255.136C388.651 255.92 388.474 256.615 388.119 257.222C387.764 257.829 387.279 258.3 386.663 258.636C386.056 258.963 385.384 259.126 384.647 259.126ZM384.647 257.74C385.058 257.74 385.44 257.642 385.795 257.446C386.159 257.25 386.453 256.956 386.677 256.564C386.901 256.172 387.013 255.696 387.013 255.136C387.013 254.576 386.906 254.105 386.691 253.722C386.476 253.33 386.192 253.036 385.837 252.84C385.482 252.644 385.1 252.546 384.689 252.546C384.278 252.546 383.896 252.644 383.541 252.84C383.196 253.036 382.92 253.33 382.715 253.722C382.51 254.105 382.407 254.576 382.407 255.136C382.407 255.967 382.617 256.611 383.037 257.068C383.466 257.516 384.003 257.74 384.647 257.74ZM392.805 252.406C393.038 252.014 393.346 251.711 393.729 251.496C394.121 251.272 394.583 251.16 395.115 251.16V252.812H394.709C394.083 252.812 393.607 252.971 393.281 253.288C392.963 253.605 392.805 254.156 392.805 254.94V259H391.209V251.286H392.805V252.406ZM397.03 255.108C397.03 254.333 397.188 253.647 397.506 253.05C397.832 252.453 398.271 251.991 398.822 251.664C399.382 251.328 400.002 251.16 400.684 251.16C401.188 251.16 401.682 251.272 402.168 251.496C402.662 251.711 403.054 252 403.344 252.364V248.64H404.954V259H403.344V257.838C403.082 258.211 402.718 258.519 402.252 258.762C401.794 259.005 401.267 259.126 400.67 259.126C399.998 259.126 399.382 258.958 398.822 258.622C398.271 258.277 397.832 257.801 397.506 257.194C397.188 256.578 397.03 255.883 397.03 255.108ZM403.344 255.136C403.344 254.604 403.232 254.142 403.008 253.75C402.793 253.358 402.508 253.059 402.154 252.854C401.799 252.649 401.416 252.546 401.006 252.546C400.595 252.546 400.212 252.649 399.858 252.854C399.503 253.05 399.214 253.344 398.99 253.736C398.775 254.119 398.668 254.576 398.668 255.108C398.668 255.64 398.775 256.107 398.99 256.508C399.214 256.909 399.503 257.217 399.858 257.432C400.222 257.637 400.604 257.74 401.006 257.74C401.416 257.74 401.799 257.637 402.154 257.432C402.508 257.227 402.793 256.928 403.008 256.536C403.232 256.135 403.344 255.668 403.344 255.136Z" fill="black"/>
<path d="M344.882 338.668H347.642V340H343.202V331.624H344.882V338.668ZM352.502 340.108C351.862 340.108 351.286 339.968 350.774 339.688C350.262 339.4 349.858 338.996 349.562 338.476C349.274 337.956 349.13 337.356 349.13 336.676C349.13 335.996 349.278 335.396 349.574 334.876C349.878 334.356 350.29 333.956 350.81 333.676C351.33 333.388 351.91 333.244 352.55 333.244C353.19 333.244 353.77 333.388 354.29 333.676C354.81 333.956 355.218 334.356 355.514 334.876C355.818 335.396 355.97 335.996 355.97 336.676C355.97 337.356 355.814 337.956 355.502 338.476C355.198 338.996 354.782 339.4 354.254 339.688C353.734 339.968 353.15 340.108 352.502 340.108ZM352.502 338.644C352.806 338.644 353.09 338.572 353.354 338.428C353.626 338.276 353.842 338.052 354.002 337.756C354.162 337.46 354.242 337.1 354.242 336.676C354.242 336.044 354.074 335.56 353.738 335.224C353.41 334.88 353.006 334.708 352.526 334.708C352.046 334.708 351.642 334.88 351.314 335.224C350.994 335.56 350.834 336.044 350.834 336.676C350.834 337.308 350.99 337.796 351.302 338.14C351.622 338.476 352.022 338.644 352.502 338.644ZM360.646 333.244C361.142 333.244 361.578 333.344 361.954 333.544C362.33 333.736 362.626 333.988 362.842 334.3V333.352H364.534V340.048C364.534 340.664 364.41 341.212 364.162 341.692C363.914 342.18 363.542 342.564 363.046 342.844C362.55 343.132 361.95 343.276 361.246 343.276C360.302 343.276 359.526 343.056 358.918 342.616C358.318 342.176 357.978 341.576 357.898 340.816H359.566C359.654 341.12 359.842 341.36 360.13 341.536C360.426 341.72 360.782 341.812 361.198 341.812C361.686 341.812 362.082 341.664 362.386 341.368C362.69 341.08 362.842 340.64 362.842 340.048V339.016C362.626 339.328 362.326 339.588 361.942 339.796C361.566 340.004 361.134 340.108 360.646 340.108C360.086 340.108 359.574 339.964 359.11 339.676C358.646 339.388 358.278 338.984 358.006 338.464C357.742 337.936 357.61 337.332 357.61 336.652C357.61 335.98 357.742 335.384 358.006 334.864C358.278 334.344 358.642 333.944 359.098 333.664C359.562 333.384 360.078 333.244 360.646 333.244ZM362.842 336.676C362.842 336.268 362.762 335.92 362.602 335.632C362.442 335.336 362.226 335.112 361.954 334.96C361.682 334.8 361.39 334.72 361.078 334.72C360.766 334.72 360.478 334.796 360.214 334.948C359.95 335.1 359.734 335.324 359.566 335.62C359.406 335.908 359.326 336.252 359.326 336.652C359.326 337.052 359.406 337.404 359.566 337.708C359.734 338.004 359.95 338.232 360.214 338.392C360.486 338.552 360.774 338.632 361.078 338.632C361.39 338.632 361.682 338.556 361.954 338.404C362.226 338.244 362.442 338.02 362.602 337.732C362.762 337.436 362.842 337.084 362.842 336.676ZM371.567 332.56C371.271 332.56 371.023 332.468 370.823 332.284C370.631 332.092 370.535 331.856 370.535 331.576C370.535 331.296 370.631 331.064 370.823 330.88C371.023 330.688 371.271 330.592 371.567 330.592C371.863 330.592 372.107 330.688 372.299 330.88C372.499 331.064 372.599 331.296 372.599 331.576C372.599 331.856 372.499 332.092 372.299 332.284C372.107 332.468 371.863 332.56 371.567 332.56ZM372.395 333.352V340H370.715V333.352H372.395ZM378.578 333.256C379.37 333.256 380.01 333.508 380.498 334.012C380.986 334.508 381.23 335.204 381.23 336.1V340H379.55V336.328C379.55 335.8 379.418 335.396 379.154 335.116C378.89 334.828 378.53 334.684 378.074 334.684C377.61 334.684 377.242 334.828 376.97 335.116C376.706 335.396 376.574 335.8 376.574 336.328V340H374.894V333.352H376.574V334.18C376.798 333.892 377.082 333.668 377.426 333.508C377.778 333.34 378.162 333.256 378.578 333.256Z" fill="white"/>
</g>
</g>
<defs>
<filter id="filter0_ddddii_649_105" x="0" y="0" width="615" height="478" filterUnits="userSpaceOnUse" color-interpolation-filters="sRGB">
<feFlood flood-opacity="0" result="BackgroundImageFix"/>
<feColorMatrix in="SourceAlpha" type="matrix" values="0 0 0 0 0 0 0 0 0 0 0 0 0 0 0 0 0 0 127 0" result="hardAlpha"/>
<feOffset dx="23" dy="23"/>
<feGaussianBlur stdDeviation="29"/>
<feColorMatrix type="matrix" values="0 0 0 0 0.870588 0 0 0 0 0.870588 0 0 0 0 0.870588 0 0 0 0.9 0"/>
<feBlend mode="normal" in2="BackgroundImageFix" result="effect1_dropShadow_649_105"/>
<feColorMatrix in="SourceAlpha" type="matrix" values="0 0 0 0 0 0 0 0 0 0 0 0 0 0 0 0 0 0 127 0" result="hardAlpha"/>
<feOffset dx="-23" dy="-23"/>
<feGaussianBlur stdDeviation="23"/>
<feColorMatrix type="matrix" values="0 0 0 0 1 0 0 0 0 1 0 0 0 0 1 0 0 0 0.9 0"/>
<feBlend mode="normal" in2="effect1_dropShadow_649_105" result="effect2_dropShadow_649_105"/>
<feColorMatrix in="SourceAlpha" type="matrix" values="0 0 0 0 0 0 0 0 0 0 0 0 0 0 0 0 0 0 127 0" result="hardAlpha"/>
<feOffset dx="23" dy="-23"/>
<feGaussianBlur stdDeviation="23"/>
<feColorMatrix type="matrix" values="0 0 0 0 0.870588 0 0 0 0 0.870588 0 0 0 0 0.870588 0 0 0 0.2 0"/>
<feBlend mode="normal" in2="effect2_dropShadow_649_105" result="effect3_dropShadow_649_105"/>
<feColorMatrix in="SourceAlpha" type="matrix" values="0 0 0 0 0 0 0 0 0 0 0 0 0 0 0 0 0 0 127 0" result="hardAlpha"/>
<feOffset dx="-23" dy="23"/>
<feGaussianBlur stdDeviation="23"/>
<feColorMatrix type="matrix" values="0 0 0 0 0.870588 0 0 0 0 0.870588 0 0 0 0 0.870588 0 0 0 0.2 0"/>
<feBlend mode="normal" in2="effect3_dropShadow_649_105" result="effect4_dropShadow_649_105"/>
<feBlend mode="normal" in="SourceGraphic" in2="effect4_dropShadow_649_105" result="shape"/>
<feColorMatrix in="SourceAlpha" type="matrix" values="0 0 0 0 0 0 0 0 0 0 0 0 0 0 0 0 0 0 127 0" result="hardAlpha"/>
<feOffset dx="-1" dy="-1"/>
<feGaussianBlur stdDeviation="1"/>
<feComposite in2="hardAlpha" operator="arithmetic" k2="-1" k3="1"/>
<feColorMatrix type="matrix" values="0 0 0 0 0.870588 0 0 0 0 0.870588 0 0 0 0 0.870588 0 0 0 0.5 0"/>
<feBlend mode="normal" in2="shape" result="effect5_innerShadow_649_105"/>
<feColorMatrix in="SourceAlpha" type="matrix" values="0 0 0 0 0 0 0 0 0 0 0 0 0 0 0 0 0 0 127 0" result="hardAlpha"/>
<feOffset dx="1" dy="1"/>
<feGaussianBlur stdDeviation="1"/>
<feComposite in2="hardAlpha" operator="arithmetic" k2="-1" k3="1"/>
<feColorMatrix type="matrix" values="0 0 0 0 1 0 0 0 0 1 0 0 0 0 1 0 0 0 0.3 0"/>
<feBlend mode="normal" in2="effect5_innerShadow_649_105" result="effect6_innerShadow_649_105"/>
</filter>
<filter id="filter1_d_649_105" x="-30.7959" y="149.834" width="338.346" height="362.246" filterUnits="userSpaceOnUse" color-interpolation-filters="sRGB">
<feFlood flood-opacity="0" result="BackgroundImageFix"/>
<feColorMatrix in="SourceAlpha" type="matrix" values="0 0 0 0 0 0 0 0 0 0 0 0 0 0 0 0 0 0 127 0" result="hardAlpha"/>
<feOffset dx="10" dy="4"/>
<feGaussianBlur stdDeviation="31"/>
<feComposite in2="hardAlpha" operator="out"/>
<feColorMatrix type="matrix" values="0 0 0 0 0 0 0 0 0 0 0 0 0 0 0 0 0 0 0.25 0"/>
<feBlend mode="normal" in2="BackgroundImageFix" result="effect1_dropShadow_649_105"/>
<feBlend mode="normal" in="SourceGraphic" in2="effect1_dropShadow_649_105" result="shape"/>
</filter>
<filter id="filter2_d_649_105" x="-92.9668" y="245.516" width="386.472" height="376.812" filterUnits="userSpaceOnUse" color-interpolation-filters="sRGB">
<feFlood flood-opacity="0" result="BackgroundImageFix"/>
<feColorMatrix in="SourceAlpha" type="matrix" values="0 0 0 0 0 0 0 0 0 0 0 0 0 0 0 0 0 0 127 0" result="hardAlpha"/>
<feOffset dx="15" dy="4"/>
<feGaussianBlur stdDeviation="22.5"/>
<feComposite in2="hardAlpha" operator="out"/>
<feColorMatrix type="matrix" values="0 0 0 0 0 0 0 0 0 0 0 0 0 0 0 0 0 0 0.25 0"/>
<feBlend mode="normal" in2="BackgroundImageFix" result="effect1_dropShadow_649_105"/>
<feBlend mode="normal" in="SourceGraphic" in2="effect1_dropShadow_649_105" result="shape"/>
</filter>
<filter id="filter3_d_649_105" x="-29.5078" y="307.871" width="246.39" height="191.323" filterUnits="userSpaceOnUse" color-interpolation-filters="sRGB">
<feFlood flood-opacity="0" result="BackgroundImageFix"/>
<feColorMatrix in="SourceAlpha" type="matrix" values="0 0 0 0 0 0 0 0 0 0 0 0 0 0 0 0 0 0 127 0" result="hardAlpha"/>
<feOffset dx="24" dy="4"/>
<feGaussianBlur stdDeviation="18"/>
<feComposite in2="hardAlpha" operator="out"/>
<feColorMatrix type="matrix" values="0 0 0 0 0 0 0 0 0 0 0 0 0 0 0 0 0 0 0.25 0"/>
<feBlend mode="normal" in2="BackgroundImageFix" result="effect1_dropShadow_649_105"/>
<feBlend mode="normal" in="SourceGraphic" in2="effect1_dropShadow_649_105" result="shape"/>
</filter>
<clipPath id="clip0_649_105">
<rect x="69" y="69" width="465" height="328" rx="20" fill="white"/>
</clipPath>
</defs>
</svg>
