<svg width="680" height="543" viewBox="0 0 680 543" fill="none" xmlns="http://www.w3.org/2000/svg">
<g filter="url(#filter0_ddddii_492_93)">
<g clip-path="url(#clip0_492_93)">
<rect x="99" y="99" width="465" height="328" rx="20" fill="white"/>
<rect x="98" y="99" width="466" height="328" rx="20" fill="white"/>
<g filter="url(#filter1_d_492_93)">
<path d="M98.501 119C98.501 107.954 107.455 99 118.501 99H570C581.046 99 590 107.954 590 119V146.584H98.501V119Z" fill="white"/>
</g>
<rect opacity="0.2" x="127.53" y="119.036" width="62.5636" height="8.01421" rx="4.0071" fill="#282937"/>
<rect opacity="0.2" x="221.626" y="119.036" width="62.5636" height="8.01421" rx="4.0071" fill="#282937"/>
<rect opacity="0.1" x="128" y="182" width="130" height="18" rx="9" fill="#282937"/>
<rect opacity="0.1" x="135" y="232" width="227" height="44" fill="#282937"/>
<path d="M189.645 253.765C189.645 252.745 189.875 251.83 190.335 251.02C190.795 250.2 191.42 249.56 192.21 249.1C193.01 248.64 193.895 248.41 194.865 248.41C196.005 248.41 197 248.685 197.85 249.235C198.7 249.785 199.32 250.565 199.71 251.575H198.075C197.785 250.945 197.365 250.46 196.815 250.12C196.275 249.78 195.625 249.61 194.865 249.61C194.135 249.61 193.48 249.78 192.9 250.12C192.32 250.46 191.865 250.945 191.535 251.575C191.205 252.195 191.04 252.925 191.04 253.765C191.04 254.595 191.205 255.325 191.535 255.955C191.865 256.575 192.32 257.055 192.9 257.395C193.48 257.735 194.135 257.905 194.865 257.905C195.625 257.905 196.275 257.74 196.815 257.41C197.365 257.07 197.785 256.585 198.075 255.955H199.71C199.32 256.955 198.7 257.73 197.85 258.28C197 258.82 196.005 259.09 194.865 259.09C193.895 259.09 193.01 258.865 192.21 258.415C191.42 257.955 190.795 257.32 190.335 256.51C189.875 255.7 189.645 254.785 189.645 253.765ZM203.107 252.115C203.347 251.645 203.687 251.28 204.127 251.02C204.577 250.76 205.122 250.63 205.762 250.63V252.04H205.402C203.872 252.04 203.107 252.87 203.107 254.53V259H201.742V250.78H203.107V252.115ZM214.838 254.575C214.838 254.835 214.823 255.11 214.793 255.4H208.223C208.273 256.21 208.548 256.845 209.048 257.305C209.558 257.755 210.173 257.98 210.893 257.98C211.483 257.98 211.973 257.845 212.363 257.575C212.763 257.295 213.043 256.925 213.203 256.465H214.673C214.453 257.255 214.013 257.9 213.353 258.4C212.693 258.89 211.873 259.135 210.893 259.135C210.113 259.135 209.413 258.96 208.793 258.61C208.183 258.26 207.703 257.765 207.353 257.125C207.003 256.475 206.828 255.725 206.828 254.875C206.828 254.025 206.998 253.28 207.338 252.64C207.678 252 208.153 251.51 208.763 251.17C209.383 250.82 210.093 250.645 210.893 250.645C211.673 250.645 212.363 250.815 212.963 251.155C213.563 251.495 214.023 251.965 214.343 252.565C214.673 253.155 214.838 253.825 214.838 254.575ZM213.428 254.29C213.428 253.77 213.313 253.325 213.083 252.955C212.853 252.575 212.538 252.29 212.138 252.1C211.748 251.9 211.313 251.8 210.833 251.8C210.143 251.8 209.553 252.02 209.063 252.46C208.583 252.9 208.308 253.51 208.238 254.29H213.428ZM216.129 254.86C216.129 254.02 216.299 253.285 216.639 252.655C216.979 252.015 217.444 251.52 218.034 251.17C218.634 250.82 219.299 250.645 220.029 250.645C220.749 250.645 221.374 250.8 221.904 251.11C222.434 251.42 222.829 251.81 223.089 252.28V250.78H224.469V259H223.089V257.47C222.819 257.95 222.414 258.35 221.874 258.67C221.344 258.98 220.724 259.135 220.014 259.135C219.284 259.135 218.624 258.955 218.034 258.595C217.444 258.235 216.979 257.73 216.639 257.08C216.299 256.43 216.129 255.69 216.129 254.86ZM223.089 254.875C223.089 254.255 222.964 253.715 222.714 253.255C222.464 252.795 222.124 252.445 221.694 252.205C221.274 251.955 220.809 251.83 220.299 251.83C219.789 251.83 219.324 251.95 218.904 252.19C218.484 252.43 218.149 252.78 217.899 253.24C217.649 253.7 217.524 254.24 217.524 254.86C217.524 255.49 217.649 256.04 217.899 256.51C218.149 256.97 218.484 257.325 218.904 257.575C219.324 257.815 219.789 257.935 220.299 257.935C220.809 257.935 221.274 257.815 221.694 257.575C222.124 257.325 222.464 256.97 222.714 256.51C222.964 256.04 223.089 255.495 223.089 254.875ZM228.441 251.905V256.75C228.441 257.15 228.526 257.435 228.696 257.605C228.866 257.765 229.161 257.845 229.581 257.845H230.586V259H229.356C228.596 259 228.026 258.825 227.646 258.475C227.266 258.125 227.076 257.55 227.076 256.75V251.905H226.011V250.78H227.076V248.71H228.441V250.78H230.586V251.905H228.441ZM239.74 254.575C239.74 254.835 239.725 255.11 239.695 255.4H233.125C233.175 256.21 233.45 256.845 233.95 257.305C234.46 257.755 235.075 257.98 235.795 257.98C236.385 257.98 236.875 257.845 237.265 257.575C237.665 257.295 237.945 256.925 238.105 256.465H239.575C239.355 257.255 238.915 257.9 238.255 258.4C237.595 258.89 236.775 259.135 235.795 259.135C235.015 259.135 234.315 258.96 233.695 258.61C233.085 258.26 232.605 257.765 232.255 257.125C231.905 256.475 231.73 255.725 231.73 254.875C231.73 254.025 231.9 253.28 232.24 252.64C232.58 252 233.055 251.51 233.665 251.17C234.285 250.82 234.995 250.645 235.795 250.645C236.575 250.645 237.265 250.815 237.865 251.155C238.465 251.495 238.925 251.965 239.245 252.565C239.575 253.155 239.74 253.825 239.74 254.575ZM238.33 254.29C238.33 253.77 238.215 253.325 237.985 252.955C237.755 252.575 237.44 252.29 237.04 252.1C236.65 251.9 236.215 251.8 235.735 251.8C235.045 251.8 234.455 252.02 233.965 252.46C233.485 252.9 233.21 253.51 233.14 254.29H238.33ZM249.546 250.63C250.546 250.63 251.356 250.935 251.976 251.545C252.596 252.145 252.906 253.015 252.906 254.155V259H251.556V254.35C251.556 253.53 251.351 252.905 250.941 252.475C250.531 252.035 249.971 251.815 249.261 251.815C248.541 251.815 247.966 252.04 247.536 252.49C247.116 252.94 246.906 253.595 246.906 254.455V259H245.541V250.78H246.906V251.95C247.176 251.53 247.541 251.205 248.001 250.975C248.471 250.745 248.986 250.63 249.546 250.63ZM262.635 254.575C262.635 254.835 262.62 255.11 262.59 255.4H256.02C256.07 256.21 256.345 256.845 256.845 257.305C257.355 257.755 257.97 257.98 258.69 257.98C259.28 257.98 259.77 257.845 260.16 257.575C260.56 257.295 260.84 256.925 261 256.465H262.47C262.25 257.255 261.81 257.9 261.15 258.4C260.49 258.89 259.67 259.135 258.69 259.135C257.91 259.135 257.21 258.96 256.59 258.61C255.98 258.26 255.5 257.765 255.15 257.125C254.8 256.475 254.625 255.725 254.625 254.875C254.625 254.025 254.795 253.28 255.135 252.64C255.475 252 255.95 251.51 256.56 251.17C257.18 250.82 257.89 250.645 258.69 250.645C259.47 250.645 260.16 250.815 260.76 251.155C261.36 251.495 261.82 251.965 262.14 252.565C262.47 253.155 262.635 253.825 262.635 254.575ZM261.225 254.29C261.225 253.77 261.11 253.325 260.88 252.955C260.65 252.575 260.335 252.29 259.935 252.1C259.545 251.9 259.11 251.8 258.63 251.8C257.94 251.8 257.35 252.02 256.86 252.46C256.38 252.9 256.105 253.51 256.035 254.29H261.225ZM275.387 250.78L272.822 259H271.412L269.432 252.475L267.452 259H266.042L263.462 250.78H264.857L266.747 257.68L268.787 250.78H270.182L272.177 257.695L274.037 250.78H275.387ZM282.106 247.9V259H280.741V247.9H282.106ZM285.137 249.445C284.877 249.445 284.657 249.355 284.477 249.175C284.297 248.995 284.207 248.775 284.207 248.515C284.207 248.255 284.297 248.035 284.477 247.855C284.657 247.675 284.877 247.585 285.137 247.585C285.387 247.585 285.597 247.675 285.767 247.855C285.947 248.035 286.037 248.255 286.037 248.515C286.037 248.775 285.947 248.995 285.767 249.175C285.597 249.355 285.387 249.445 285.137 249.445ZM285.797 250.78V259H284.432V250.78H285.797ZM291.034 259.135C290.404 259.135 289.839 259.03 289.339 258.82C288.839 258.6 288.444 258.3 288.154 257.92C287.864 257.53 287.704 257.085 287.674 256.585H289.084C289.124 256.995 289.314 257.33 289.654 257.59C290.004 257.85 290.459 257.98 291.019 257.98C291.539 257.98 291.949 257.865 292.249 257.635C292.549 257.405 292.699 257.115 292.699 256.765C292.699 256.405 292.539 256.14 292.219 255.97C291.899 255.79 291.404 255.615 290.734 255.445C290.124 255.285 289.624 255.125 289.234 254.965C288.854 254.795 288.524 254.55 288.244 254.23C287.974 253.9 287.839 253.47 287.839 252.94C287.839 252.52 287.964 252.135 288.214 251.785C288.464 251.435 288.819 251.16 289.279 250.96C289.739 250.75 290.264 250.645 290.854 250.645C291.764 250.645 292.499 250.875 293.059 251.335C293.619 251.795 293.919 252.425 293.959 253.225H292.594C292.564 252.795 292.389 252.45 292.069 252.19C291.759 251.93 291.339 251.8 290.809 251.8C290.319 251.8 289.929 251.905 289.639 252.115C289.349 252.325 289.204 252.6 289.204 252.94C289.204 253.21 289.289 253.435 289.459 253.615C289.639 253.785 289.859 253.925 290.119 254.035C290.389 254.135 290.759 254.25 291.229 254.38C291.819 254.54 292.299 254.7 292.669 254.86C293.039 255.01 293.354 255.24 293.614 255.55C293.884 255.86 294.024 256.265 294.034 256.765C294.034 257.215 293.909 257.62 293.659 257.98C293.409 258.34 293.054 258.625 292.594 258.835C292.144 259.035 291.624 259.135 291.034 259.135ZM297.626 251.905V256.75C297.626 257.15 297.711 257.435 297.881 257.605C298.051 257.765 298.346 257.845 298.766 257.845H299.771V259H298.541C297.781 259 297.211 258.825 296.831 258.475C296.451 258.125 296.261 257.55 296.261 256.75V251.905H295.196V250.78H296.261V248.71H297.626V250.78H299.771V251.905H297.626Z" fill="black"/>
<rect x="132.5" y="231.5" width="233" height="45" rx="9.5" stroke="#FDB827" stroke-width="9"/>
</g>
</g>
<defs>
<filter id="filter0_ddddii_492_93" x="0" y="0" width="680" height="543" filterUnits="userSpaceOnUse" color-interpolation-filters="sRGB">
<feFlood flood-opacity="0" result="BackgroundImageFix"/>
<feColorMatrix in="SourceAlpha" type="matrix" values="0 0 0 0 0 0 0 0 0 0 0 0 0 0 0 0 0 0 127 0" result="hardAlpha"/>
<feOffset dx="33" dy="33"/>
<feGaussianBlur stdDeviation="41.5"/>
<feColorMatrix type="matrix" values="0 0 0 0 0.929412 0 0 0 0 0.929412 0 0 0 0 0.929412 0 0 0 0.9 0"/>
<feBlend mode="normal" in2="BackgroundImageFix" result="effect1_dropShadow_492_93"/>
<feColorMatrix in="SourceAlpha" type="matrix" values="0 0 0 0 0 0 0 0 0 0 0 0 0 0 0 0 0 0 127 0" result="hardAlpha"/>
<feOffset dx="-33" dy="-33"/>
<feGaussianBlur stdDeviation="33"/>
<feColorMatrix type="matrix" values="0 0 0 0 1 0 0 0 0 1 0 0 0 0 1 0 0 0 0.9 0"/>
<feBlend mode="normal" in2="effect1_dropShadow_492_93" result="effect2_dropShadow_492_93"/>
<feColorMatrix in="SourceAlpha" type="matrix" values="0 0 0 0 0 0 0 0 0 0 0 0 0 0 0 0 0 0 127 0" result="hardAlpha"/>
<feOffset dx="33" dy="-33"/>
<feGaussianBlur stdDeviation="33"/>
<feColorMatrix type="matrix" values="0 0 0 0 0.929412 0 0 0 0 0.929412 0 0 0 0 0.929412 0 0 0 0.2 0"/>
<feBlend mode="normal" in2="effect2_dropShadow_492_93" result="effect3_dropShadow_492_93"/>
<feColorMatrix in="SourceAlpha" type="matrix" values="0 0 0 0 0 0 0 0 0 0 0 0 0 0 0 0 0 0 127 0" result="hardAlpha"/>
<feOffset dx="-33" dy="33"/>
<feGaussianBlur stdDeviation="33"/>
<feColorMatrix type="matrix" values="0 0 0 0 0.929412 0 0 0 0 0.929412 0 0 0 0 0.929412 0 0 0 0.2 0"/>
<feBlend mode="normal" in2="effect3_dropShadow_492_93" result="effect4_dropShadow_492_93"/>
<feBlend mode="normal" in="SourceGraphic" in2="effect4_dropShadow_492_93" result="shape"/>
<feColorMatrix in="SourceAlpha" type="matrix" values="0 0 0 0 0 0 0 0 0 0 0 0 0 0 0 0 0 0 127 0" result="hardAlpha"/>
<feOffset dx="-1" dy="-1"/>
<feGaussianBlur stdDeviation="1"/>
<feComposite in2="hardAlpha" operator="arithmetic" k2="-1" k3="1"/>
<feColorMatrix type="matrix" values="0 0 0 0 0.929412 0 0 0 0 0.929412 0 0 0 0 0.929412 0 0 0 0.5 0"/>
<feBlend mode="normal" in2="shape" result="effect5_innerShadow_492_93"/>
<feColorMatrix in="SourceAlpha" type="matrix" values="0 0 0 0 0 0 0 0 0 0 0 0 0 0 0 0 0 0 127 0" result="hardAlpha"/>
<feOffset dx="1" dy="1"/>
<feGaussianBlur stdDeviation="1"/>
<feComposite in2="hardAlpha" operator="arithmetic" k2="-1" k3="1"/>
<feColorMatrix type="matrix" values="0 0 0 0 1 0 0 0 0 1 0 0 0 0 1 0 0 0 0.3 0"/>
<feBlend mode="normal" in2="effect5_innerShadow_492_93" result="effect6_innerShadow_492_93"/>
</filter>
<filter id="filter1_d_492_93" x="60.501" y="65" width="567.499" height="123.584" filterUnits="userSpaceOnUse" color-interpolation-filters="sRGB">
<feFlood flood-opacity="0" result="BackgroundImageFix"/>
<feColorMatrix in="SourceAlpha" type="matrix" values="0 0 0 0 0 0 0 0 0 0 0 0 0 0 0 0 0 0 127 0" result="hardAlpha"/>
<feMorphology radius="2" operator="dilate" in="SourceAlpha" result="effect1_dropShadow_492_93"/>
<feOffset dy="4"/>
<feGaussianBlur stdDeviation="18"/>
<feComposite in2="hardAlpha" operator="out"/>
<feColorMatrix type="matrix" values="0 0 0 0 0 0 0 0 0 0 0 0 0 0 0 0 0 0 0.08 0"/>
<feBlend mode="normal" in2="BackgroundImageFix" result="effect1_dropShadow_492_93"/>
<feBlend mode="normal" in="SourceGraphic" in2="effect1_dropShadow_492_93" result="shape"/>
</filter>
<clipPath id="clip0_492_93">
<rect x="99" y="99" width="465" height="328" rx="20" fill="white"/>
</clipPath>
</defs>
</svg>
