<svg width="615" height="478" viewBox="0 0 615 478" fill="none" xmlns="http://www.w3.org/2000/svg">
<g filter="url(#filter0_ddddii_649_126)">
<g clip-path="url(#clip0_649_126)">
<rect x="69" y="69" width="465" height="328" rx="20" fill="white"/>
<rect x="68" y="69" width="466" height="328" rx="20" fill="white"/>
<g filter="url(#filter1_d_649_126)">
<path d="M68.501 89C68.501 77.9543 77.4553 69 88.501 69H540C551.046 69 560 77.9543 560 89V116.584H68.501V89Z" fill="white"/>
</g>
<rect opacity="0.2" x="97.5303" y="89.0356" width="62.5636" height="8.01421" rx="4.0071" fill="#282937"/>
<rect opacity="0.2" x="191.626" y="89.0356" width="62.5636" height="8.01421" rx="4.0071" fill="#282937"/>
<rect opacity="0.1" x="98" y="152" width="130" height="18" rx="9" fill="#282937"/>
<rect opacity="0.05" x="105" y="202" width="238" height="127" rx="4" fill="#282937"/>
<rect opacity="0.15" x="119" y="219" width="115" height="16" rx="8" fill="#282937"/>
<mask id="path-9-inside-1_649_126" fill="white">
<rect x="102" y="280" width="245" height="52" rx="4"/>
</mask>
<rect x="102" y="280" width="245" height="52" rx="4" fill="#21209C" stroke="#FDB827" stroke-width="18" mask="url(#path-9-inside-1_649_126)"/>
<path d="M186.88 310.16H181.06L180.06 313H177.68L182.66 299.08H185.3L190.28 313H187.88L186.88 310.16ZM186.24 308.3L183.98 301.84L181.7 308.3H186.24ZM191.685 307.44C191.685 306.333 191.912 305.353 192.365 304.5C192.832 303.647 193.459 302.987 194.245 302.52C195.045 302.04 195.932 301.8 196.905 301.8C197.625 301.8 198.332 301.96 199.025 302.28C199.732 302.587 200.292 303 200.705 303.52V298.2H203.005V313H200.705V311.34C200.332 311.873 199.812 312.313 199.145 312.66C198.492 313.007 197.739 313.18 196.885 313.18C195.925 313.18 195.045 312.94 194.245 312.46C193.459 311.967 192.832 311.287 192.365 310.42C191.912 309.54 191.685 308.547 191.685 307.44ZM200.705 307.48C200.705 306.72 200.545 306.06 200.225 305.5C199.919 304.94 199.512 304.513 199.005 304.22C198.499 303.927 197.952 303.78 197.365 303.78C196.779 303.78 196.232 303.927 195.725 304.22C195.219 304.5 194.805 304.92 194.485 305.48C194.179 306.027 194.025 306.68 194.025 307.44C194.025 308.2 194.179 308.867 194.485 309.44C194.805 310.013 195.219 310.453 195.725 310.76C196.245 311.053 196.792 311.2 197.365 311.2C197.952 311.2 198.499 311.053 199.005 310.76C199.512 310.467 199.919 310.04 200.225 309.48C200.545 308.907 200.705 308.24 200.705 307.48ZM205.24 307.44C205.24 306.333 205.467 305.353 205.92 304.5C206.387 303.647 207.013 302.987 207.8 302.52C208.6 302.04 209.487 301.8 210.46 301.8C211.18 301.8 211.887 301.96 212.58 302.28C213.287 302.587 213.847 303 214.26 303.52V298.2H216.56V313H214.26V311.34C213.887 311.873 213.367 312.313 212.7 312.66C212.047 313.007 211.293 313.18 210.44 313.18C209.48 313.18 208.6 312.94 207.8 312.46C207.013 311.967 206.387 311.287 205.92 310.42C205.467 309.54 205.24 308.547 205.24 307.44ZM214.26 307.48C214.26 306.72 214.1 306.06 213.78 305.5C213.473 304.94 213.067 304.513 212.56 304.22C212.053 303.927 211.507 303.78 210.92 303.78C210.333 303.78 209.787 303.927 209.28 304.22C208.773 304.5 208.36 304.92 208.04 305.48C207.733 306.027 207.58 306.68 207.58 307.44C207.58 308.2 207.733 308.867 208.04 309.44C208.36 310.013 208.773 310.453 209.28 310.76C209.8 311.053 210.347 311.2 210.92 311.2C211.507 311.2 212.053 311.053 212.56 310.76C213.067 310.467 213.473 310.04 213.78 309.48C214.1 308.907 214.26 308.24 214.26 307.48ZM227.41 303.84V309.94C227.41 310.353 227.503 310.653 227.69 310.84C227.89 311.013 228.223 311.1 228.69 311.1H230.09V313H228.29C227.263 313 226.477 312.76 225.93 312.28C225.383 311.8 225.11 311.02 225.11 309.94V303.84H223.81V301.98H225.11V299.24H227.41V301.98H230.09V303.84H227.41ZM231.431 307.44C231.431 306.333 231.658 305.353 232.111 304.5C232.578 303.647 233.205 302.987 233.991 302.52C234.791 302.04 235.671 301.8 236.631 301.8C237.498 301.8 238.251 301.973 238.891 302.32C239.545 302.653 240.065 303.073 240.451 303.58V301.98H242.751V313H240.451V311.36C240.065 311.88 239.538 312.313 238.871 312.66C238.205 313.007 237.445 313.18 236.591 313.18C235.645 313.18 234.778 312.94 233.991 312.46C233.205 311.967 232.578 311.287 232.111 310.42C231.658 309.54 231.431 308.547 231.431 307.44ZM240.451 307.48C240.451 306.72 240.291 306.06 239.971 305.5C239.665 304.94 239.258 304.513 238.751 304.22C238.245 303.927 237.698 303.78 237.111 303.78C236.525 303.78 235.978 303.927 235.471 304.22C234.965 304.5 234.551 304.92 234.231 305.48C233.925 306.027 233.771 306.68 233.771 307.44C233.771 308.2 233.925 308.867 234.231 309.44C234.551 310.013 234.965 310.453 235.471 310.76C235.991 311.053 236.538 311.2 237.111 311.2C237.698 311.2 238.245 311.053 238.751 310.76C239.258 310.467 239.665 310.04 239.971 309.48C240.291 308.907 240.451 308.24 240.451 307.48ZM249.746 313.18C248.879 313.18 248.099 313.027 247.406 312.72C246.726 312.4 246.186 311.973 245.786 311.44C245.386 310.893 245.173 310.287 245.146 309.62H247.506C247.546 310.087 247.766 310.48 248.166 310.8C248.579 311.107 249.093 311.26 249.706 311.26C250.346 311.26 250.839 311.14 251.186 310.9C251.546 310.647 251.726 310.327 251.726 309.94C251.726 309.527 251.526 309.22 251.126 309.02C250.739 308.82 250.119 308.6 249.266 308.36C248.439 308.133 247.766 307.913 247.246 307.7C246.726 307.487 246.273 307.16 245.886 306.72C245.513 306.28 245.326 305.7 245.326 304.98C245.326 304.393 245.499 303.86 245.846 303.38C246.193 302.887 246.686 302.5 247.326 302.22C247.979 301.94 248.726 301.8 249.566 301.8C250.819 301.8 251.826 302.12 252.586 302.76C253.359 303.387 253.773 304.247 253.826 305.34H251.546C251.506 304.847 251.306 304.453 250.946 304.16C250.586 303.867 250.099 303.72 249.486 303.72C248.886 303.72 248.426 303.833 248.106 304.06C247.786 304.287 247.626 304.587 247.626 304.96C247.626 305.253 247.733 305.5 247.946 305.7C248.159 305.9 248.419 306.06 248.726 306.18C249.033 306.287 249.486 306.427 250.086 306.6C250.886 306.813 251.539 307.033 252.046 307.26C252.566 307.473 253.013 307.793 253.386 308.22C253.759 308.647 253.953 309.213 253.966 309.92C253.966 310.547 253.793 311.107 253.446 311.6C253.099 312.093 252.606 312.48 251.966 312.76C251.339 313.04 250.599 313.18 249.746 313.18ZM260.79 307.5L265.87 313H262.79L258.71 308.26V313H256.43V298.2H258.71V306.8L262.71 301.98H265.87L260.79 307.5Z" fill="white"/>
</g>
</g>
<defs>
<filter id="filter0_ddddii_649_126" x="0" y="0" width="615" height="478" filterUnits="userSpaceOnUse" color-interpolation-filters="sRGB">
<feFlood flood-opacity="0" result="BackgroundImageFix"/>
<feColorMatrix in="SourceAlpha" type="matrix" values="0 0 0 0 0 0 0 0 0 0 0 0 0 0 0 0 0 0 127 0" result="hardAlpha"/>
<feOffset dx="23" dy="23"/>
<feGaussianBlur stdDeviation="29"/>
<feColorMatrix type="matrix" values="0 0 0 0 0.870588 0 0 0 0 0.870588 0 0 0 0 0.870588 0 0 0 0.9 0"/>
<feBlend mode="normal" in2="BackgroundImageFix" result="effect1_dropShadow_649_126"/>
<feColorMatrix in="SourceAlpha" type="matrix" values="0 0 0 0 0 0 0 0 0 0 0 0 0 0 0 0 0 0 127 0" result="hardAlpha"/>
<feOffset dx="-23" dy="-23"/>
<feGaussianBlur stdDeviation="23"/>
<feColorMatrix type="matrix" values="0 0 0 0 1 0 0 0 0 1 0 0 0 0 1 0 0 0 0.9 0"/>
<feBlend mode="normal" in2="effect1_dropShadow_649_126" result="effect2_dropShadow_649_126"/>
<feColorMatrix in="SourceAlpha" type="matrix" values="0 0 0 0 0 0 0 0 0 0 0 0 0 0 0 0 0 0 127 0" result="hardAlpha"/>
<feOffset dx="23" dy="-23"/>
<feGaussianBlur stdDeviation="23"/>
<feColorMatrix type="matrix" values="0 0 0 0 0.870588 0 0 0 0 0.870588 0 0 0 0 0.870588 0 0 0 0.2 0"/>
<feBlend mode="normal" in2="effect2_dropShadow_649_126" result="effect3_dropShadow_649_126"/>
<feColorMatrix in="SourceAlpha" type="matrix" values="0 0 0 0 0 0 0 0 0 0 0 0 0 0 0 0 0 0 127 0" result="hardAlpha"/>
<feOffset dx="-23" dy="23"/>
<feGaussianBlur stdDeviation="23"/>
<feColorMatrix type="matrix" values="0 0 0 0 0.870588 0 0 0 0 0.870588 0 0 0 0 0.870588 0 0 0 0.2 0"/>
<feBlend mode="normal" in2="effect3_dropShadow_649_126" result="effect4_dropShadow_649_126"/>
<feBlend mode="normal" in="SourceGraphic" in2="effect4_dropShadow_649_126" result="shape"/>
<feColorMatrix in="SourceAlpha" type="matrix" values="0 0 0 0 0 0 0 0 0 0 0 0 0 0 0 0 0 0 127 0" result="hardAlpha"/>
<feOffset dx="-1" dy="-1"/>
<feGaussianBlur stdDeviation="1"/>
<feComposite in2="hardAlpha" operator="arithmetic" k2="-1" k3="1"/>
<feColorMatrix type="matrix" values="0 0 0 0 0.870588 0 0 0 0 0.870588 0 0 0 0 0.870588 0 0 0 0.5 0"/>
<feBlend mode="normal" in2="shape" result="effect5_innerShadow_649_126"/>
<feColorMatrix in="SourceAlpha" type="matrix" values="0 0 0 0 0 0 0 0 0 0 0 0 0 0 0 0 0 0 127 0" result="hardAlpha"/>
<feOffset dx="1" dy="1"/>
<feGaussianBlur stdDeviation="1"/>
<feComposite in2="hardAlpha" operator="arithmetic" k2="-1" k3="1"/>
<feColorMatrix type="matrix" values="0 0 0 0 1 0 0 0 0 1 0 0 0 0 1 0 0 0 0.3 0"/>
<feBlend mode="normal" in2="effect5_innerShadow_649_126" result="effect6_innerShadow_649_126"/>
</filter>
<filter id="filter1_d_649_126" x="30.501" y="35" width="567.499" height="123.584" filterUnits="userSpaceOnUse" color-interpolation-filters="sRGB">
<feFlood flood-opacity="0" result="BackgroundImageFix"/>
<feColorMatrix in="SourceAlpha" type="matrix" values="0 0 0 0 0 0 0 0 0 0 0 0 0 0 0 0 0 0 127 0" result="hardAlpha"/>
<feMorphology radius="2" operator="dilate" in="SourceAlpha" result="effect1_dropShadow_649_126"/>
<feOffset dy="4"/>
<feGaussianBlur stdDeviation="18"/>
<feComposite in2="hardAlpha" operator="out"/>
<feColorMatrix type="matrix" values="0 0 0 0 0 0 0 0 0 0 0 0 0 0 0 0 0 0 0.08 0"/>
<feBlend mode="normal" in2="BackgroundImageFix" result="effect1_dropShadow_649_126"/>
<feBlend mode="normal" in="SourceGraphic" in2="effect1_dropShadow_649_126" result="shape"/>
</filter>
<clipPath id="clip0_649_126">
<rect x="69" y="69" width="465" height="328" rx="20" fill="white"/>
</clipPath>
</defs>
</svg>
