<svg width="615" height="478" viewBox="0 0 615 478" fill="none" xmlns="http://www.w3.org/2000/svg">
<g filter="url(#filter0_ddddii_655_107)">
<g clip-path="url(#clip0_655_107)">
<rect x="69" y="69" width="465" height="328" rx="20" fill="white"/>
<g filter="url(#filter1_ddddii_655_107)">
<rect x="145" y="117" width="314" height="246" rx="4" fill="white"/>
</g>
<rect opacity="0.4" x="163" y="136" width="64" height="20" rx="4" fill="#21209C"/>
<rect x="170" y="306" width="95" height="33" rx="4" fill="#D45B4A"/>
<path d="M189.65 327.105C188.92 327.105 188.26 326.98 187.67 326.73C187.09 326.48 186.63 326.12 186.29 325.65C185.95 325.18 185.775 324.625 185.765 323.985H188.015C188.045 324.415 188.195 324.755 188.465 325.005C188.745 325.255 189.125 325.38 189.605 325.38C190.095 325.38 190.48 325.265 190.76 325.035C191.04 324.795 191.18 324.485 191.18 324.105C191.18 323.795 191.085 323.54 190.895 323.34C190.705 323.14 190.465 322.985 190.175 322.875C189.895 322.755 189.505 322.625 189.005 322.485C188.325 322.285 187.77 322.09 187.34 321.9C186.92 321.7 186.555 321.405 186.245 321.015C185.945 320.615 185.795 320.085 185.795 319.425C185.795 318.805 185.95 318.265 186.26 317.805C186.57 317.345 187.005 316.995 187.565 316.755C188.125 316.505 188.765 316.38 189.485 316.38C190.565 316.38 191.44 316.645 192.11 317.175C192.79 317.695 193.165 318.425 193.235 319.365H190.925C190.905 319.005 190.75 318.71 190.46 318.48C190.18 318.24 189.805 318.12 189.335 318.12C188.925 318.12 188.595 318.225 188.345 318.435C188.105 318.645 187.985 318.95 187.985 319.35C187.985 319.63 188.075 319.865 188.255 320.055C188.445 320.235 188.675 320.385 188.945 320.505C189.225 320.615 189.615 320.745 190.115 320.895C190.795 321.095 191.35 321.295 191.78 321.495C192.21 321.695 192.58 321.995 192.89 322.395C193.2 322.795 193.355 323.32 193.355 323.97C193.355 324.53 193.21 325.05 192.92 325.53C192.63 326.01 192.205 326.395 191.645 326.685C191.085 326.965 190.42 327.105 189.65 327.105ZM196.241 317.7C195.871 317.7 195.561 317.585 195.311 317.355C195.071 317.115 194.951 316.82 194.951 316.47C194.951 316.12 195.071 315.83 195.311 315.6C195.561 315.36 195.871 315.24 196.241 315.24C196.611 315.24 196.916 315.36 197.156 315.6C197.406 315.83 197.531 316.12 197.531 316.47C197.531 316.82 197.406 317.115 197.156 317.355C196.916 317.585 196.611 317.7 196.241 317.7ZM197.276 318.69V327H195.176V318.69H197.276ZM202.605 318.555C203.225 318.555 203.77 318.68 204.24 318.93C204.71 319.17 205.08 319.485 205.35 319.875V318.69H207.465V327.06C207.465 327.83 207.31 328.515 207 329.115C206.69 329.725 206.225 330.205 205.605 330.555C204.985 330.915 204.235 331.095 203.355 331.095C202.175 331.095 201.205 330.82 200.445 330.27C199.695 329.72 199.27 328.97 199.17 328.02H201.255C201.365 328.4 201.6 328.7 201.96 328.92C202.33 329.15 202.775 329.265 203.295 329.265C203.905 329.265 204.4 329.08 204.78 328.71C205.16 328.35 205.35 327.8 205.35 327.06V325.77C205.08 326.16 204.705 326.485 204.225 326.745C203.755 327.005 203.215 327.135 202.605 327.135C201.905 327.135 201.265 326.955 200.685 326.595C200.105 326.235 199.645 325.73 199.305 325.08C198.975 324.42 198.81 323.665 198.81 322.815C198.81 321.975 198.975 321.23 199.305 320.58C199.645 319.93 200.1 319.43 200.67 319.08C201.25 318.73 201.895 318.555 202.605 318.555ZM205.35 322.845C205.35 322.335 205.25 321.9 205.05 321.54C204.85 321.17 204.58 320.89 204.24 320.7C203.9 320.5 203.535 320.4 203.145 320.4C202.755 320.4 202.395 320.495 202.065 320.685C201.735 320.875 201.465 321.155 201.255 321.525C201.055 321.885 200.955 322.315 200.955 322.815C200.955 323.315 201.055 323.755 201.255 324.135C201.465 324.505 201.735 324.79 202.065 324.99C202.405 325.19 202.765 325.29 203.145 325.29C203.535 325.29 203.9 325.195 204.24 325.005C204.58 324.805 204.85 324.525 205.05 324.165C205.25 323.795 205.35 323.355 205.35 322.845ZM214.121 318.57C215.111 318.57 215.911 318.885 216.521 319.515C217.131 320.135 217.436 321.005 217.436 322.125V327H215.336V322.41C215.336 321.75 215.171 321.245 214.841 320.895C214.511 320.535 214.061 320.355 213.491 320.355C212.911 320.355 212.451 320.535 212.111 320.895C211.781 321.245 211.616 321.75 211.616 322.41V327H209.516V318.69H211.616V319.725C211.896 319.365 212.251 319.085 212.681 318.885C213.121 318.675 213.601 318.57 214.121 318.57ZM226.698 327.135C225.898 327.135 225.178 326.96 224.538 326.61C223.898 326.25 223.393 325.745 223.023 325.095C222.663 324.445 222.483 323.695 222.483 322.845C222.483 321.995 222.668 321.245 223.038 320.595C223.418 319.945 223.933 319.445 224.583 319.095C225.233 318.735 225.958 318.555 226.758 318.555C227.558 318.555 228.283 318.735 228.933 319.095C229.583 319.445 230.093 319.945 230.463 320.595C230.843 321.245 231.033 321.995 231.033 322.845C231.033 323.695 230.838 324.445 230.448 325.095C230.068 325.745 229.548 326.25 228.888 326.61C228.238 326.96 227.508 327.135 226.698 327.135ZM226.698 325.305C227.078 325.305 227.433 325.215 227.763 325.035C228.103 324.845 228.373 324.565 228.573 324.195C228.773 323.825 228.873 323.375 228.873 322.845C228.873 322.055 228.663 321.45 228.243 321.03C227.833 320.6 227.328 320.385 226.728 320.385C226.128 320.385 225.623 320.6 225.213 321.03C224.813 321.45 224.613 322.055 224.613 322.845C224.613 323.635 224.808 324.245 225.198 324.675C225.598 325.095 226.098 325.305 226.698 325.305ZM240.418 318.69V327H238.303V325.95C238.033 326.31 237.678 326.595 237.238 326.805C236.808 327.005 236.338 327.105 235.828 327.105C235.178 327.105 234.603 326.97 234.103 326.7C233.603 326.42 233.208 326.015 232.918 325.485C232.638 324.945 232.498 324.305 232.498 323.565V318.69H234.598V323.265C234.598 323.925 234.763 324.435 235.093 324.795C235.423 325.145 235.873 325.32 236.443 325.32C237.023 325.32 237.478 325.145 237.808 324.795C238.138 324.435 238.303 323.925 238.303 323.265V318.69H240.418ZM244.935 320.415V324.435C244.935 324.715 245 324.92 245.13 325.05C245.27 325.17 245.5 325.23 245.82 325.23H246.795V327H245.475C243.705 327 242.82 326.14 242.82 324.42V320.415H241.83V318.69H242.82V316.635H244.935V318.69H246.795V320.415H244.935Z" fill="white"/>
<rect opacity="0.2" x="163" y="172" width="167" height="25" rx="12.5" fill="#282937"/>
<rect opacity="0.2" x="163" y="213" width="72" height="10" rx="5" fill="#21209C"/>
<rect opacity="0.2" x="163" y="233" width="72" height="10" rx="5" fill="#21209C"/>
<rect opacity="0.2" x="163" y="253" width="72" height="10" rx="5" fill="#21209C"/>
<rect opacity="0.2" x="163" y="273" width="72" height="10" rx="5" fill="#21209C"/>
<mask id="path-11-inside-1_655_107" fill="white">
<rect x="163" y="297" width="107" height="49" rx="4"/>
</mask>
<rect x="163" y="297" width="107" height="49" rx="4" stroke="#FDB827" stroke-width="18" mask="url(#path-11-inside-1_655_107)"/>
</g>
</g>
<defs>
<filter id="filter0_ddddii_655_107" x="0" y="0" width="615" height="478" filterUnits="userSpaceOnUse" color-interpolation-filters="sRGB">
<feFlood flood-opacity="0" result="BackgroundImageFix"/>
<feColorMatrix in="SourceAlpha" type="matrix" values="0 0 0 0 0 0 0 0 0 0 0 0 0 0 0 0 0 0 127 0" result="hardAlpha"/>
<feOffset dx="23" dy="23"/>
<feGaussianBlur stdDeviation="29"/>
<feColorMatrix type="matrix" values="0 0 0 0 0.870588 0 0 0 0 0.870588 0 0 0 0 0.870588 0 0 0 0.9 0"/>
<feBlend mode="normal" in2="BackgroundImageFix" result="effect1_dropShadow_655_107"/>
<feColorMatrix in="SourceAlpha" type="matrix" values="0 0 0 0 0 0 0 0 0 0 0 0 0 0 0 0 0 0 127 0" result="hardAlpha"/>
<feOffset dx="-23" dy="-23"/>
<feGaussianBlur stdDeviation="23"/>
<feColorMatrix type="matrix" values="0 0 0 0 1 0 0 0 0 1 0 0 0 0 1 0 0 0 0.9 0"/>
<feBlend mode="normal" in2="effect1_dropShadow_655_107" result="effect2_dropShadow_655_107"/>
<feColorMatrix in="SourceAlpha" type="matrix" values="0 0 0 0 0 0 0 0 0 0 0 0 0 0 0 0 0 0 127 0" result="hardAlpha"/>
<feOffset dx="23" dy="-23"/>
<feGaussianBlur stdDeviation="23"/>
<feColorMatrix type="matrix" values="0 0 0 0 0.870588 0 0 0 0 0.870588 0 0 0 0 0.870588 0 0 0 0.2 0"/>
<feBlend mode="normal" in2="effect2_dropShadow_655_107" result="effect3_dropShadow_655_107"/>
<feColorMatrix in="SourceAlpha" type="matrix" values="0 0 0 0 0 0 0 0 0 0 0 0 0 0 0 0 0 0 127 0" result="hardAlpha"/>
<feOffset dx="-23" dy="23"/>
<feGaussianBlur stdDeviation="23"/>
<feColorMatrix type="matrix" values="0 0 0 0 0.870588 0 0 0 0 0.870588 0 0 0 0 0.870588 0 0 0 0.2 0"/>
<feBlend mode="normal" in2="effect3_dropShadow_655_107" result="effect4_dropShadow_655_107"/>
<feBlend mode="normal" in="SourceGraphic" in2="effect4_dropShadow_655_107" result="shape"/>
<feColorMatrix in="SourceAlpha" type="matrix" values="0 0 0 0 0 0 0 0 0 0 0 0 0 0 0 0 0 0 127 0" result="hardAlpha"/>
<feOffset dx="-1" dy="-1"/>
<feGaussianBlur stdDeviation="1"/>
<feComposite in2="hardAlpha" operator="arithmetic" k2="-1" k3="1"/>
<feColorMatrix type="matrix" values="0 0 0 0 0.870588 0 0 0 0 0.870588 0 0 0 0 0.870588 0 0 0 0.5 0"/>
<feBlend mode="normal" in2="shape" result="effect5_innerShadow_655_107"/>
<feColorMatrix in="SourceAlpha" type="matrix" values="0 0 0 0 0 0 0 0 0 0 0 0 0 0 0 0 0 0 127 0" result="hardAlpha"/>
<feOffset dx="1" dy="1"/>
<feGaussianBlur stdDeviation="1"/>
<feComposite in2="hardAlpha" operator="arithmetic" k2="-1" k3="1"/>
<feColorMatrix type="matrix" values="0 0 0 0 1 0 0 0 0 1 0 0 0 0 1 0 0 0 0.3 0"/>
<feBlend mode="normal" in2="effect5_innerShadow_655_107" result="effect6_innerShadow_655_107"/>
</filter>
<filter id="filter1_ddddii_655_107" x="109" y="81" width="392" height="324" filterUnits="userSpaceOnUse" color-interpolation-filters="sRGB">
<feFlood flood-opacity="0" result="BackgroundImageFix"/>
<feColorMatrix in="SourceAlpha" type="matrix" values="0 0 0 0 0 0 0 0 0 0 0 0 0 0 0 0 0 0 127 0" result="hardAlpha"/>
<feOffset dx="12" dy="12"/>
<feGaussianBlur stdDeviation="15"/>
<feColorMatrix type="matrix" values="0 0 0 0 0.870588 0 0 0 0 0.870588 0 0 0 0 0.870588 0 0 0 0.9 0"/>
<feBlend mode="normal" in2="BackgroundImageFix" result="effect1_dropShadow_655_107"/>
<feColorMatrix in="SourceAlpha" type="matrix" values="0 0 0 0 0 0 0 0 0 0 0 0 0 0 0 0 0 0 127 0" result="hardAlpha"/>
<feOffset dx="-12" dy="-12"/>
<feGaussianBlur stdDeviation="12"/>
<feColorMatrix type="matrix" values="0 0 0 0 1 0 0 0 0 1 0 0 0 0 1 0 0 0 0.9 0"/>
<feBlend mode="normal" in2="effect1_dropShadow_655_107" result="effect2_dropShadow_655_107"/>
<feColorMatrix in="SourceAlpha" type="matrix" values="0 0 0 0 0 0 0 0 0 0 0 0 0 0 0 0 0 0 127 0" result="hardAlpha"/>
<feOffset dx="12" dy="-12"/>
<feGaussianBlur stdDeviation="12"/>
<feColorMatrix type="matrix" values="0 0 0 0 0.870588 0 0 0 0 0.870588 0 0 0 0 0.870588 0 0 0 0.2 0"/>
<feBlend mode="normal" in2="effect2_dropShadow_655_107" result="effect3_dropShadow_655_107"/>
<feColorMatrix in="SourceAlpha" type="matrix" values="0 0 0 0 0 0 0 0 0 0 0 0 0 0 0 0 0 0 127 0" result="hardAlpha"/>
<feOffset dx="-12" dy="12"/>
<feGaussianBlur stdDeviation="12"/>
<feColorMatrix type="matrix" values="0 0 0 0 0.870588 0 0 0 0 0.870588 0 0 0 0 0.870588 0 0 0 0.2 0"/>
<feBlend mode="normal" in2="effect3_dropShadow_655_107" result="effect4_dropShadow_655_107"/>
<feBlend mode="normal" in="SourceGraphic" in2="effect4_dropShadow_655_107" result="shape"/>
<feColorMatrix in="SourceAlpha" type="matrix" values="0 0 0 0 0 0 0 0 0 0 0 0 0 0 0 0 0 0 127 0" result="hardAlpha"/>
<feOffset dx="-1" dy="-1"/>
<feGaussianBlur stdDeviation="1"/>
<feComposite in2="hardAlpha" operator="arithmetic" k2="-1" k3="1"/>
<feColorMatrix type="matrix" values="0 0 0 0 0.870588 0 0 0 0 0.870588 0 0 0 0 0.870588 0 0 0 0.5 0"/>
<feBlend mode="normal" in2="shape" result="effect5_innerShadow_655_107"/>
<feColorMatrix in="SourceAlpha" type="matrix" values="0 0 0 0 0 0 0 0 0 0 0 0 0 0 0 0 0 0 127 0" result="hardAlpha"/>
<feOffset dx="1" dy="1"/>
<feGaussianBlur stdDeviation="1"/>
<feComposite in2="hardAlpha" operator="arithmetic" k2="-1" k3="1"/>
<feColorMatrix type="matrix" values="0 0 0 0 1 0 0 0 0 1 0 0 0 0 1 0 0 0 0.3 0"/>
<feBlend mode="normal" in2="effect5_innerShadow_655_107" result="effect6_innerShadow_655_107"/>
</filter>
<clipPath id="clip0_655_107">
<rect x="69" y="69" width="465" height="328" rx="20" fill="white"/>
</clipPath>
</defs>
</svg>
