<svg width="615" height="478" viewBox="0 0 615 478" fill="none" xmlns="http://www.w3.org/2000/svg">
<g filter="url(#filter0_ddddii_650_151)">
<rect x="69" y="69" width="465" height="328" rx="20" fill="#C6C6C6"/>
<rect x="99" y="146" width="221" height="87" rx="4" fill="white"/>
<rect x="99" y="102" width="221" height="35" rx="4" fill="#E2E2E2"/>
<rect x="99" y="242" width="221" height="35" rx="4" fill="#E2E2E2"/>
<rect x="234" y="286" width="86" height="35" rx="4" fill="white"/>
<rect x="159" y="337" width="161" height="44" rx="4" fill="#D45B4A"/>
<path d="M190.04 352.1C191.52 352.1 192.813 352.387 193.92 352.96C195.04 353.52 195.9 354.333 196.5 355.4C197.113 356.453 197.42 357.687 197.42 359.1C197.42 360.513 197.113 361.74 196.5 362.78C195.9 363.82 195.04 364.62 193.92 365.18C192.813 365.727 191.52 366 190.04 366H185.5V352.1H190.04ZM190.04 364.14C191.667 364.14 192.913 363.7 193.78 362.82C194.647 361.94 195.08 360.7 195.08 359.1C195.08 357.487 194.647 356.227 193.78 355.32C192.913 354.413 191.667 353.96 190.04 353.96H187.78V364.14H190.04ZM209.78 360.22C209.78 360.633 209.753 361.007 209.7 361.34H201.28C201.346 362.22 201.673 362.927 202.26 363.46C202.846 363.993 203.566 364.26 204.42 364.26C205.646 364.26 206.513 363.747 207.02 362.72H209.48C209.146 363.733 208.54 364.567 207.66 365.22C206.793 365.86 205.713 366.18 204.42 366.18C203.366 366.18 202.42 365.947 201.58 365.48C200.753 365 200.1 364.333 199.62 363.48C199.153 362.613 198.92 361.613 198.92 360.48C198.92 359.347 199.146 358.353 199.6 357.5C200.066 356.633 200.713 355.967 201.54 355.5C202.38 355.033 203.34 354.8 204.42 354.8C205.46 354.8 206.386 355.027 207.2 355.48C208.013 355.933 208.646 356.573 209.1 357.4C209.553 358.213 209.78 359.153 209.78 360.22ZM207.4 359.5C207.386 358.66 207.086 357.987 206.5 357.48C205.913 356.973 205.186 356.72 204.32 356.72C203.533 356.72 202.86 356.973 202.3 357.48C201.74 357.973 201.406 358.647 201.3 359.5H207.4ZM214.303 351.2V366H212.023V351.2H214.303ZM227.397 360.22C227.397 360.633 227.37 361.007 227.317 361.34H218.897C218.964 362.22 219.29 362.927 219.877 363.46C220.464 363.993 221.184 364.26 222.037 364.26C223.264 364.26 224.13 363.747 224.637 362.72H227.097C226.764 363.733 226.157 364.567 225.277 365.22C224.41 365.86 223.33 366.18 222.037 366.18C220.984 366.18 220.037 365.947 219.197 365.48C218.37 365 217.717 364.333 217.237 363.48C216.77 362.613 216.537 361.613 216.537 360.48C216.537 359.347 216.764 358.353 217.217 357.5C217.684 356.633 218.33 355.967 219.157 355.5C219.997 355.033 220.957 354.8 222.037 354.8C223.077 354.8 224.004 355.027 224.817 355.48C225.63 355.933 226.264 356.573 226.717 357.4C227.17 358.213 227.397 359.153 227.397 360.22ZM225.017 359.5C225.004 358.66 224.704 357.987 224.117 357.48C223.53 356.973 222.804 356.72 221.937 356.72C221.15 356.72 220.477 356.973 219.917 357.48C219.357 357.973 219.024 358.647 218.917 359.5H225.017ZM232.301 356.84V362.94C232.301 363.353 232.394 363.653 232.581 363.84C232.781 364.013 233.114 364.1 233.581 364.1H234.981V366H233.181C232.154 366 231.367 365.76 230.821 365.28C230.274 364.8 230.001 364.02 230.001 362.94V356.84H228.701V354.98H230.001V352.24H232.301V354.98H234.981V356.84H232.301ZM247.182 360.22C247.182 360.633 247.155 361.007 247.102 361.34H238.682C238.749 362.22 239.075 362.927 239.662 363.46C240.249 363.993 240.969 364.26 241.822 364.26C243.049 364.26 243.915 363.747 244.422 362.72H246.882C246.549 363.733 245.942 364.567 245.062 365.22C244.195 365.86 243.115 366.18 241.822 366.18C240.769 366.18 239.822 365.947 238.982 365.48C238.155 365 237.502 364.333 237.022 363.48C236.555 362.613 236.322 361.613 236.322 360.48C236.322 359.347 236.549 358.353 237.002 357.5C237.469 356.633 238.115 355.967 238.942 355.5C239.782 355.033 240.742 354.8 241.822 354.8C242.862 354.8 243.789 355.027 244.602 355.48C245.415 355.933 246.049 356.573 246.502 357.4C246.955 358.213 247.182 359.153 247.182 360.22ZM244.802 359.5C244.789 358.66 244.489 357.987 243.902 357.48C243.315 356.973 242.589 356.72 241.722 356.72C240.935 356.72 240.262 356.973 239.702 357.48C239.142 357.973 238.809 358.647 238.702 359.5H244.802ZM257.281 356.84V362.94C257.281 363.353 257.374 363.653 257.561 363.84C257.761 364.013 258.094 364.1 258.561 364.1H259.961V366H258.161C257.134 366 256.348 365.76 255.801 365.28C255.254 364.8 254.981 364.02 254.981 362.94V356.84H253.681V354.98H254.981V352.24H257.281V354.98H259.961V356.84H257.281ZM261.303 360.44C261.303 359.333 261.529 358.353 261.983 357.5C262.449 356.647 263.076 355.987 263.863 355.52C264.663 355.04 265.543 354.8 266.503 354.8C267.369 354.8 268.123 354.973 268.763 355.32C269.416 355.653 269.936 356.073 270.323 356.58V354.98H272.623V366H270.323V364.36C269.936 364.88 269.409 365.313 268.743 365.66C268.076 366.007 267.316 366.18 266.463 366.18C265.516 366.18 264.649 365.94 263.863 365.46C263.076 364.967 262.449 364.287 261.983 363.42C261.529 362.54 261.303 361.547 261.303 360.44ZM270.323 360.48C270.323 359.72 270.163 359.06 269.843 358.5C269.536 357.94 269.129 357.513 268.623 357.22C268.116 356.927 267.569 356.78 266.983 356.78C266.396 356.78 265.849 356.927 265.343 357.22C264.836 357.5 264.423 357.92 264.103 358.48C263.796 359.027 263.643 359.68 263.643 360.44C263.643 361.2 263.796 361.867 264.103 362.44C264.423 363.013 264.836 363.453 265.343 363.76C265.863 364.053 266.409 364.2 266.983 364.2C267.569 364.2 268.116 364.053 268.623 363.76C269.129 363.467 269.536 363.04 269.843 362.48C270.163 361.907 270.323 361.24 270.323 360.48ZM279.617 366.18C278.751 366.18 277.971 366.027 277.277 365.72C276.597 365.4 276.057 364.973 275.657 364.44C275.257 363.893 275.044 363.287 275.017 362.62H277.377C277.417 363.087 277.637 363.48 278.037 363.8C278.451 364.107 278.964 364.26 279.577 364.26C280.217 364.26 280.711 364.14 281.057 363.9C281.417 363.647 281.597 363.327 281.597 362.94C281.597 362.527 281.397 362.22 280.997 362.02C280.611 361.82 279.991 361.6 279.137 361.36C278.311 361.133 277.637 360.913 277.117 360.7C276.597 360.487 276.144 360.16 275.757 359.72C275.384 359.28 275.197 358.7 275.197 357.98C275.197 357.393 275.371 356.86 275.717 356.38C276.064 355.887 276.557 355.5 277.197 355.22C277.851 354.94 278.597 354.8 279.437 354.8C280.691 354.8 281.697 355.12 282.457 355.76C283.231 356.387 283.644 357.247 283.697 358.34H281.417C281.377 357.847 281.177 357.453 280.817 357.16C280.457 356.867 279.971 356.72 279.357 356.72C278.757 356.72 278.297 356.833 277.977 357.06C277.657 357.287 277.497 357.587 277.497 357.96C277.497 358.253 277.604 358.5 277.817 358.7C278.031 358.9 278.291 359.06 278.597 359.18C278.904 359.287 279.357 359.427 279.957 359.6C280.757 359.813 281.411 360.033 281.917 360.26C282.437 360.473 282.884 360.793 283.257 361.22C283.631 361.647 283.824 362.213 283.837 362.92C283.837 363.547 283.664 364.107 283.317 364.6C282.971 365.093 282.477 365.48 281.837 365.76C281.211 366.04 280.471 366.18 279.617 366.18ZM290.661 360.5L295.741 366H292.661L288.581 361.26V366H286.301V351.2H288.581V359.8L292.581 354.98H295.741L290.661 360.5Z" fill="white"/>
<rect x="334" y="102" width="35" height="35" rx="4" fill="#E2E2E2"/>
<rect opacity="0.6" x="112" y="164" width="188" height="9" rx="4.5" fill="#939393" fill-opacity="0.4"/>
<rect opacity="0.6" x="110" y="115" width="116" height="9" rx="4.5" fill="#939393" fill-opacity="0.4"/>
<mask id="path-11-inside-1_650_151" fill="white">
<rect x="154" y="330" width="166" height="57" rx="4"/>
</mask>
<rect x="154" y="330" width="166" height="57" rx="4" stroke="#FDB827" stroke-width="18" mask="url(#path-11-inside-1_650_151)"/>
</g>
<defs>
<filter id="filter0_ddddii_650_151" x="0" y="0" width="615" height="478" filterUnits="userSpaceOnUse" color-interpolation-filters="sRGB">
<feFlood flood-opacity="0" result="BackgroundImageFix"/>
<feColorMatrix in="SourceAlpha" type="matrix" values="0 0 0 0 0 0 0 0 0 0 0 0 0 0 0 0 0 0 127 0" result="hardAlpha"/>
<feOffset dx="23" dy="23"/>
<feGaussianBlur stdDeviation="29"/>
<feColorMatrix type="matrix" values="0 0 0 0 0.870588 0 0 0 0 0.870588 0 0 0 0 0.870588 0 0 0 0.9 0"/>
<feBlend mode="normal" in2="BackgroundImageFix" result="effect1_dropShadow_650_151"/>
<feColorMatrix in="SourceAlpha" type="matrix" values="0 0 0 0 0 0 0 0 0 0 0 0 0 0 0 0 0 0 127 0" result="hardAlpha"/>
<feOffset dx="-23" dy="-23"/>
<feGaussianBlur stdDeviation="23"/>
<feColorMatrix type="matrix" values="0 0 0 0 1 0 0 0 0 1 0 0 0 0 1 0 0 0 0.9 0"/>
<feBlend mode="normal" in2="effect1_dropShadow_650_151" result="effect2_dropShadow_650_151"/>
<feColorMatrix in="SourceAlpha" type="matrix" values="0 0 0 0 0 0 0 0 0 0 0 0 0 0 0 0 0 0 127 0" result="hardAlpha"/>
<feOffset dx="23" dy="-23"/>
<feGaussianBlur stdDeviation="23"/>
<feColorMatrix type="matrix" values="0 0 0 0 0.870588 0 0 0 0 0.870588 0 0 0 0 0.870588 0 0 0 0.2 0"/>
<feBlend mode="normal" in2="effect2_dropShadow_650_151" result="effect3_dropShadow_650_151"/>
<feColorMatrix in="SourceAlpha" type="matrix" values="0 0 0 0 0 0 0 0 0 0 0 0 0 0 0 0 0 0 127 0" result="hardAlpha"/>
<feOffset dx="-23" dy="23"/>
<feGaussianBlur stdDeviation="23"/>
<feColorMatrix type="matrix" values="0 0 0 0 0.870588 0 0 0 0 0.870588 0 0 0 0 0.870588 0 0 0 0.2 0"/>
<feBlend mode="normal" in2="effect3_dropShadow_650_151" result="effect4_dropShadow_650_151"/>
<feBlend mode="normal" in="SourceGraphic" in2="effect4_dropShadow_650_151" result="shape"/>
<feColorMatrix in="SourceAlpha" type="matrix" values="0 0 0 0 0 0 0 0 0 0 0 0 0 0 0 0 0 0 127 0" result="hardAlpha"/>
<feOffset dx="-1" dy="-1"/>
<feGaussianBlur stdDeviation="1"/>
<feComposite in2="hardAlpha" operator="arithmetic" k2="-1" k3="1"/>
<feColorMatrix type="matrix" values="0 0 0 0 0.870588 0 0 0 0 0.870588 0 0 0 0 0.870588 0 0 0 0.5 0"/>
<feBlend mode="normal" in2="shape" result="effect5_innerShadow_650_151"/>
<feColorMatrix in="SourceAlpha" type="matrix" values="0 0 0 0 0 0 0 0 0 0 0 0 0 0 0 0 0 0 127 0" result="hardAlpha"/>
<feOffset dx="1" dy="1"/>
<feGaussianBlur stdDeviation="1"/>
<feComposite in2="hardAlpha" operator="arithmetic" k2="-1" k3="1"/>
<feColorMatrix type="matrix" values="0 0 0 0 1 0 0 0 0 1 0 0 0 0 1 0 0 0 0.3 0"/>
<feBlend mode="normal" in2="effect5_innerShadow_650_151" result="effect6_innerShadow_650_151"/>
</filter>
</defs>
</svg>
